<svg xmlns="http://www.w3.org/2000/svg" width="329.973" height="173.016" viewBox="0 0 329.973 173.016">
  <g id="Group_1630" data-name="Group 1630" transform="translate(-22.514 -126.938)">
    <g id="Group_1578" data-name="Group 1578" transform="translate(0 -100.389)">
      <g id="Group_1548" data-name="Group 1548" transform="translate(0 0.702)">
        <g id="Path_131" data-name="Path 131" transform="translate(22.514 226.625)" fill="#fff">
          <path d="M 318.3946533203125 172.7656402587891 L 11.57799434661865 172.7656402587891 C 8.554161071777344 172.7656402587891 5.710744857788086 171.5373992919922 3.571536540985107 169.3070983886719 C 1.429619789123535 167.073974609375 0.2499947845935822 164.1041870117188 0.2499947845935822 160.9447784423828 L 0.2499947845935822 12.07085418701172 C 0.2499947845935822 10.49339580535889 0.6006614565849304 8.948437690734863 1.292286515235901 7.478812694549561 C 1.948953151702881 6.083479404449463 2.880661487579346 4.818312644958496 4.061494827270508 3.718437433242798 C 6.427994728088379 1.514187455177307 9.532161712646484 0.250020831823349 12.57799434661865 0.250020831823349 L 318.3946533203125 0.250020831823349 C 321.4184875488281 0.250020831823349 324.2619018554688 1.478270888328552 326.401123046875 3.708520889282227 C 328.5430297851563 5.941645622253418 329.72265625 8.911437034606934 329.72265625 12.07085418701172 L 329.72265625 160.9447784423828 C 329.72265625 164.1041870117188 328.5430297851563 167.073974609375 326.401123046875 169.3070983886719 C 324.2619018554688 171.5373992919922 321.4184875488281 172.7656402587891 318.3946533203125 172.7656402587891 Z" stroke="none"/>
          <path d="M 12.5780029296875 0.4999847412109375 C 9.59466552734375 0.4999847412109375 6.55267333984375 1.739730834960938 4.231903076171875 3.901351928710938 C 3.074462890625 4.97943115234375 2.161529541015625 6.218856811523438 1.51849365234375 7.585235595703125 C 0.8426513671875 9.021316528320313 0.5 10.53047180175781 0.5 12.07084655761719 L 0.5 160.9447631835938 C 0.5 164.0393524169922 1.6549072265625 166.9476928710938 3.751953125 169.1340179443359 C 5.84356689453125 171.3146820068359 8.6229248046875 172.5156097412109 11.5780029296875 172.5156097412109 L 318.3946533203125 172.5156097412109 C 321.3497314453125 172.5156097412109 324.1291198730469 171.3146820068359 326.220703125 169.1340179443359 C 328.3177490234375 166.9477233886719 329.47265625 164.0393981933594 329.47265625 160.9447631835938 L 329.47265625 12.07084655761719 C 329.47265625 8.976226806640625 328.3177490234375 6.067901611328125 326.220703125 3.881561279296875 C 324.1291198730469 1.700942993164063 321.3497314453125 0.4999847412109375 318.3946533203125 0.4999847412109375 L 12.5780029296875 0.4999847412109375 M 12.5780029296875 -1.52587890625e-05 L 318.3946533203125 -1.52587890625e-05 C 324.7890319824219 -1.52587890625e-05 329.97265625 5.404312133789063 329.97265625 12.07084655761719 L 329.97265625 160.9447631835938 C 329.97265625 167.6113128662109 324.7890319824219 173.0156097412109 318.3946533203125 173.0156097412109 L 11.5780029296875 173.0156097412109 C 5.18365478515625 173.0156097412109 0 167.6113128662109 0 160.9447631835938 L 0 12.07084655761719 C 0 5.404312133789063 6.18365478515625 -1.52587890625e-05 12.5780029296875 -1.52587890625e-05 Z" stroke="none" fill="#acacac"/>
        </g>
        <text id="MSFT" transform="translate(46 268)" font-size="32" font-family="SegoeUI-Bold, Segoe UI" font-weight="700" letter-spacing="-0.02em"><tspan x="0" y="0">MSFT</tspan></text>
        <text id="Internet_Retail" data-name="Internet Retail" transform="translate(45 282.113)" font-size="10" font-family="SegoeUI, Segoe UI" opacity="0.503"><tspan x="0" y="0">Internet Retail</tspan></text>
        <path id="Path_132" data-name="Path 132" d="M2156.078,137.94l3.531-14.547,3.531,7.177,3.531-6.225,3.531-4.27,3.531-4.862,3.531,2.714,3.531-6.817,3.53,3.833,3.531-1.428,3.531,2.894,3.531-.785,3.531,1.569,3.531,10.187,3.53,2.431,3.531-1.08,3.531,8.849,3.531-1.453,3.531,5,3.531-3.511,3.531,19.268,3.53-.45" transform="translate(-1905.545 134.559)" fill="none" stroke="#ccc" stroke-linecap="round" stroke-linejoin="round" stroke-width="2"/>
        <g id="Group_1493" data-name="Group 1493" transform="translate(0.5 2)">
          <g id="Group_1490" data-name="Group 1490" transform="translate(56 8.367)">
            <text id="_643" data-name="643" transform="translate(122.5 257.406)" font-size="16" font-family="SegoeUI-Semibold, Segoe UI" font-weight="600" letter-spacing="-0.02em"><tspan x="0" y="0">643</tspan></text>
          </g>
          <text id="Last_close" data-name="Last close" transform="translate(161.5 280.113)" fill="#7f7f7f" font-size="10" font-family="SegoeUI, Segoe UI"><tspan x="0" y="0">Last close</tspan></text>
        </g>
        <g id="Group_1536" data-name="Group 1536" transform="translate(-98.048 99.427)">
          <g id="Group_1490-2" data-name="Group 1490" transform="translate(138.048 249.949)">
            <text id="_56_" data-name="56%" transform="translate(7 17)" font-size="22" font-family="SegoeUI-Bold, Segoe UI" font-weight="700" letter-spacing="-0.02em"><tspan x="0" y="0">56%</tspan></text>
          </g>
          <text id="Potential_Gain" data-name="Potential Gain" transform="translate(145.048 280.949)" fill="#7f7f7f" font-size="10" font-family="SegoeUI, Segoe UI"><tspan x="0" y="0">Potential Gain</tspan></text>
        </g>
        <g id="Group_1538" data-name="Group 1538" transform="translate(-108.168 2.805)">
          <rect id="Rectangle_170" data-name="Rectangle 170" width="14.622" height="11.299" rx="3" transform="translate(259.601 353.291)" fill="#b3b4f4"/>
          <rect id="Rectangle_171" data-name="Rectangle 171" width="14.622" height="11.299" rx="3" transform="translate(276.217 353.291)" fill="#8082ec"/>
          <rect id="Rectangle_172" data-name="Rectangle 172" width="14.954" height="11.299" rx="3" transform="translate(292.832 353.291)" fill="#ebebeb"/>
          <rect id="Rectangle_173" data-name="Rectangle 173" width="14.954" height="11.299" rx="3" transform="translate(309.78 353.291)" fill="#ebebeb"/>
          <text id="Risk_Reward" data-name="Risk / Reward" transform="translate(259.601 377.57)" font-size="10" font-family="SegoeUI, Segoe UI" letter-spacing="-0.04em" opacity="0.497"><tspan x="0" y="0">Risk / Reward</tspan></text>
        </g>
        <g id="Group_1517" data-name="Group 1517" transform="translate(-106 67.298)">
          <rect id="Rectangle_239" data-name="Rectangle 239" width="63" height="20" rx="4" transform="translate(152 246)" fill="#ecf8f5"/>
          <text id="Mid-term" transform="translate(164 259)" font-size="10" font-family="SegoeUI-Semibold, Segoe UI" font-weight="600"><tspan x="0" y="0">Mid-term</tspan></text>
        </g>
        <g id="Group_1579" data-name="Group 1579" transform="translate(0.5 2)">
          <g id="Group_1490-3" data-name="Group 1490" transform="translate(56 8.367)">
            <text id="_643-2" data-name="643" transform="translate(122.5 257.406)" font-size="16" font-family="SegoeUI-Semibold, Segoe UI" font-weight="600" letter-spacing="-0.02em"><tspan x="0" y="0">643</tspan></text>
          </g>
          <text id="Last_close-2" data-name="Last close" transform="translate(161.5 280.113)" fill="#7f7f7f" font-size="10" font-family="SegoeUI, Segoe UI"><tspan x="0" y="0">Last close</tspan></text>
        </g>
        <g id="Group_1492" data-name="Group 1492" transform="translate(129.838 30.375)" opacity="0.998">
          <g id="Group_706" data-name="Group 706" transform="translate(129.107 277.888)">
            <g id="Group_58" data-name="Group 58" transform="translate(0 0)">
              <g id="Group_1537" data-name="Group 1537" transform="translate(0)">
                <g id="Group_1540" data-name="Group 1540" transform="translate(0 -2.001)">
                  <text id="Stop_Loss_Levels" data-name="Stop Loss Levels" transform="translate(0 77.114)" font-size="8" font-family="SegoeUI, Segoe UI" letter-spacing="-0.04em" opacity="0.497"><tspan x="0" y="0">Stop Loss Levels</tspan></text>
                  <text id="_215" data-name="215" transform="translate(32 64.113)" font-size="14" font-family="SegoeUI-Semibold, Segoe UI" font-weight="600" letter-spacing="-0.02em"><tspan x="0" y="0">215</tspan></text>
                  <text id="_210" data-name="210" transform="translate(0 64.114)" font-size="14" font-family="SegoeUI-Semibold, Segoe UI" font-weight="600" letter-spacing="-0.02em"><tspan x="0" y="0">210</tspan></text>
                  <line id="Line_2" data-name="Line 2" y2="11.036" transform="translate(27 54.096)" fill="none" stroke="#969696" stroke-linecap="round" stroke-width="1.5"/>
                </g>
                <g id="Group_1539" data-name="Group 1539" transform="translate(0 1)">
                  <text id="Overbought_Zones" data-name="Overbought Zones" transform="translate(0 27.223)" font-size="8" font-family="SegoeUI, Segoe UI" letter-spacing="-0.04em" opacity="0.497"><tspan x="0" y="0">Overbought Zones</tspan></text>
                  <text id="_260" data-name="260" transform="translate(0 15.364)" font-size="14" font-family="SegoeUI-Semibold, Segoe UI" font-weight="600" letter-spacing="-0.02em"><tspan x="0" y="0">260</tspan></text>
                  <text id="_280" data-name="280" transform="translate(37 15.224)" font-size="14" font-family="SegoeUI-Semibold, Segoe UI" font-weight="600" letter-spacing="-0.02em"><tspan x="0" y="0">280</tspan></text>
                  <line id="Line_15" data-name="Line 15" x2="4.201" transform="translate(28.399 10.864)" fill="none" stroke="#969696" stroke-linecap="round" stroke-width="1.5"/>
                </g>
              </g>
            </g>
          </g>
        </g>
      </g>
      <path id="Polygon_2" data-name="Polygon 2" d="M3.432,1.806a1,1,0,0,1,1.792,0L7.94,7.282a1,1,0,0,1-.9,1.444H1.612a1,1,0,0,1-.9-1.444Z" transform="translate(162 259)" fill="#4cce98"/>
    </g>
    <rect id="Rectangle_277" data-name="Rectangle 277" width="100" height="48" rx="9" transform="translate(142 244)" fill="#fff"/>
    <rect id="Rectangle_278" data-name="Rectangle 278" width="295" height="70" rx="9" transform="translate(35 129)" fill="#fff"/>
    <rect id="Rectangle_279" data-name="Rectangle 279" width="72" height="79" rx="9" transform="translate(44 213)" fill="#fff"/>
    <rect id="Rectangle_280" data-name="Rectangle 280" width="83" height="39" rx="9" transform="translate(247 205)" fill="#fff"/>
  </g>
</svg>
