<svg xmlns="http://www.w3.org/2000/svg" width="331.592" height="172.916" viewBox="0 0 331.592 172.916">
  <g id="Group_1592" data-name="Group 1592" transform="translate(-21.704 -432.505)">
    <g id="Group_693" data-name="Group 693" transform="translate(21.704 432.505)">
      <path id="Path_75" data-name="Path 75" d="M11.635,0H319.957a11.855,11.855,0,0,1,11.635,12.064V160.852a11.855,11.855,0,0,1-11.635,12.064H11.635A11.855,11.855,0,0,1,0,160.852V12.064A11.855,11.855,0,0,1,11.635,0Z" transform="translate(0 0)" fill="#f5f5f5"/>
      <g id="Group_562" data-name="Group 562" transform="translate(21.318 122.552)">
        <g id="Group_58" data-name="Group 58" transform="translate(0 0)">
          <text id="Overbought_Zones" data-name="Overbought Zones" transform="translate(0 31.439)" font-size="10" font-family="SegoeUI, Segoe UI" letter-spacing="-0.04em" opacity="0.392"><tspan x="0" y="0">Overbought Zones</tspan></text>
          <text id="_134" data-name="134" transform="translate(0 16.559)" font-size="17" font-family="SegoeUI-Semibold, Segoe UI" font-weight="600" letter-spacing="-0.02em"><tspan x="0" y="0">134</tspan></text>
          <text id="_145" data-name="145" transform="translate(38.674 16.559)" font-size="17" font-family="SegoeUI-Semibold, Segoe UI" font-weight="600" letter-spacing="-0.02em"><tspan x="0" y="0">145</tspan></text>
          <line id="Line_15" data-name="Line 15" x2="4.43" transform="translate(29.622 11.559)" fill="none" stroke="#969696" stroke-linecap="round" stroke-width="1.5"/>
        </g>
      </g>
      <text id="AAPL" transform="translate(21.318 41.802)" font-size="32" font-family="SegoeUI-Bold, Segoe UI" font-weight="700" letter-spacing="-0.02em"><tspan x="0" y="0">AAPL</tspan></text>
      <g id="Group_589" data-name="Group 589" transform="translate(206.358 27.599)">
        <g id="Group_563" data-name="Group 563" transform="translate(71.981 -8.585) rotate(24)">
          <line id="Line_16" data-name="Line 16" y1="19.204" x2="22.515" transform="translate(0 0)" fill="none" stroke="#4cce98" stroke-linecap="round" stroke-width="2" stroke-dasharray="3 5"/>
        </g>
        <path id="Path_11" data-name="Path 11" d="M1606.1,1962.368l2.624,4.826,2.624,1.3,2.624,3.254,2.624,2.657,2.624-.6,2.624.3,2.624,1.654,2.624-.434,2.624-3.118,2.624,2.142,2.624-3.769,2.624-.488,2.624-.271,2.624,1.491,2.624-2.115,2.624,4.935,2.624,1.355,2.624-2.413,2.624,1.681,2.624-1.925,2.623-.515,2.624.732,2.624-.108" transform="translate(-1606.099 -1962.368)" fill="none" stroke="#6c6c6c" stroke-linecap="round" stroke-linejoin="round" stroke-width="2" opacity="0.703"/>
      </g>
      <path id="Polygon_4" data-name="Polygon 4" d="M4.762,1.357a1,1,0,0,1,1.7,0l3.806,6.089a1,1,0,0,1-.848,1.53H1.8a1,1,0,0,1-.848-1.53Z" transform="translate(113.733 26.601)" fill="#4cce98"/>
      <text id="Quality_Score" data-name="Quality Score" transform="translate(244.04 153.991)" font-size="10" font-family="SegoeUI, Segoe UI" letter-spacing="-0.04em" opacity="0.397"><tspan x="0" y="0">Quality Score</tspan></text>
      <text id="Possible_sell_this_week_Close_to_overbought_levels" data-name="Possible sell this week
Close to overbought levels" transform="translate(110.701 81.958)" font-size="11" font-family="SegoeUI, Segoe UI" opacity="0.809"><tspan x="0" y="0">Possible sell this week</tspan><tspan x="0" y="15">Close to overbought levels</tspan></text>
      <g id="Group_1589" data-name="Group 1589">
        <text id="Stop_Loss_Levels" data-name="Stop Loss Levels" transform="translate(139.028 153.99)" font-size="10" font-family="SegoeUI, Segoe UI" letter-spacing="-0.04em" opacity="0.392"><tspan x="0" y="0">Stop Loss Levels</tspan></text>
        <text id="_105" data-name="105" transform="translate(139.028 139.111)" font-size="17" font-family="SegoeUI-Semibold, Segoe UI" font-weight="600" letter-spacing="-0.02em"><tspan x="0" y="0">105</tspan></text>
        <text id="_108" data-name="108" transform="translate(177.375 139.11)" font-size="17" font-family="SegoeUI-Semibold, Segoe UI" font-weight="600" letter-spacing="-0.02em"><tspan x="0" y="0">108</tspan></text>
        <line id="Line_33" data-name="Line 33" y2="11.635" transform="translate(171.201 127.485)" fill="none" stroke="#969696" stroke-linecap="round" stroke-width="1.5"/>
      </g>
      <g id="Group_1618" data-name="Group 1618" transform="translate(57.463 -2319.896)">
        <g id="Group_1613" data-name="Group 1613" transform="translate(200.674 2434.625)">
          <g id="Group_582" data-name="Group 582" transform="translate(0 0.001)">
            <path id="Subtraction_1" data-name="Subtraction 1" d="M12.9,25.805A12.906,12.906,0,0,1,7.88,1.014,12.906,12.906,0,0,1,17.925,24.791,12.822,12.822,0,0,1,12.9,25.805Zm0-21.141a8.214,8.214,0,1,0,3.207.647A8.188,8.188,0,0,0,12.9,4.664Z" transform="translate(0 0)" fill="#ccc"/>
          </g>
        </g>
        <g id="Group_1615" data-name="Group 1615" transform="translate(-56 0.015)">
          <path id="Subtraction_9" data-name="Subtraction 9" d="M-4058.424,10673.432a12.827,12.827,0,0,1-5.022-1.016,12.848,12.848,0,0,1-4.1-2.764,12.822,12.822,0,0,1-2.764-4.1,12.84,12.84,0,0,1-1.007-4.551h4.668a8.193,8.193,0,0,0,.635,2.734,8.2,8.2,0,0,0,1.765,2.62,8.211,8.211,0,0,0,2.62,1.766,8.15,8.15,0,0,0,3.206.648,8.152,8.152,0,0,0,3.207-.648,8.157,8.157,0,0,0,2.62-1.766,8.245,8.245,0,0,0,1.765-2.62,8.148,8.148,0,0,0,.648-3.206,8.148,8.148,0,0,0-.648-3.206,8.261,8.261,0,0,0-1.765-2.62,8.181,8.181,0,0,0-2.62-1.765,8.226,8.226,0,0,0-2.783-.638v-4.668a12.782,12.782,0,0,1,4.6,1.009,12.827,12.827,0,0,1,4.1,2.765,12.817,12.817,0,0,1,2.764,4.1,12.837,12.837,0,0,1,1.015,5.022,12.837,12.837,0,0,1-1.015,5.022,12.831,12.831,0,0,1-2.764,4.1,12.814,12.814,0,0,1-4.1,2.764A12.829,12.829,0,0,1-4058.424,10673.432Z" transform="translate(4328 -8213)" fill="#4cce98"/>
          <path id="Path_962" data-name="Path 962" d="M2.347,0A2.333,2.333,0,0,1,4.695,2.319,2.333,2.333,0,0,1,2.347,4.638,2.333,2.333,0,0,1,0,2.319,2.333,2.333,0,0,1,2.347,0Z" transform="translate(256.682 2445.658)" fill="#4cce98"/>
          <path id="Path_963" data-name="Path 963" d="M2.347,0A2.333,2.333,0,0,1,4.695,2.319,2.333,2.333,0,0,1,2.347,4.638,2.333,2.333,0,0,1,0,2.319,2.333,2.333,0,0,1,2.347,0Z" transform="translate(267.682 2434.632)" fill="#4cce98"/>
        </g>
      </g>
    </g>
    <text id="Short-term" transform="translate(152.253 468.473)" font-size="12" font-family="SegoeUI, Segoe UI" opacity="0.809"><tspan x="0" y="0">Short-term</tspan></text>
    <g id="Group_1519" data-name="Group 1519" transform="translate(-108 262.473)">
      <path id="Path_935" data-name="Path 935" d="M4,0H70a4,4,0,0,1,4,4V16a4,4,0,0,1-4,4H4a4,4,0,0,1-4-4V4A4,4,0,0,1,4,0Z" transform="translate(152 246)" fill="#4e51e5"/>
      <text id="Hold_Sell" data-name="Hold/Sell" transform="translate(161 261)" fill="#fff" font-size="14" font-family="SegoeUI-Semibold, Segoe UI" font-weight="600"><tspan x="0" y="0">Hold/Sell</tspan></text>
    </g>
  </g>
</svg>
