<svg xmlns="http://www.w3.org/2000/svg" width="98.021" height="100.097" viewBox="0 0 98.021 100.097">
  <g id="Group_89" data-name="Group 89" transform="translate(2)">
    <g id="Group_406" data-name="Group 406" transform="translate(0 0)">
      <g id="Group_366" data-name="Group 366">
        <g id="Group_364" data-name="Group 364" transform="translate(0)">
          <g id="Group_365" data-name="Group 365" transform="translate(55.801)">
            <path id="path44" d="M27.865,8.08,13.953,0,0,8.009l13.913,8.079L27.865,8.08" transform="translate(0 13.933) rotate(-30)" fill="#0b012f"/>
            <path id="path48" d="M.039,0,0,16.088l13.913,8.08.039-16.089L.039,0" transform="translate(3.971 20.888) rotate(-30)" fill="#0005d9"/>
            <path id="path46" d="M.039,8.009,0,24.1l13.952-8.01L13.991,0,.039,8.009" transform="translate(16.055 14) rotate(-30)" fill="#0005d9"/>
          </g>
          <g id="Group_8" data-name="Group 8" transform="translate(45.697 16.926)">
            <path id="path44-2" data-name="path44" d="M27.865,8.08,13.953,0,0,8.009l13.913,8.079L27.865,8.08" transform="translate(0 13.933) rotate(-30)" fill="#0b012f"/>
            <path id="path48-2" data-name="path48" d="M.039,0,0,16.088l13.913,8.08.039-16.089L.039,0" transform="translate(3.971 20.888) rotate(-30)" fill="#6f679a"/>
            <path id="path46-2" data-name="path46" d="M.039,8.009,0,24.1l13.952-8.01L13.991,0,.039,8.009" transform="translate(16.055 14) rotate(-30)" fill="#0005d9"/>
          </g>
          <g id="Group_9" data-name="Group 9" transform="translate(37.652 30.786)">
            <path id="path44-3" data-name="path44" d="M27.865,8.08,13.953,0,0,8.009l13.913,8.079L27.865,8.08" transform="translate(0 13.933) rotate(-30)" fill="#0b012f"/>
            <path id="path48-3" data-name="path48" d="M.039,0,0,16.088l13.913,8.08.039-16.089L.039,0" transform="translate(3.971 20.888) rotate(-30)" fill="#e9e9e9"/>
            <path id="path46-3" data-name="path46" d="M.039,8.009,0,24.1l13.952-8.01L13.991,0,.039,8.009" transform="translate(16.055 14) rotate(-30)" fill="#0005d9"/>
          </g>
          <g id="Group_7" data-name="Group 7" transform="translate(29.722 44.532)">
            <path id="path44-4" data-name="path44" d="M27.865,8.08,13.953,0,0,8.009l13.913,8.079L27.865,8.08" transform="translate(0 13.933) rotate(-30)" fill="#0b012f"/>
            <path id="path48-4" data-name="path48" d="M.039,0,0,16.088l13.913,8.08.039-16.089L.039,0" transform="translate(3.971 20.888) rotate(-30)" fill="#6f679a"/>
            <path id="path46-4" data-name="path46" d="M.039,8.009,0,24.1l13.952-8.01L13.991,0,.039,8.009" transform="translate(16.055 14) rotate(-30)" fill="#0005d9"/>
          </g>
          <g id="Group_6" data-name="Group 6" transform="translate(21.791 58.279)">
            <path id="path44-5" data-name="path44" d="M27.865,8.08,13.953,0,0,8.009l13.913,8.079L27.865,8.08" transform="translate(0 13.933) rotate(-30)" fill="#9292ac"/>
            <path id="path48-5" data-name="path48" d="M.039,0,0,16.088l13.913,8.08.039-16.089L.039,0" transform="translate(3.971 20.888) rotate(-30)" fill="#0b012f"/>
            <path id="path46-5" data-name="path46" d="M.039,8.009,0,24.1l13.952-8.01L13.991,0,.039,8.009" transform="translate(16.055 14) rotate(-30)" fill="#0005d9"/>
          </g>
          <g id="Group_5" data-name="Group 5" transform="translate(13.861 44.532)">
            <path id="path44-6" data-name="path44" d="M27.865,8.08,13.953,0,0,8.009l13.913,8.079L27.865,8.08" transform="translate(0 13.933) rotate(-30)" fill="#9292ac"/>
            <path id="path48-6" data-name="path48" d="M.039,0,0,16.088l13.913,8.08.039-16.089L.039,0" transform="translate(3.971 20.888) rotate(-30)" fill="#0b012f"/>
            <path id="path46-6" data-name="path46" d="M.039,8.009,0,24.1l13.952-8.01L13.991,0,.039,8.009" transform="translate(16.055 14) rotate(-30)" fill="#0005d9"/>
          </g>
          <g id="Group_4" data-name="Group 4" transform="translate(5.93 30.786)">
            <path id="path44-7" data-name="path44" d="M27.865,8.08,13.953,0,0,8.009l13.913,8.079L27.865,8.08" transform="translate(0 13.933) rotate(-30)" fill="#0b012f"/>
            <path id="path48-7" data-name="path48" d="M.039,0,0,16.088l13.913,8.08.039-16.089L.039,0" transform="translate(3.971 20.888) rotate(-30)" fill="#e9e9e9"/>
            <path id="path46-7" data-name="path46" d="M.039,8.009,0,24.1l13.952-8.01L13.991,0,.039,8.009" transform="translate(16.055 14) rotate(-30)" fill="#0005d9"/>
          </g>
          <g id="Group_3" data-name="Group 3" transform="translate(-2 44.532)">
            <path id="path44-8" data-name="path44" d="M27.865,8.08,13.953,0,0,8.009l13.913,8.079L27.865,8.08" transform="translate(0 13.933) rotate(-30)" fill="#0b012f"/>
            <path id="path48-8" data-name="path48" d="M.039,0,0,16.088l13.913,8.08.039-16.089L.039,0" transform="translate(3.971 20.888) rotate(-30)" fill="#0005d9"/>
            <path id="path46-8" data-name="path46" d="M.039,8.009,0,24.1l13.952-8.01L13.991,0,.039,8.009" transform="translate(16.055 14) rotate(-30)" fill="#0005d9"/>
          </g>
        </g>
      </g>
    </g>
  </g>
</svg>
