<svg xmlns="http://www.w3.org/2000/svg" width="447.582" height="429.42" viewBox="0 0 447.582 429.42">
  <g id="Group_1557" data-name="Group 1557" transform="translate(72 86.607)">
    <path id="Path_938" data-name="Path 938" d="M0,0H447l.582,240.118-111.89,89.351L313.2,347.263l-4.946-7.335-52.988,38.538-17.732-20.692-20.055,22.144-27.861-63.707L46.281,429.42Z" transform="translate(-72 -86.607)" fill="#f2f2f2"/>
    <g id="_10_-_BIKE_" data-name="10 - BIKE " transform="translate(-231.354 -419.671)">
      <g id="_10---BIKE" transform="translate(347.731 603.441)">
        <path id="GRAPH-LINE-" d="M348.831,1023.089a.914.914,0,0,1-.113.007,1.025,1.025,0,1,1,.984-1.024,1.038,1.038,0,0,1-.384.812l26.212,59.486a.95.95,0,0,1,1.008.176l18.605-21.293a1.056,1.056,0,0,1-.031-.256.984.984,0,1,1,1.967,0,1.057,1.057,0,0,1-.049.32l16.753,19.135a.958.958,0,0,1,1.433.131l50.2-37.333a1.108,1.108,0,0,1-.013-.172.984.984,0,1,1,1.967,0,1.047,1.047,0,0,1-.108.468l3.918,6.762a.948.948,0,0,1,.426-.1.958.958,0,0,1,.656.261l19.834-16.457a1.055,1.055,0,0,1-.079-.4.985.985,0,1,1,.983,1.024.956.956,0,0,1-.578-.2l-1.958,1.624-14.99,12.438-2.929,2.43a1.058,1.058,0,0,1,.043.3.984.984,0,1,1-1.967,0,1.044,1.044,0,0,1,.158-.557l-3.892-6.714a.95.95,0,0,1-.5.144.968.968,0,0,1-.741-.351L415.42,1081.1c0,.037.005.074.005.111a.985.985,0,1,1-1.968,0,1.054,1.054,0,0,1,.038-.28l-16.767-19.152a.955.955,0,0,1-1.3-.037l-18.588,21.272a1.062,1.062,0,0,1,.044.3.984.984,0,1,1-1.967,0,1.046,1.046,0,0,1,.193-.609Z" transform="translate(-346.735 -974.48)" fill="#0005d9" stroke="#0005d9" stroke-width="1.5" fill-rule="evenodd"/>
        <path id="CLOUDS" d="M463.415,748.87a5.109,5.109,0,0,1,1.465-1.272,9.835,9.835,0,0,1,3.477-.77,9.189,9.189,0,0,0,3.192-1.3c1.657-1.024,3.072-2.485,4.807-3.37a6.708,6.708,0,0,1,2.053-.661c4.191-.622,6.309,3.131,9.748,4.623,1.872.812,3.616.127,5.522,1.266a2.708,2.708,0,0,1,1.3,2.066S463.4,748.894,463.415,748.87Zm105.113-34.588a3.335,3.335,0,0,1,.848-1.587c1.318-1.165,2.974-.758,4.51-1.229,3.018-.925,4.865-4.082,7.951-4.867a4.8,4.8,0,0,1,1.447-.168c3.125.181,4.261,3.4,6.819,4.662,1.662.821,3.237.638,4.849,1.8a1.87,1.87,0,0,1,.844,1.393S575.5,714.316,568.529,714.281ZM458.617,696.755a3.275,3.275,0,0,1,1.6-2.469c1.187-.772,2.673-.546,3.783-1.47,2.437-2.029,4.058-6.3,7.878-5.422,2.431.562,3.825,2.932,5.723,4.383,1.551,1.186,3.362,1.385,5.168,1.891a8.483,8.483,0,0,1,3.575,1.8,3.518,3.518,0,0,1,.926,1.289C487.311,696.866,462.74,696.433,458.617,696.755Z" transform="translate(-450.667 -666.19)" fill="#e3e3e3" fill-rule="evenodd"/>
        <g id="FRONT-WEEL" transform="translate(97.741 46.568)">
          <g id="Group_1220" data-name="Group 1220" transform="translate(0 0)">
            <ellipse id="Ellipse_82" data-name="Ellipse 82" cx="14.457" cy="15.05" rx="14.457" ry="15.05" fill="#e3e3e3"/>
          </g>
          <g id="Group_1233" data-name="Group 1233" transform="translate(1.49 1.551)">
            <g id="Group_1226" data-name="Group 1226" transform="translate(0 13.135)">
              <path id="Path_681" data-name="Path 681" d="M824.8,949.239a12.278,12.278,0,1,1-24.536,0,.35.35,0,1,0-.7,0,12.977,12.977,0,1,0,25.933,0,.35.35,0,1,0-.7,0Z" transform="translate(-799.57 -948.875)" fill-rule="evenodd"/>
            </g>
            <g id="Group_1227" data-name="Group 1227">
              <path id="Path_682" data-name="Path 682" d="M800.269,779.178a12.278,12.278,0,1,1,24.536,0,.35.35,0,1,0,.7,0,12.977,12.977,0,1,0-25.933,0,.35.35,0,1,0,.7,0Z" transform="translate(-799.57 -765.679)" fill-rule="evenodd"/>
            </g>
            <g id="Group_1232" data-name="Group 1232" transform="translate(4.67 5.252)">
              <g id="Group_1228" data-name="Group 1228" transform="translate(1.296 1.022)">
                <path id="Path_683" data-name="Path 683" d="M1575.674,1374.2l-.328-.348.5-.51.573.608a.374.374,0,0,1,0,.515l-.844.863a8.722,8.722,0,0,1,2.034,4.391.376.376,0,0,1-.077.294.348.348,0,0,1-.265.13l-2.274.024a.354.354,0,0,1-.348-.3,5.788,5.788,0,0,0-1.067-2.5l-2.813,2.874c1.856,3.032,1.838,5.417.078,7.148a4.205,4.205,0,0,1-3.355,1.293,6.249,6.249,0,0,1-3.562-1.456l-1.451,1.482a.339.339,0,0,1-.494-.006l-.563-.6.5-.51.318.337,1.419-1.449a.338.338,0,0,1,.463-.024,5.759,5.759,0,0,0,3.406,1.5,3.556,3.556,0,0,0,2.837-1.095c1.583-1.557,1.424-3.712-.338-6.47a.376.376,0,0,1,.047-.461l3.292-3.362a.34.34,0,0,1,.509.022,6.573,6.573,0,0,1,1.4,2.846l1.567-.016a8,8,0,0,0-.689-1.97,8.2,8.2,0,0,0-1.317-1.881.374.374,0,0,1,.007-.512Zm-9.733,10.964a2.036,2.036,0,0,0,1.248.335,1.892,1.892,0,0,0,.673-.241l.34.637a2.6,2.6,0,0,1-.918.325,3.079,3.079,0,0,1-2.1-.684.373.373,0,0,1-.051-.563l1.764-1.8.49.519Zm4.377-10.054a2.406,2.406,0,0,1,.9-.222h.021a2.526,2.526,0,0,1,1.612.624.371.371,0,0,1,.128.265.376.376,0,0,1-.1.276l-1.445,1.476-.49-.519,1.139-1.164a1.848,1.848,0,0,0-.848-.229,1.767,1.767,0,0,0-.642.165l-.018.008a2.061,2.061,0,0,0-.715.505l-.49-.52A2.76,2.76,0,0,1,1570.318,1375.108Z" transform="translate(-1561.415 -1373.339)" fill-rule="evenodd"/>
              </g>
              <g id="Group_1229" data-name="Group 1229" transform="translate(8.557 3.455)">
                <path id="Path_684" data-name="Path 684" d="M1662.7,1408.725a2.269,2.269,0,0,1,.681-1.456l.49.52a1.552,1.552,0,0,0-.473.994v.013a2.145,2.145,0,0,0,.229,1.065l1.328-1.357.49.52-1.666,1.7a.342.342,0,0,1-.293.1.352.352,0,0,1-.256-.18A3.434,3.434,0,0,1,1662.7,1408.725Z" transform="translate(-1662.686 -1407.269)" fill-rule="evenodd"/>
              </g>
              <g id="Group_1230" data-name="Group 1230" transform="translate(6.775 9.217)">
                <path id="Path_685" data-name="Path 685" d="M1639.516,1488.571l-1.194,1.22-.49-.52,1.5-1.529a.342.342,0,0,1,.276-.1.348.348,0,0,1,.254.152,3.389,3.389,0,0,1,.746,2.121l0,.013a2.591,2.591,0,0,1-.738,1.5,3.421,3.421,0,0,1-.725.573l-.339-.637a2.7,2.7,0,0,0,.575-.455,1.872,1.872,0,0,0,.534-1.073A2.2,2.2,0,0,0,1639.516,1488.571Z" transform="translate(-1637.832 -1487.638)" fill-rule="evenodd"/>
              </g>
              <g id="Group_1231" data-name="Group 1231">
                <path id="Path_686" data-name="Path 686" d="M1550.623,1367.387c-1.759-2.94-1.716-5.235,0-6.878a4.354,4.354,0,0,1,3.287-1.419,5.98,5.98,0,0,1,3.393,1.475l.868-.886a.34.34,0,0,1,.494,0l.4.426-.5.51-.156-.166-.837.855a.339.339,0,0,1-.465.023,5.556,5.556,0,0,0-3.228-1.514,3.705,3.705,0,0,0-2.782,1.225c-1.536,1.472-1.4,3.537.265,6.2a.376.376,0,0,1-.047.458l-3.45,3.525a.341.341,0,0,1-.517-.031,7.108,7.108,0,0,1-1.51-3.79l-1.743-.173a11.232,11.232,0,0,0,.675,2.443,8.515,8.515,0,0,0,1.623,2.55.375.375,0,0,1-.007.511l-1.419,1.45.167.177-.5.51-.412-.437a.374.374,0,0,1,0-.514l1.427-1.458a9.177,9.177,0,0,1-1.528-2.506,11.81,11.81,0,0,1-.785-3.091.373.373,0,0,1,.1-.3.34.34,0,0,1,.282-.109l2.484.247a.357.357,0,0,1,.316.354,5.706,5.706,0,0,0,.343,1.809l.006.016a5.425,5.425,0,0,0,.786,1.531Z" transform="translate(-1543.339 -1359.086)" fill-rule="evenodd"/>
              </g>
            </g>
          </g>
        </g>
        <g id="BACK-WEEL-" transform="translate(41.371 53.663)">
          <g id="Group_1242" data-name="Group 1242" transform="translate(0 0)">
            <g id="Group_1234" data-name="Group 1234" transform="translate(0)">
              <ellipse id="Ellipse_83" data-name="Ellipse 83" cx="14.457" cy="15.05" rx="14.457" ry="15.05" transform="translate(0 18.922) rotate(-40.877)" fill="#e3e3e3"/>
            </g>
            <g id="Group_1241" data-name="Group 1241" transform="translate(7.427 6.956)">
              <g id="Group_1235" data-name="Group 1235" transform="translate(3.075 4.537)">
                <path id="Path_687" data-name="Path 687" d="M909.124,998.293a13.144,13.144,0,0,1-1.248,18.014,11.94,11.94,0,0,1-17.3-1.3.34.34,0,0,0-.493-.037.375.375,0,0,0-.036.513,12.621,12.621,0,0,0,18.29,1.372,13.893,13.893,0,0,0,1.318-19.041.34.34,0,0,0-.493-.037A.374.374,0,0,0,909.124,998.293Z" transform="translate(-889.958 -997.691)" fill-rule="evenodd"/>
              </g>
              <g id="Group_1236" data-name="Group 1236">
                <path id="Path_688" data-name="Path 688" d="M850.76,956.274a13.144,13.144,0,0,1,1.247-18.014,11.94,11.94,0,0,1,17.3,1.3.34.34,0,0,0,.493.037.374.374,0,0,0,.036-.513,12.621,12.621,0,0,0-18.29-1.373,13.894,13.894,0,0,0-1.318,19.041.341.341,0,0,0,.493.037A.375.375,0,0,0,850.76,956.274Z" transform="translate(-847.071 -934.42)" fill-rule="evenodd"/>
              </g>
              <g id="Group_1237" data-name="Group 1237" transform="translate(10.67 2.972)">
                <path id="Path_689" data-name="Path 689" d="M999.67,976.635l-.467-.04.057-.726.816.069a.36.36,0,0,1,.321.392l-.1,1.227a8.075,8.075,0,0,1,4.3,1.934.373.373,0,0,1,.008.553l-1.7,1.568a.339.339,0,0,1-.453.009,5.356,5.356,0,0,0-2.377-1.162l-.32,4.089c3.309,1.029,4.8,2.844,4.553,5.352a4.527,4.527,0,0,1-1.724,3.263,6.236,6.236,0,0,1-3.608,1.326l-.165,2.109a.354.354,0,0,1-.377.332l-.8-.068.057-.725.452.038.162-2.063a.355.355,0,0,1,.335-.334,5.723,5.723,0,0,0,3.516-1.19,3.826,3.826,0,0,0,1.457-2.76c.218-2.256-1.257-3.777-4.322-4.662a.364.364,0,0,1-.255-.381l.375-4.785a.369.369,0,0,1,.131-.255.337.337,0,0,1,.268-.075,6.091,6.091,0,0,1,2.85,1.2l1.174-1.079a7.4,7.4,0,0,0-1.759-1.02,7.623,7.623,0,0,0-2.178-.524.36.36,0,0,1-.317-.392Zm-.467,14.921a2.07,2.07,0,0,0,1.154-.6,2.042,2.042,0,0,0,.357-.641l.657.25a2.816,2.816,0,0,1-.49.871,3.113,3.113,0,0,1-2.02.915.342.342,0,0,1-.286-.1.375.375,0,0,1-.107-.293l.2-2.565.7.059Zm-3.01-10.584a2.585,2.585,0,0,1,.539-.78l.016-.015a2.525,2.525,0,0,1,1.611-.627.347.347,0,0,1,.264.114.374.374,0,0,1,.094.28l-.165,2.1-.7-.059.13-1.656a1.581,1.581,0,0,0-1.166.966.163.163,0,0,1-.009.018,2.221,2.221,0,0,0-.223.869l-.7-.059A2.971,2.971,0,0,1,996.192,980.972Z" transform="translate(-995.89 -975.869)" fill-rule="evenodd"/>
              </g>
              <g id="Group_1238" data-name="Group 1238" transform="translate(10.661 9.087)">
                <path id="Path_690" data-name="Path 690" d="M996.171,1062.865a2.3,2.3,0,0,1-.4-1.564l.7.059a1.574,1.574,0,0,0,.267,1.074l.008.011a2,2,0,0,0,.842.649l.151-1.931.7.059-.19,2.421a.367.367,0,0,1-.159.276.34.34,0,0,1-.306.038A3.2,3.2,0,0,1,996.171,1062.865Z" transform="translate(-995.761 -1061.162)" fill-rule="evenodd"/>
              </g>
              <g id="Group_1239" data-name="Group 1239" transform="translate(13.45 13.991)">
                <path id="Path_691" data-name="Path 691" d="M1035.5,1130.391l-.136,1.736-.7-.059.17-2.176a.368.368,0,0,1,.144-.266.34.34,0,0,1,.288-.058,3.145,3.145,0,0,1,1.9,1.1l.007.011a2.634,2.634,0,0,1,.384,1.635,3.669,3.669,0,0,1-.188.927l-.658-.25a2.89,2.89,0,0,0,.149-.736,1.907,1.907,0,0,0-.27-1.175A2.042,2.042,0,0,0,1035.5,1130.391Z" transform="translate(-1034.667 -1129.557)" fill-rule="evenodd"/>
              </g>
              <g id="Group_1240" data-name="Group 1240" transform="translate(6.287 2.922)">
                <path id="Path_692" data-name="Path 692" d="M940.7,986.481c-3.179-1.024-4.589-2.789-4.326-5.2a4.69,4.69,0,0,1,1.593-3.312,5.951,5.951,0,0,1,3.493-1.2l.1-1.261a.354.354,0,0,1,.376-.333l.571.049-.057.726-.222-.019-.1,1.217a.356.356,0,0,1-.337.334,5.506,5.506,0,0,0-3.393,1.054,3.992,3.992,0,0,0-1.333,2.822c-.236,2.159,1.165,3.628,4.1,4.508a.363.363,0,0,1,.252.379l-.393,5.015a.371.371,0,0,1-.135.258.34.34,0,0,1-.275.071,6.588,6.588,0,0,1-3.525-1.838l-1.427,1.057a10.415,10.415,0,0,0,2.047,1.387,7.9,7.9,0,0,0,2.83.823.36.36,0,0,1,.316.392l-.162,2.063.237.02-.057.725-.586-.05a.36.36,0,0,1-.32-.392l.162-2.074a8.52,8.52,0,0,1-2.731-.854,10.973,10.973,0,0,1-2.537-1.8.373.373,0,0,1-.112-.29.368.368,0,0,1,.146-.274l2.033-1.506a.339.339,0,0,1,.462.052,5.333,5.333,0,0,0,1.4,1.134l.014.008a5.025,5.025,0,0,0,1.557.622Z" transform="translate(-934.757 -975.176)" fill-rule="evenodd"/>
              </g>
            </g>
          </g>
        </g>
        <g id="Character-on-Bike-" transform="translate(35.921 50.197) rotate(-45)">
          <g id="Group_1247" data-name="Group 1247" transform="translate(0 10.349)">
            <path id="Path_696" data-name="Path 696" d="M18.432,24.862l.128.722a.928.928,0,0,1,.27,1.531l.28,1.583.007.046,0,.046,0,.046v.046l0,.045,0,.045-.005.044-.009.044-.011.043-.012.042-.014.041-.015.041-.017.04-.02.039-.021.038-.023.037-.025.035-.026.034-.028.033-.03.031-.03.03-.032.028-.033.027-.035.025-.036.023-.038.022-.039.02-.039.018-.041.016-.042.014-.043.012-.045.01-.044.007-.044.005-.045,0h-.043l-.043,0-.043,0-.043-.006-.042-.009-.041-.01-.04-.013-.04-.015L17.9,29.7l-.038-.018-.038-.02-.036-.022-.035-.024-.034-.026-.032-.027-.032-.029-.03-.03-.029-.032-.027-.034-.026-.035-.023-.036-.023-.038-.021-.039-.019-.04-.018-.042-.015-.043-.013-.044-.012-.044-.009-.046-.328-1.861L.742,24.562A.888.888,0,0,1,.031,23.9a.933.933,0,0,1,.289-.944l13.9-11.873L12.453,1.075a.909.909,0,0,1,.7-1.06.878.878,0,0,1,1.018.73l1.075,6.09a.751.751,0,0,1,.083.041L54.6,28.935l1.256-2.8a.86.86,0,0,1,1.162-.439.926.926,0,0,1,.422,1.21L48.089,47.738a.862.862,0,0,1-1.163.439.928.928,0,0,1-.422-1.21L52.72,33.119Zm-.345-1.951,35.39,8.523.38-.847L15.652,9.125Zm-1.618.9L14.582,13.131,2.943,23.072l13.783,2.2-.252-1.43C16.472,23.832,16.47,23.823,16.469,23.814Z" transform="translate(0 3.362)" fill="#0005d9" fill-rule="evenodd"/>
            <path id="Path_697" data-name="Path 697" d="M51.194,29.892a.762.762,0,0,0-.318-1l-3.834-2.015a.7.7,0,0,0-.964.33l-.647,1.334a.762.762,0,0,0,.318,1l3.834,2.015a.705.705,0,0,0,.964-.33ZM10.749,6.469a1.677,1.677,0,0,0-.7-2.209L2.292.177A1.551,1.551,0,0,0,.17.9a1.677,1.677,0,0,0,.7,2.209L8.626,7.2A1.552,1.552,0,0,0,10.749,6.469Z" transform="translate(7.722 0)" fill="#0005d9" fill-rule="evenodd"/>
          </g>
          <g id="Group_1248" data-name="Group 1248" transform="translate(11.743 0.034)">
            <path id="Path_698" data-name="Path 698" d="M17.355,50.922a23.142,23.142,0,0,1-5.042,5.88,2.918,2.918,0,0,1,1.17,3.165L0,51.292C6.526,42.122,6.742,36.2,6.428,33.815,4.118,16.318,4.143,12.87,4.9,9.778,6.587,2.873,10.287.643,13.489.11a8.376,8.376,0,0,1,8.963,4.923v0l.006.018c.041.091.08.182.119.274a20.562,20.562,0,0,1,1.078,3.523L30.1,29.279a15.736,15.736,0,0,1-7.013,18.4Z" fill-rule="evenodd"/>
            <path id="Path_699" data-name="Path 699" d="M19.552,0q.073.3.138.607L20.71,3.839c.735,7.577,1.351,24.956-6.281,38.257l-1.038.588A31.567,31.567,0,0,1,11.36,45.5a.354.354,0,0,1,.056-.11l.068-.091.008-.01.011-.015.022-.03.031-.043.011-.015,0-.006.066-.09,0-.005.009-.014.033-.045L11.707,45l.01-.015.008-.011.014-.02.051-.069,0,0,.067-.092.006-.01.01-.014.023-.033.032-.044.008-.013,0-.005c.023-.031.044-.063.067-.094l0,0,.007-.009.037-.053.021-.03.008-.011.007-.01.133-.191,0-.006.007-.009.026-.039.033-.048.005-.007,0,0,.068-.1.044-.064.022-.033.005-.007,0-.006.134-.2,0,0,0-.005.028-.044.034-.05,0,0v0c.045-.066.088-.134.132-.2l0-.007.005-.007.127-.2,0-.007.008-.013.026-.039.024-.039.01-.015L13,43.1c.018-.03.037-.059.056-.089h0c.129-.2.255-.41.38-.617h0C23.873,25.082,19.545.162,19.545.162A.371.371,0,0,1,19.552,0ZM.308,35.8l13.127,6.591h0l-.406.6.026.013L13,43.1l-.016.024-.05.078-.012.02-.064.1-.063.1-.01.014-.064.1-.068.1,0,.007-.062.095-.006.009-.068.1-.066.1-.009.014-.065.1h0l-.068.1-.008.011-.059.087-.012.015-.067.1-.066.094-.015.021-.058.083-.009.013-.067.094-.013.018-.054.076-.017.024-.067.092,0,0-.064.089L11.707,45l-.055.074-.014.019-.066.09-.016.021-.053.073-.019.024-.068.091L13.028,43,0,36.458Q.16,36.126.308,35.8Z" transform="translate(3.964 8.238)" fill="#a8a8a8" fill-rule="evenodd"/>
          </g>
          <path id="Path_700" data-name="Path 700" d="M39.939,24.787,3.487,16.008a.874.874,0,0,0-1.048.682.912.912,0,0,0,.654,1.092L39.545,26.56a.874.874,0,0,0,1.049-.681A.912.912,0,0,0,39.939,24.787Zm.835-2.5L1.289.109A.857.857,0,0,0,.105.478.93.93,0,0,0,.459,1.711L39.943,23.89a.858.858,0,0,0,1.184-.369A.931.931,0,0,0,40.774,22.289Z" transform="translate(14.041 20.479)" fill="#0005d9" fill-rule="evenodd"/>
          <g id="Group_1249" data-name="Group 1249" transform="translate(11.743 0)">
            <path id="Path_701" data-name="Path 701" d="M21.51,3.21A6.93,6.93,0,0,0,16.285.047C12.817-.263,7.118.733,4.9,9.812c-.756,3.092-.781,6.54,1.529,24.037.314,2.382.1,8.307-6.428,17.477L13.483,60a2.918,2.918,0,0,0-1.17-3.165c-.255.4,14.588-9.486,11.724-45.612A17.983,17.983,0,0,0,21.51,3.21Z" fill-rule="evenodd"/>
            <path id="Path_702" data-name="Path 702" d="M.3,0,13.429,6.968q-.19.317-.379.616L0,.657Q.157.325.3,0Z" transform="translate(4.105 43.778)" fill="#a8a8a8" fill-rule="evenodd"/>
          </g>
          <g id="Group_1254" data-name="Group 1254" transform="translate(38.815 1.929)">
            <g id="Group_1250" data-name="Group 1250">
              <path id="Path_703" data-name="Path 703" d="M17.006,27.516a45.059,45.059,0,0,0,4.729-11.791,9.676,9.676,0,0,0-.066-5.16C20.6,6.872,17.45,1.164,8.218.119L7.228.027A6.312,6.312,0,0,0,.494,4.891C-.641,9.848-.472,16.925,8.218,20L6.794,25.075a7.392,7.392,0,0,0,2.867,8.046A27.549,27.549,0,0,0,20.088,37.6a15.906,15.906,0,0,0-.929,2.343.849.849,0,0,0,1.418.865,7.752,7.752,0,0,0,.851-1.178L23,39.289a1.506,1.506,0,0,0,1.142-1.853,17.255,17.255,0,0,0-2.272-5.893A13.621,13.621,0,0,0,17.006,27.516Z" fill-rule="evenodd"/>
              <path id="Path_704" data-name="Path 704" d="M9.1,7.721a17.393,17.393,0,0,1,.74,2.138,12.168,12.168,0,0,1-1.335,3.87l-.887.19c-.068.11-.133.211-.195.307a.3.3,0,0,1,.023-.046c2.389-4.042,1.672-6.305,1.672-6.305A.377.377,0,0,1,9.1,7.721ZM3.715,2.1A21.866,21.866,0,0,0,.25.713.368.368,0,0,1,.014.26.348.348,0,0,1,.449.015a23.276,23.276,0,0,1,3.1,1.195c-.114.2-.23.4-.348.6Q3.458,1.952,3.715,2.1Z" transform="translate(13.808 25.707)" fill-rule="evenodd"/>
            </g>
            <g id="Group_1252" data-name="Group 1252" transform="translate(23.502 10.275)">
              <g id="Group_1251" data-name="Group 1251" transform="translate(0 0)">
                <ellipse id="Ellipse_84" data-name="Ellipse 84" cx="4.336" cy="4.514" rx="4.336" ry="4.514" transform="translate(0 0)" fill="#a8a8a8"/>
              </g>
              <path id="Path_705" data-name="Path 705" d="M2.738,4.257,0,4.145A4.413,4.413,0,0,1,4.322,0,4.43,4.43,0,0,1,8.658,4.5L3.744,4.3a1.007,1.007,0,0,0,.265-.7.845.845,0,0,0-.749-.914A.845.845,0,0,0,2.51,3.6,1.019,1.019,0,0,0,2.738,4.257Z" transform="translate(0.014)" fill-rule="evenodd"/>
            </g>
            <g id="Group_1253" data-name="Group 1253" transform="translate(0.002 0.088)">
              <path id="Path_706" data-name="Path 706" d="M7.729,21.649l.487-1.734C.6,17.216-.472,11.442.149,6.719A7.547,7.547,0,0,1,8.216.031h0c6.04.684,9.475,3.363,11.429,6.169a12.691,12.691,0,0,1,1.746,10.69,45.885,45.885,0,0,1-3.227,8.43Z" fill-rule="evenodd"/>
              <path id="Path_707" data-name="Path 707" d="M0,4.772,3.835.07A.185.185,0,0,1,4.071.025a.2.2,0,0,1,.089.233C3.572,2.2,2.272,6.489,2.272,6.489h-.01l.177-.634A16.49,16.49,0,0,1,0,4.772Z" transform="translate(5.775 14.062)" fill-rule="evenodd"/>
            </g>
          </g>
        </g>
      </g>
    </g>
  </g>
</svg>
