<svg xmlns="http://www.w3.org/2000/svg" width="122.185" height="84.346" viewBox="0 0 122.185 84.346">
  <g id="_10_-_BIKE_" data-name="10 - BIKE " transform="translate(-346.981 -609.226)">
    <g id="_10---BIKE" transform="translate(347.731 616.663)">
      <path id="GRAPH-LINE-" d="M348.64,1022.732a.763.763,0,0,1-.093.005.846.846,0,1,1,.812-.845.857.857,0,0,1-.317.67l21.631,49.088a.784.784,0,0,1,.832.145l15.353-17.571a.872.872,0,0,1-.026-.211.812.812,0,1,1,1.623,0,.872.872,0,0,1-.041.264l13.824,15.79a.791.791,0,0,1,1.182.108l41.425-30.807a.916.916,0,0,1-.011-.142.812.812,0,1,1,1.623,0,.864.864,0,0,1-.089.386l3.233,5.58a.781.781,0,0,1,.351-.083.791.791,0,0,1,.541.216l16.367-13.581a.87.87,0,0,1-.065-.332.812.812,0,1,1,.811.845.788.788,0,0,1-.477-.161l-16.4,13.61a.874.874,0,0,1,.035.248.812.812,0,1,1-1.623,0,.862.862,0,0,1,.131-.459l-3.211-5.541a.784.784,0,0,1-.414.119.8.8,0,0,1-.612-.29l-41.446,30.822c0,.03,0,.061,0,.092a.812.812,0,1,1-1.624,0,.87.87,0,0,1,.031-.231l-13.836-15.8a.788.788,0,0,1-1.076-.031l-15.339,17.554a.877.877,0,0,1,.036.251.812.812,0,1,1-1.623,0,.863.863,0,0,1,.159-.5Z" transform="translate(-347.734 -997.122)" fill="#0005d9" stroke="#0005d9" stroke-width="1.5" fill-rule="evenodd"/>
      <path id="CLOUDS" d="M462.577,738.1a4.216,4.216,0,0,1,1.209-1.05,8.117,8.117,0,0,1,2.869-.635,7.582,7.582,0,0,0,2.634-1.073c1.367-.845,2.535-2.051,3.967-2.781a5.535,5.535,0,0,1,1.694-.545c3.458-.514,5.206,2.584,8.044,3.815,1.544.67,2.984.105,4.557,1.044a2.235,2.235,0,0,1,1.076,1.7S462.561,738.123,462.577,738.1Zm86.74-28.542a2.752,2.752,0,0,1,.7-1.31c1.088-.961,2.454-.625,3.722-1.014,2.491-.763,4.015-3.368,6.561-4.016a3.963,3.963,0,0,1,1.194-.138c2.579.15,3.516,2.8,5.627,3.847,1.371.678,2.671.526,4,1.482a1.543,1.543,0,0,1,.7,1.15S555.069,709.589,549.316,709.561Zm-90.7-14.462a2.7,2.7,0,0,1,1.318-2.038c.979-.637,2.206-.45,3.122-1.213,2.011-1.674,3.349-5.2,6.5-4.474,2.006.464,3.157,2.419,4.723,3.617,1.28.979,2.775,1.143,4.265,1.561a7,7,0,0,1,2.95,1.484,2.9,2.9,0,0,1,.764,1.064C482.3,695.189,462.019,694.832,458.617,695.1Z" transform="translate(-452.057 -683.098)" fill="#e3e3e3" fill-rule="evenodd"/>
      <g id="FRONT-WEEL" transform="translate(80.656 25.206)">
        <g id="Group_1220" data-name="Group 1220" transform="translate(0 0)">
          <ellipse id="Ellipse_82" data-name="Ellipse 82" cx="11.93" cy="12.419" rx="11.93" ry="12.419" fill="#e3e3e3"/>
        </g>
        <g id="Group_1233" data-name="Group 1233" transform="translate(1.229 1.28)">
          <g id="Group_1226" data-name="Group 1226" transform="translate(0 10.839)">
            <path id="Path_681" data-name="Path 681" d="M820.394,949.176a10.132,10.132,0,1,1-20.247,0,.289.289,0,1,0-.577,0,10.709,10.709,0,1,0,21.4,0,.289.289,0,1,0-.577,0Z" transform="translate(-799.57 -948.875)" fill-rule="evenodd"/>
          </g>
          <g id="Group_1227" data-name="Group 1227">
            <path id="Path_682" data-name="Path 682" d="M800.147,776.818a10.132,10.132,0,1,1,20.247,0,.289.289,0,1,0,.577,0,10.709,10.709,0,1,0-21.4,0,.289.289,0,1,0,.577,0Z" transform="translate(-799.57 -765.679)" fill-rule="evenodd"/>
          </g>
          <g id="Group_1232" data-name="Group 1232" transform="translate(3.854 4.334)">
            <g id="Group_1228" data-name="Group 1228" transform="translate(1.069 0.843)">
              <path id="Path_683" data-name="Path 683" d="M1573.181,1374.047l-.271-.287.412-.421.473.5a.309.309,0,0,1,0,.425l-.7.712a7.2,7.2,0,0,1,1.679,3.624.31.31,0,0,1-.063.243.287.287,0,0,1-.219.107l-1.877.02a.292.292,0,0,1-.287-.249,4.777,4.777,0,0,0-.88-2.062l-2.321,2.372c1.531,2.5,1.516,4.47.064,5.9a3.47,3.47,0,0,1-2.768,1.067,5.158,5.158,0,0,1-2.939-1.2l-1.2,1.223a.28.28,0,0,1-.407,0l-.465-.492.411-.42.263.278,1.171-1.2a.279.279,0,0,1,.382-.02,4.752,4.752,0,0,0,2.811,1.234,2.934,2.934,0,0,0,2.341-.9c1.306-1.285,1.175-3.063-.279-5.339a.31.31,0,0,1,.038-.381l2.716-2.775a.28.28,0,0,1,.42.018,5.425,5.425,0,0,1,1.158,2.348l1.293-.013a6.605,6.605,0,0,0-.569-1.626,6.77,6.77,0,0,0-1.087-1.552.309.309,0,0,1,.006-.423Zm-8.032,9.047a1.68,1.68,0,0,0,1.03.276,1.562,1.562,0,0,0,.555-.2l.28.526a2.143,2.143,0,0,1-.758.268,2.541,2.541,0,0,1-1.735-.565.308.308,0,0,1-.042-.465l1.456-1.487.4.429Zm3.612-8.3a1.987,1.987,0,0,1,.741-.183h.018a2.084,2.084,0,0,1,1.33.515.306.306,0,0,1,.105.219.31.31,0,0,1-.086.228l-1.192,1.218-.4-.429.94-.96a1.525,1.525,0,0,0-.7-.189,1.458,1.458,0,0,0-.53.136l-.015.006a1.7,1.7,0,0,0-.59.417l-.4-.429A2.278,2.278,0,0,1,1568.761,1374.8Z" transform="translate(-1561.415 -1373.339)" fill-rule="evenodd"/>
            </g>
            <g id="Group_1229" data-name="Group 1229" transform="translate(7.061 2.851)">
              <path id="Path_684" data-name="Path 684" d="M1662.694,1408.47a1.872,1.872,0,0,1,.562-1.2l.4.429a1.281,1.281,0,0,0-.391.821v.011a1.77,1.77,0,0,0,.189.879l1.1-1.12.4.429-1.375,1.4a.282.282,0,0,1-.242.083.29.29,0,0,1-.211-.149A2.833,2.833,0,0,1,1662.694,1408.47Z" transform="translate(-1662.686 -1407.269)" fill-rule="evenodd"/>
            </g>
            <g id="Group_1230" data-name="Group 1230" transform="translate(5.591 7.606)">
              <path id="Path_685" data-name="Path 685" d="M1639.221,1488.408l-.985,1.007-.4-.429,1.235-1.262a.282.282,0,0,1,.227-.085.288.288,0,0,1,.21.125,2.8,2.8,0,0,1,.615,1.75l0,.011a2.138,2.138,0,0,1-.609,1.236,2.824,2.824,0,0,1-.6.473l-.28-.526a2.221,2.221,0,0,0,.474-.375,1.544,1.544,0,0,0,.441-.885A1.814,1.814,0,0,0,1639.221,1488.408Z" transform="translate(-1637.832 -1487.638)" fill-rule="evenodd"/>
            </g>
            <g id="Group_1231" data-name="Group 1231">
              <path id="Path_686" data-name="Path 686" d="M1549.35,1365.936c-1.452-2.426-1.416-4.32,0-5.676a3.594,3.594,0,0,1,2.713-1.171,4.936,4.936,0,0,1,2.8,1.217l.716-.731a.28.28,0,0,1,.408,0l.331.351-.412.421-.129-.137-.691.706a.28.28,0,0,1-.384.019,4.585,4.585,0,0,0-2.663-1.249,3.057,3.057,0,0,0-2.3,1.011c-1.267,1.215-1.155,2.919.219,5.116a.31.31,0,0,1-.039.378l-2.847,2.908a.281.281,0,0,1-.427-.025,5.865,5.865,0,0,1-1.246-3.128l-1.438-.143a9.264,9.264,0,0,0,.557,2.016,7.026,7.026,0,0,0,1.339,2.1.309.309,0,0,1-.006.422l-1.171,1.2.138.146-.411.42-.34-.361a.308.308,0,0,1,0-.424l1.178-1.2a7.573,7.573,0,0,1-1.261-2.068,9.748,9.748,0,0,1-.648-2.551.308.308,0,0,1,.081-.244.281.281,0,0,1,.233-.09l2.05.2a.3.3,0,0,1,.261.292,4.708,4.708,0,0,0,.283,1.492l0,.013a4.474,4.474,0,0,0,.648,1.263Z" transform="translate(-1543.339 -1359.086)" fill-rule="evenodd"/>
            </g>
          </g>
        </g>
      </g>
      <g id="BACK-WEEL-" transform="translate(34.139 31.061)">
        <g id="Group_1242" data-name="Group 1242" transform="translate(0 0)">
          <g id="Group_1234" data-name="Group 1234" transform="translate(0)">
            <ellipse id="Ellipse_83" data-name="Ellipse 83" cx="11.93" cy="12.419" rx="11.93" ry="12.419" transform="translate(0 15.614) rotate(-40.877)" fill="#e3e3e3"/>
          </g>
          <g id="Group_1241" data-name="Group 1241" transform="translate(6.129 5.74)">
            <g id="Group_1235" data-name="Group 1235" transform="translate(2.537 3.744)">
              <path id="Path_687" data-name="Path 687" d="M905.774,998.188a10.847,10.847,0,0,1-1.03,14.865,9.853,9.853,0,0,1-14.279-1.071.281.281,0,0,0-.407-.031.309.309,0,0,0-.029.424,10.415,10.415,0,0,0,15.093,1.132A11.465,11.465,0,0,0,906.21,997.8a.281.281,0,0,0-.407-.031A.309.309,0,0,0,905.774,998.188Z" transform="translate(-889.958 -997.691)" fill-rule="evenodd"/>
            </g>
            <g id="Group_1236" data-name="Group 1236">
              <path id="Path_688" data-name="Path 688" d="M850.115,952.454a10.847,10.847,0,0,1,1.029-14.865,9.853,9.853,0,0,1,14.279,1.071.281.281,0,0,0,.407.031.309.309,0,0,0,.029-.424,10.415,10.415,0,0,0-15.093-1.133,11.465,11.465,0,0,0-1.088,15.713.281.281,0,0,0,.407.031A.31.31,0,0,0,850.115,952.454Z" transform="translate(-847.071 -934.419)" fill-rule="evenodd"/>
            </g>
            <g id="Group_1237" data-name="Group 1237" transform="translate(8.805 2.452)">
              <path id="Path_689" data-name="Path 689" d="M999.009,976.5l-.386-.033.047-.6.673.057a.3.3,0,0,1,.265.324l-.079,1.013a6.663,6.663,0,0,1,3.547,1.6.308.308,0,0,1,.007.457l-1.407,1.294a.28.28,0,0,1-.374.008,4.42,4.42,0,0,0-1.962-.959l-.264,3.375c2.731.849,3.958,2.347,3.757,4.417a3.735,3.735,0,0,1-1.422,2.693,5.145,5.145,0,0,1-2.977,1.094l-.136,1.74a.292.292,0,0,1-.311.274l-.66-.056.047-.6.373.032.134-1.7a.293.293,0,0,1,.276-.275,4.722,4.722,0,0,0,2.9-.982,3.157,3.157,0,0,0,1.2-2.278c.18-1.862-1.037-3.117-3.567-3.847a.3.3,0,0,1-.21-.314l.309-3.948a.3.3,0,0,1,.108-.21.278.278,0,0,1,.221-.062,5.026,5.026,0,0,1,2.352.987l.969-.891a6.11,6.11,0,0,0-1.452-.842,6.29,6.29,0,0,0-1.8-.433.3.3,0,0,1-.261-.324Zm-.386,12.313a1.708,1.708,0,0,0,.953-.493,1.684,1.684,0,0,0,.295-.529l.543.207a2.323,2.323,0,0,1-.4.719,2.569,2.569,0,0,1-1.667.755.282.282,0,0,1-.236-.081.309.309,0,0,1-.088-.242l.166-2.116.575.049Zm-2.484-8.734a2.133,2.133,0,0,1,.445-.644l.013-.012a2.083,2.083,0,0,1,1.329-.517.286.286,0,0,1,.218.094.309.309,0,0,1,.078.231l-.136,1.733-.575-.049.107-1.366a1.3,1.3,0,0,0-.962.8.118.118,0,0,1-.007.015,1.833,1.833,0,0,0-.184.717l-.575-.049A2.451,2.451,0,0,1,996.139,980.08Z" transform="translate(-995.89 -975.869)" fill-rule="evenodd"/>
            </g>
            <g id="Group_1238" data-name="Group 1238" transform="translate(8.797 7.499)">
              <path id="Path_690" data-name="Path 690" d="M996.1,1062.568a1.9,1.9,0,0,1-.33-1.291l.575.049a1.3,1.3,0,0,0,.221.886l.006.009a1.653,1.653,0,0,0,.695.536l.125-1.594.575.049-.157,2a.3.3,0,0,1-.131.228.281.281,0,0,1-.253.031A2.637,2.637,0,0,1,996.1,1062.568Z" transform="translate(-995.761 -1061.162)" fill-rule="evenodd"/>
            </g>
            <g id="Group_1239" data-name="Group 1239" transform="translate(11.099 11.545)">
              <path id="Path_691" data-name="Path 691" d="M1035.355,1130.245l-.112,1.432-.575-.049.141-1.8a.3.3,0,0,1,.119-.22.28.28,0,0,1,.238-.048,2.6,2.6,0,0,1,1.565.9l.005.01a2.174,2.174,0,0,1,.317,1.349,3.026,3.026,0,0,1-.155.765l-.543-.207a2.383,2.383,0,0,0,.123-.607,1.572,1.572,0,0,0-.223-.97A1.685,1.685,0,0,0,1035.355,1130.245Z" transform="translate(-1034.667 -1129.557)" fill-rule="evenodd"/>
            </g>
            <g id="Group_1240" data-name="Group 1240" transform="translate(5.188 2.411)">
              <path id="Path_692" data-name="Path 692" d="M939.664,984.505c-2.623-.845-3.787-2.3-3.569-4.291a3.87,3.87,0,0,1,1.315-2.733,4.912,4.912,0,0,1,2.882-.988l.082-1.041a.292.292,0,0,1,.311-.275l.471.04-.047.6-.183-.016-.079,1a.294.294,0,0,1-.278.276,4.543,4.543,0,0,0-2.8.87,3.294,3.294,0,0,0-1.1,2.329c-.195,1.782.961,2.994,3.382,3.72a.3.3,0,0,1,.208.313l-.324,4.138a.306.306,0,0,1-.111.213.28.28,0,0,1-.227.058,5.436,5.436,0,0,1-2.909-1.516l-1.177.873a8.59,8.59,0,0,0,1.689,1.145,6.516,6.516,0,0,0,2.336.679.3.3,0,0,1,.261.323l-.133,1.7.2.017-.047.6-.483-.041a.3.3,0,0,1-.264-.323l.134-1.712a7.031,7.031,0,0,1-2.254-.7,9.055,9.055,0,0,1-2.093-1.487.308.308,0,0,1-.092-.24.3.3,0,0,1,.12-.226l1.678-1.243a.28.28,0,0,1,.381.043,4.4,4.4,0,0,0,1.152.936l.012.007a4.149,4.149,0,0,0,1.284.513Z" transform="translate(-934.757 -975.176)" fill-rule="evenodd"/>
            </g>
          </g>
        </g>
      </g>
      <g id="Character-on-Bike-" transform="translate(29.642 28.201) rotate(-45)">
        <g id="Group_1247" data-name="Group 1247" transform="translate(0 8.54)">
          <path id="Path_696" data-name="Path 696" d="M1024.551,828.413l.105.6a.765.765,0,0,1,.223,1.264l.231,1.306.006.038,0,.038,0,.038v.075l0,.037,0,.036-.007.036-.009.035-.01.035-.012.034-.013.034-.014.033-.017.032-.017.031-.019.03-.02.029-.022.028-.023.027-.025.026-.025.025-.027.023-.027.022-.029.021-.03.019-.031.018-.032.016-.032.015-.034.013-.034.011-.036.01-.037.008-.036.006-.037,0-.037,0h-.036l-.035,0-.035,0-.035-.005-.035-.007-.034-.009-.033-.01-.033-.012-.032-.014-.031-.015-.031-.017-.03-.018-.029-.02-.028-.021-.027-.022-.027-.024-.024-.025-.024-.026-.023-.028-.022-.029-.019-.03-.019-.031-.017-.032-.016-.033-.015-.034-.012-.035-.011-.036-.01-.037-.007-.038-.271-1.536-13.467-2.148a.733.733,0,0,1-.587-.544.769.769,0,0,1,.238-.779l11.471-9.8-1.459-8.261a.75.75,0,0,1,.579-.874.724.724,0,0,1,.84.6l.887,5.026a.618.618,0,0,1,.069.034l32.4,18.2,1.037-2.309a.71.71,0,0,1,.959-.362.764.764,0,0,1,.348,1l-7.715,17.19a.711.711,0,0,1-.959.363.766.766,0,0,1-.348-1l5.13-11.427Zm-.284-1.61,29.2,7.033.314-.7-31.527-17.71Zm-1.335.746-1.557-8.816-9.6,8.2,11.374,1.814-.208-1.18C1022.934,827.564,1022.932,827.556,1022.932,827.549Z" transform="translate(-1009.341 -805.123)" fill="#0005d9" fill-rule="evenodd"/>
          <path id="Path_697" data-name="Path 697" d="M1159.291,785.677a.629.629,0,0,0-.262-.829l-3.164-1.663a.581.581,0,0,0-.8.273l-.534,1.1a.629.629,0,0,0,.262.829l3.163,1.663a.582.582,0,0,0,.8-.273Zm-33.376-19.328a1.384,1.384,0,0,0-.575-1.823l-6.4-3.37a1.28,1.28,0,0,0-1.751.6,1.384,1.384,0,0,0,.575,1.823l6.4,3.37A1.281,1.281,0,0,0,1125.916,766.349Z" transform="translate(-1110.673 -761.01)" fill="#0005d9" fill-rule="evenodd"/>
        </g>
        <g id="Group_1248" data-name="Group 1248" transform="translate(9.69 0.028)">
          <path id="Path_698" data-name="Path 698" d="M1187.441,659.162a19.1,19.1,0,0,1-4.16,4.852,2.408,2.408,0,0,1,.965,2.612l-11.126-7.159c5.386-7.566,5.564-12.456,5.3-14.422-1.906-14.439-1.886-17.284-1.262-19.836,1.393-5.7,4.446-7.539,7.088-7.978a6.912,6.912,0,0,1,7.4,4.063v0l.005.015c.034.075.066.15.1.227a16.969,16.969,0,0,1,.889,2.907l5.315,16.862a12.985,12.985,0,0,1-5.787,15.183Z" transform="translate(-1173.119 -617.141)" fill-rule="evenodd"/>
          <path id="Path_699" data-name="Path 699" d="M1244.545,732.044c.04.167.078.334.114.5l.841,2.667c.607,6.252,1.115,20.593-5.183,31.57l-.856.485a26.043,26.043,0,0,1-1.676,2.325.294.294,0,0,1,.046-.091l.056-.075.006-.008.009-.012.018-.025.026-.035.009-.012,0-.005.055-.074,0,0,.008-.011.028-.038.018-.023.008-.012.007-.009.011-.016.042-.057,0,0,.055-.076.005-.008.009-.011.019-.027.026-.036.007-.01,0,0,.055-.077,0,0,.006-.008.03-.044.017-.025.006-.009.006-.008.11-.158,0-.005.006-.007.021-.032.028-.04,0-.006,0,0,.056-.083.036-.053.018-.027,0-.006,0-.005.11-.164v0l0,0,.024-.037.028-.041,0,0v0c.037-.055.073-.111.109-.166l0-.006,0-.005.1-.163,0-.006.006-.01.021-.032.02-.032.009-.013,0-.007.046-.073h0c.107-.169.211-.339.314-.509h0c8.614-14.287,5.042-34.85,5.042-34.85A.307.307,0,0,1,1244.545,732.044Zm-15.881,29.545,10.832,5.439h0l-.335.5.022.011-.046.073-.013.02-.041.065-.01.016-.053.081-.052.082-.008.011-.053.081-.056.085,0,.006-.051.078-.005.008-.056.083-.054.081-.008.011-.053.08h0l-.056.083-.006.009-.049.072-.01.013-.055.08-.054.077-.012.017-.048.068-.008.011-.055.077-.011.015-.045.063-.014.02-.055.076,0,0-.053.073-.015.021-.045.061-.011.016-.055.074-.013.017-.044.06-.016.02-.056.075,1.331-1.974-10.751-5.4Q1228.542,761.856,1228.664,761.59Z" transform="translate(-1225.139 -725.246)" fill="#a8a8a8" fill-rule="evenodd"/>
        </g>
        <path id="Path_700" data-name="Path 700" d="M1238.137,922.742l-30.08-7.245a.721.721,0,0,0-.865.562.752.752,0,0,0,.539.9l30.081,7.244a.721.721,0,0,0,.866-.562A.753.753,0,0,0,1238.137,922.742Zm.689-2.062-32.583-18.3a.707.707,0,0,0-.977.3.767.767,0,0,0,.292,1.017l32.583,18.3a.708.708,0,0,0,.977-.3A.768.768,0,0,0,1238.826,920.68Z" transform="translate(-1193.592 -885.388)" fill="#0005d9" fill-rule="evenodd"/>
        <g id="Group_1249" data-name="Group 1249" transform="translate(9.69)">
          <path id="Path_701" data-name="Path 701" d="M1190.869,619.312a5.719,5.719,0,0,0-4.312-2.61c-2.862-.257-7.564.566-9.4,8.058-.624,2.552-.644,5.4,1.262,19.836.26,1.966.081,6.855-5.3,14.422l11.126,7.159a2.408,2.408,0,0,0-.965-2.612c-.211.332,12.038-7.828,9.675-37.639A14.839,14.839,0,0,0,1190.869,619.312Z" transform="translate(-1173.119 -616.663)" fill-rule="evenodd"/>
          <path id="Path_702" data-name="Path 702" d="M1230.622,1227.244l10.833,5.75q-.157.261-.313.508l-10.768-5.715Q1230.5,1227.512,1230.622,1227.244Z" transform="translate(-1226.985 -1191.119)" fill="#a8a8a8" fill-rule="evenodd"/>
        </g>
        <g id="Group_1254" data-name="Group 1254" transform="translate(32.03 1.592)">
          <g id="Group_1250" data-name="Group 1250">
            <path id="Path_703" data-name="Path 703" d="M1564.737,666.269a37.185,37.185,0,0,0,3.9-9.73,7.985,7.985,0,0,0-.054-4.258c-.884-3.047-3.482-7.758-11.1-8.62l-.817-.076a5.209,5.209,0,0,0-5.556,4.013c-.936,4.09-.8,9.93,6.373,12.471l-1.175,4.185a6.1,6.1,0,0,0,2.366,6.64,22.733,22.733,0,0,0,8.6,3.693,13.131,13.131,0,0,0-.766,1.933.7.7,0,0,0,1.17.714,6.392,6.392,0,0,0,.7-.972l1.3-.278a1.243,1.243,0,0,0,.942-1.529,14.238,14.238,0,0,0-1.875-4.863A11.239,11.239,0,0,0,1564.737,666.269Z" transform="translate(-1550.704 -643.563)" fill-rule="evenodd"/>
            <path id="Path_704" data-name="Path 704" d="M1750.807,1008.473a14.368,14.368,0,0,1,.611,1.765,10.04,10.04,0,0,1-1.1,3.193l-.732.157c-.056.09-.11.174-.161.253a.246.246,0,0,1,.019-.038c1.972-3.336,1.38-5.2,1.38-5.2A.309.309,0,0,1,1750.807,1008.473Zm-4.445-4.639a18.051,18.051,0,0,0-2.859-1.144.3.3,0,0,1-.194-.374.287.287,0,0,1,.359-.2,19.218,19.218,0,0,1,2.555.986c-.094.165-.19.33-.287.495Q1746.151,1003.712,1746.362,1003.833Z" transform="translate(-1731.902 -980.888)" fill-rule="evenodd"/>
          </g>
          <g id="Group_1252" data-name="Group 1252" transform="translate(19.394 8.479)">
            <g id="Group_1251" data-name="Group 1251" transform="translate(0 0)">
              <ellipse id="Ellipse_84" data-name="Ellipse 84" cx="3.578" cy="3.725" rx="3.578" ry="3.725" transform="translate(0 0)" fill="#a8a8a8"/>
            </g>
            <path id="Path_705" data-name="Path 705" d="M1880.948,790.379l-2.26-.092a3.575,3.575,0,0,1,7.145.292l-4.055-.166a.831.831,0,0,0,.219-.576.631.631,0,1,0-1.236,0A.84.84,0,0,0,1880.948,790.379Z" transform="translate(-1878.677 -786.867)" fill-rule="evenodd"/>
          </g>
          <g id="Group_1253" data-name="Group 1253" transform="translate(0.001 0.073)">
            <path id="Path_706" data-name="Path 706" d="M1557.106,662.655l.4-1.43c-6.288-2.228-7.169-6.993-6.657-10.889a6.228,6.228,0,0,1,6.657-5.519h0c4.984.564,7.819,2.775,9.431,5.091a10.473,10.473,0,0,1,1.441,8.821,37.868,37.868,0,0,1-2.663,6.957Z" transform="translate(-1550.728 -644.791)" fill-rule="evenodd"/>
            <path id="Path_707" data-name="Path 707" d="M1631.28,844.847l3.164-3.88a.152.152,0,0,1,.2-.037.167.167,0,0,1,.074.192l-1.558,5.142h-.008l.146-.523A13.614,13.614,0,0,1,1631.28,844.847Z" transform="translate(-1626.515 -829.306)" fill-rule="evenodd"/>
          </g>
        </g>
      </g>
    </g>
  </g>
</svg>
