<svg xmlns="http://www.w3.org/2000/svg" width="28.987" height="25.034" viewBox="0 0 28.987 25.034">
  <g id="briefcase" transform="translate(0 -34.909)" opacity="0.995">
    <g id="Group_696" data-name="Group 696" transform="translate(0.659 48.744)">
      <g id="Group_695" data-name="Group 695" transform="translate(0 0)">
        <path id="Path_126" data-name="Path 126" d="M38.647,279.273a.622.622,0,0,0-.659.659V288.5a.622.622,0,0,1-.659.659H13.613a.622.622,0,0,1-.659-.659v-8.564a.659.659,0,1,0-1.318,0V288.5a1.941,1.941,0,0,0,1.976,1.976H37.33a1.941,1.941,0,0,0,1.976-1.976v-8.564A.622.622,0,0,0,38.647,279.273Z" transform="translate(-11.637 -279.273)"/>
      </g>
    </g>
    <g id="Group_698" data-name="Group 698" transform="translate(0 39.521)">
      <g id="Group_697" data-name="Group 697">
        <path id="Path_127" data-name="Path 127" d="M27.01,116.364H1.976A1.941,1.941,0,0,0,0,118.34v4.216a1.978,1.978,0,0,0,1.515,1.91l10.343,2.306v2.108a.622.622,0,0,0,.659.659H16.47a.622.622,0,0,0,.659-.659v-2.108l10.343-2.306a1.978,1.978,0,0,0,1.515-1.911V118.34A1.941,1.941,0,0,0,27.01,116.364Zm-11.2,11.858H13.176v-2.635h2.635Zm11.858-5.666a.641.641,0,0,1-.527.659l-10.014,2.24v-.527a.622.622,0,0,0-.659-.659H12.517a.622.622,0,0,0-.659.659v.527l-10.014-2.24a.642.642,0,0,1-.527-.659V118.34a.622.622,0,0,1,.659-.659H27.01a.622.622,0,0,1,.659.659Z" transform="translate(0 -116.364)"/>
      </g>
    </g>
    <g id="Group_700" data-name="Group 700" transform="translate(9.223 34.909)">
      <g id="Group_699" data-name="Group 699" transform="translate(0 0)">
        <path id="Path_128" data-name="Path 128" d="M171.473,34.909h-6.588a1.941,1.941,0,0,0-1.976,1.976v.659a.659.659,0,1,0,1.318,0v-.659a.622.622,0,0,1,.659-.659h6.588a.622.622,0,0,1,.659.659v.659a.659.659,0,1,0,1.318,0v-.659A1.941,1.941,0,0,0,171.473,34.909Z" transform="translate(-162.909 -34.909)"/>
      </g>
    </g>
  </g>
</svg>
