<svg xmlns="http://www.w3.org/2000/svg" width="509" height="457.759" viewBox="0 0 509 457.759">
  <g id="Group_1559" data-name="Group 1559" transform="translate(67 155)">
    <ellipse id="Ellipse_131" data-name="Ellipse 131" cx="254.5" cy="214" rx="254.5" ry="214" transform="translate(-67 -155)" fill="#f2f2f2"/>
    <g id="_9_-_ECONOMY_ANALYSIS" data-name="9 - ECONOMY ANALYSIS" transform="translate(-601.758 -354.726)">
      <g id="_9---ECONOMY-ANALYSIS" transform="translate(702.196 547.866)">
        <g id="CURVE" transform="translate(29.331 1.821)">
          <path id="Path_601" data-name="Path 601" d="M804.6,542.859a2.07,2.07,0,1,1,1.166,1.221l-20.719,24.227a2.07,2.07,0,1,1-3.932.9c0-.056,0-.113.007-.168l-1.974-1.37a2.073,2.073,0,0,1-1.931.327l-20.931,27.584a2.07,2.07,0,1,1-4.017.307l-12.9-12.931a2.068,2.068,0,0,1-1.565.15l-22.468,34.977a2.07,2.07,0,1,1-1.37-.975l22.557-35.117a2.071,2.071,0,1,1,3.951-.867,2.083,2.083,0,0,1-.062.5l12.8,12.834a2.073,2.073,0,0,1,1.922-.145l20.838-27.462a2.07,2.07,0,1,1,3.972-.819q0,.073-.005.144l1.99,1.381a2.07,2.07,0,0,1,1.831-.339Z" transform="translate(-711.486 -540.093)" fill="#0005d9" stroke="#0005d9" stroke-width="1" fill-rule="evenodd"/>
        </g>
        <g id="DOLLAR-" transform="translate(101.728 29.368)">
          <g id="Group_1162" data-name="Group 1162" transform="translate(0 0)">
            <path id="Path_742" data-name="Path 742" d="M14.906,0A15.036,15.036,0,0,1,29.813,15.162,15.036,15.036,0,0,1,14.906,30.325,15.036,15.036,0,0,1,0,15.162,15.036,15.036,0,0,1,14.906,0Z" transform="translate(0 0)" fill="#e3e3e3"/>
          </g>
          <g id="Group_1167" data-name="Group 1167" transform="translate(6.134 3.868)">
            <g id="Group_1163" data-name="Group 1163" transform="translate(3.345)">
              <path id="Path_605" data-name="Path 605" d="M2028.371,1205.232l-.548.2-.272-.774.957-.347a.418.418,0,0,1,.545.238l.459,1.31a11.051,11.051,0,0,1,2.542-.492,10.421,10.421,0,0,1,3.226.275.393.393,0,0,1,.265.563l-1.207,2.483a.456.456,0,0,1-.509.241,6.963,6.963,0,0,0-3.233.025l1.53,4.363c4.228-.64,6.753.462,7.638,3.161a4.985,4.985,0,0,1-.444,4.234,8.271,8.271,0,0,1-3.477,3.21l.789,2.25a.429.429,0,0,1-.274.535l-.939.34-.271-.773.531-.192-.772-2.2a.424.424,0,0,1,.226-.514,7.623,7.623,0,0,0,3.436-3.024,4.212,4.212,0,0,0,.374-3.581c-.8-2.428-3.172-3.234-7.058-2.571a.413.413,0,0,1-.465-.26l-1.789-5.1a.4.4,0,0,1,.03-.329.451.451,0,0,1,.27-.214,8,8,0,0,1,3.784-.233l.832-1.71a9.458,9.458,0,0,0-2.467-.146,10.307,10.307,0,0,0-2.712.578.417.417,0,0,1-.541-.24Zm6.375,15.559a2.672,2.672,0,0,0,1.032-1.2,2.242,2.242,0,0,0,.109-.841l.861-.08a3.108,3.108,0,0,1-.152,1.146,4.058,4.058,0,0,1-1.866,1.974.452.452,0,0,1-.37.047.4.4,0,0,1-.257-.247l-.959-2.736.818-.3Zm-8.311-9.323a2.925,2.925,0,0,1,.251-1.077l.012-.024a3.338,3.338,0,0,1,1.536-1.469.453.453,0,0,1,.351-.019.4.4,0,0,1,.236.239l.786,2.24-.818.3-.619-1.767a2.44,2.44,0,0,0-.7.817,2.159,2.159,0,0,0-.172.773.185.185,0,0,1,0,.023,2.309,2.309,0,0,0,.149,1.007l-.818.3A3.118,3.118,0,0,1,2026.435,1211.468Z" transform="translate(-2026.423 -1204.283)" fill-rule="evenodd"/>
            </g>
            <g id="Group_1164" data-name="Group 1164" transform="translate(3.547 7.076)">
              <path id="Path_606" data-name="Path 606" d="M2030.007,1291.393a2.408,2.408,0,0,1-1.178-1.4l.818-.3a1.644,1.644,0,0,0,.8.966l.014.007a2.467,2.467,0,0,0,1.255.235l-.722-2.061.818-.3.9,2.583a.408.408,0,0,1-.052.365.46.46,0,0,1-.33.2A3.992,3.992,0,0,1,2030.007,1291.393Z" transform="translate(-2028.828 -1288.546)" fill-rule="evenodd"/>
            </g>
            <g id="Group_1165" data-name="Group 1165" transform="translate(9.23 11.551)">
              <path id="Path_607" data-name="Path 607" d="M2097.511,1342.7l.65,1.852-.818.3-.814-2.321a.406.406,0,0,1,.04-.346.457.457,0,0,1,.3-.208,4,4,0,0,1,2.658.152l.013.008a2.744,2.744,0,0,1,1.192,1.482,3.8,3.8,0,0,1,.216,1.048l-.861.081a2.986,2.986,0,0,0-.172-.832,1.979,1.979,0,0,0-.85-1.068A2.578,2.578,0,0,0,2097.511,1342.7Z" transform="translate(-2096.507 -1341.828)" fill-rule="evenodd"/>
            </g>
            <g id="Group_1166" data-name="Group 1166" transform="translate(0 0.375)">
              <path id="Path_608" data-name="Path 608" d="M1994.226,1221.225c-4.078.578-6.493-.511-7.31-3.121a5.119,5.119,0,0,1,.273-4.218,7.917,7.917,0,0,1,3.405-3.019l-.471-1.346a.428.428,0,0,1,.273-.535l.669-.243.271.774-.26.094.455,1.3a.424.424,0,0,1-.228.516,7.352,7.352,0,0,0-3.358,2.821,4.353,4.353,0,0,0-.206,3.581c.732,2.337,3,3.127,6.732,2.527a.412.412,0,0,1,.461.26l1.875,5.35a.408.408,0,0,1-.033.334.456.456,0,0,1-.279.213,8.074,8.074,0,0,1-2.825.3,7.516,7.516,0,0,1-2.021-.378l-1.129,1.817a13.1,13.1,0,0,0,2.963.375,10.616,10.616,0,0,0,3.59-.607.417.417,0,0,1,.539.24l.772,2.2.278-.1.271.773-.688.25a.417.417,0,0,1-.543-.239l-.776-2.213a11.416,11.416,0,0,1-3.492.524,13.73,13.73,0,0,1-3.709-.55.4.4,0,0,1-.223-.6l1.608-2.588a.453.453,0,0,1,.548-.183,6.552,6.552,0,0,0,2.108.448h.02a6.637,6.637,0,0,0,2.053-.159Z" transform="translate(-1986.594 -1208.743)" fill-rule="evenodd"/>
            </g>
          </g>
        </g>
        <g id="MAGNIFYING-GLASS" transform="translate(99.41 27.486)">
          <g id="Group_1169" data-name="Group 1169" transform="translate(0)">
            <path id="Path_609" data-name="Path 609" d="M2071.858,1169.922a16.724,16.724,0,0,1-3.43.354,1.793,1.793,0,0,1,0-3.586,13.646,13.646,0,0,0,0-27.287,1.793,1.793,0,0,1,0-3.586,17.28,17.28,0,0,1,6.8,33.01l11.051,26.516a1.8,1.8,0,0,1-.934,2.35,1.753,1.753,0,0,1-2.312-.95Z" transform="translate(-2051.489 -1135.817)" fill-rule="evenodd"/>
            <g id="Group_1168" data-name="Group 1168" transform="translate(0 0)">
              <path id="Path_610" data-name="Path 610" d="M1929.54,1176.49a13.645,13.645,0,0,1,0-27.286,1.793,1.793,0,0,0,0-3.586,17.232,17.232,0,0,0,0,34.459,1.793,1.793,0,0,0,0-3.586Z" transform="translate(-1912.601 -1145.617)" fill-rule="evenodd"/>
            </g>
          </g>
        </g>
        <g id="BOY" transform="translate(121.38 25.202)">
          <path id="Path_611" data-name="Path 611" d="M2166.266,1150.846a28.394,28.394,0,0,1-.635-8.245,16.81,16.81,0,0,1,10.5-14.521,16.342,16.342,0,0,1,17.39,3.458,16.663,16.663,0,0,1,2.878,3.7c4.05,7.061,5.363,14.843,1.952,22.534,0,0,2.2,14.685-.969,25.269a13.857,13.857,0,0,1-11.556,9.831c-.183.024-.367.046-.553.068a13.042,13.042,0,0,1-12.544-5.959l-13.481-21.008-6.409.566a1.213,1.213,0,0,1-1.3-1.045,1.164,1.164,0,0,1,.61-1.174,5.27,5.27,0,0,1-1.023-.115,1.417,1.417,0,0,1-1.024-1.453,1.746,1.746,0,0,1,.984-1.762h0a1.977,1.977,0,0,1-2.3-1.538c-.01-.043-.019-.083-.026-.121a1.671,1.671,0,0,1,.151-1.134,1.951,1.951,0,0,1,.976-.911l-1.027-.324a1.869,1.869,0,0,1-1.3-1.787h0a1.8,1.8,0,0,1,1.094-1.662l3.788-1.595s-3.026-3.925-1.768-5.078c.224-.205.723-.324,2.191.947.554.479,2.706,1.092,5.428.712A18.3,18.3,0,0,1,2166.266,1150.846Zm3.274-42.232a8.532,8.532,0,1,1-8.388,8.531A8.464,8.464,0,0,1,2169.54,1108.615Z" transform="translate(-2147.561 -1108.615)" fill="#cbcbcb" fill-rule="evenodd"/>
          <path id="Path_612" data-name="Path 612" d="M2168.972,1621.348l1.838-.211a.448.448,0,0,1,.1.891l-1.117.128-.534-.834Zm-8.642-2.392,5.309-.5a.448.448,0,0,1,.082.892l-3.594.337.025-.017a5.231,5.231,0,0,1-1.023-.115A1.218,1.218,0,0,1,2160.33,1618.956Zm-.952-3.118a.453.453,0,0,1,.132-.052l4.918-1.078a.441.441,0,0,1,.523.344.448.448,0,0,1-.339.532l-3.579.786.055-.029h0A1.952,1.952,0,0,1,2159.378,1615.838Zm-.889-3.694,5.247-1.644a.44.44,0,0,1,.551.3.45.45,0,0,1-.292.56l-4.144,1.3c.014-.007.029-.014.043-.019l-1.027-.324A1.833,1.833,0,0,1,2158.489,1612.144Zm3.431-5.625,1.835-.772a.438.438,0,0,1,.576.242.452.452,0,0,1-.239.586l-1.642.69C2162.437,1607.247,2162.214,1606.957,2161.92,1606.52Z" transform="translate(-2157.572 -1563.967)" fill-rule="evenodd"/>
          <path id="Path_613" data-name="Path 613" d="M2362.634,1350.458a28.875,28.875,0,0,1-.594-8.076,16.809,16.809,0,0,1,10.5-14.521,16.342,16.342,0,0,1,17.39,3.458,16.642,16.642,0,0,1,2.878,3.695c4.051,7.061,5.363,14.844,1.952,22.534,0,0,2.2,14.685-.968,25.27a13.857,13.857,0,0,1-11.556,9.831c-.184.025-.367.046-.554.069a13.042,13.042,0,0,1-12.544-5.959l-3.638-5.667,12.366-14.7C2371.4,1356.157,2364.36,1351.5,2362.634,1350.458Z" transform="translate(-2343.97 -1308.395)" fill-rule="evenodd"/>
          <path id="Path_614" data-name="Path 614" d="M2419.773,1513.472a.46.46,0,0,1,.06.074l7.987,12.263a.453.453,0,0,1-.125.622.434.434,0,0,1-.609-.127l-7.855-12.058.589-.7Zm17.018-8.2.02.159-.024.052a150.008,150.008,0,0,0-4.295-17.625.324.324,0,0,1,.16-.407.313.313,0,0,1,.412.132,127.1,127.1,0,0,1,5.243,12.007c-.029.159-.06.319-.094.477v.006l-.015.074,0,.007-.016.075v0c-.033.158-.07.316-.107.473v.006l-.018.072,0,.011-.016.069,0,.014-.016.069,0,.012-.017.07v0c-.027.1-.054.206-.082.31v.007l-.018.066-.006.02-.017.06-.007.024-.016.059-.006.025-.017.058-.006.024-.017.06-.006.02-.02.063a.807.807,0,0,1-.024.081l-.021.069,0,.011-.017.056-.009.029-.017.052-.01.034-.015.049-.011.036-.016.048-.012.037-.015.048-.012.037-.016.047-.012.039-.016.047-.016.045-.011.036-.014.04-.014.043-.014.043-.016.044-.014.041-.016.044-.014.042-.015.045-.015.04-.016.046-.016.039-.016.048-.013.037-.021.056-.01.029-.031.084-.011.027-.021.058-.013.035-.018.05-.015.037-.019.049-.014.037-.018.05-.015.037-.02.051-.014.035-.023.055-.012.03-.028.071-.005.014-.035.085-.01.026-.025.059-.013.033-.022.053-.015.035-.022.05-.014.036-.022.052-.015.035-.022.052-.015.032-.024.059-.013.026-.037.087.006.045v.015l.006.042,0,.021.01.059,0,.022.009.079,0,.024.013.1,0,.02.016.128Zm-28.028-4.606s-.419-3.3-.985-13a.267.267,0,0,1,.214-.3.214.214,0,0,1,.265.145l2.363,14.8Q2409.641,1501.395,2408.763,1500.664Z" transform="translate(-2385.925 -1455.549)" fill="#707070" fill-rule="evenodd"/>
          <path id="Path_615" data-name="Path 615" d="M2331.484,1111.8a8.32,8.32,0,0,1,6.533-3.184,8.464,8.464,0,0,1,8.386,8.531,8.573,8.573,0,0,1-3.086,6.609l-2.928-2.958a2.6,2.6,0,0,0,.945-.258,2.213,2.213,0,0,0,.963-2.845,2.018,2.018,0,0,0-2.768-.675,2.436,2.436,0,0,0-1.066,1.831Z" transform="translate(-2316.039 -1108.615)" fill-rule="evenodd"/>
        </g>
        <g id="WORLD" transform="translate(48.045 21.628)">
          <g id="Group_1170" data-name="Group 1170" transform="translate(0)">
            <ellipse id="Ellipse_74" data-name="Ellipse 74" cx="14.906" cy="15.162" rx="14.906" ry="15.162" fill="#e3e3e3"/>
          </g>
          <path id="Path_616" data-name="Path 616" d="M1276.338,1088.113a.656.656,0,0,1,.4-.049.67.67,0,0,1,.546.642,12.03,12.03,0,0,0,.722,1.144,26.19,26.19,0,0,0,3.983,4.276,25.316,25.316,0,0,1,4.268-9.239,25.818,25.818,0,0,1-4.408-4.365.682.682,0,0,1,.089-.947.655.655,0,0,1,.931.091,24.485,24.485,0,0,0,4.2,4.156,28.536,28.536,0,0,1,7.174-6.435.656.656,0,0,1,.9.256.678.678,0,0,1-.251.916,27.038,27.038,0,0,0-6.763,6.054,26.163,26.163,0,0,0,10.3,4.371,29.674,29.674,0,0,0-.032-8.462.672.672,0,0,1,.556-.765.662.662,0,0,1,.752.565,31.13,31.13,0,0,1,.028,8.875,28.718,28.718,0,0,0,5.48.219.651.651,0,0,1,.432.135c.042.326.073.655.095.988a.655.655,0,0,1-.457.221,30.119,30.119,0,0,1-5.775-.234,23.238,23.238,0,0,1-4.327,9.814,25.594,25.594,0,0,0,7.865-.084,15.232,15.232,0,0,1-1.207,1.522,26.428,26.428,0,0,1-7.652-.238,23.536,23.536,0,0,1-6.117,4.855l-.029.014q-.406-.079-.8-.18a.618.618,0,0,1-.065-.1.678.678,0,0,1,.26-.914,22.427,22.427,0,0,0,5.231-4,27.251,27.251,0,0,1-9.77-4.659,24.728,24.728,0,0,0,.118,7.129.682.682,0,0,1-.2.593q-.612-.4-1.18-.857a25.8,25.8,0,0,1,.059-7.8,24.71,24.71,0,0,1-5.53-6.169c-.019-.035-.036-.068-.052-.1Q1276.2,1088.721,1276.338,1088.113Zm10.976-2.435a23.9,23.9,0,0,0-4.176,9.395,25.958,25.958,0,0,0,10.549,5,21.755,21.755,0,0,0,4.517-9.758A27.435,27.435,0,0,1,1287.315,1085.678Zm-10.583,3.711a.645.645,0,0,1-.094.01.708.708,0,0,1-.1-.005A.615.615,0,0,0,1276.732,1089.389Z" transform="translate(-1275.96 -1076.356)" fill-rule="evenodd"/>
        </g>
        <g id="GIRL" transform="translate(0 0)">
          <g id="Group_1171" data-name="Group 1171">
            <path id="Path_617" data-name="Path 617" d="M714.264,873.946s-21.906-17.631-6.69-38.513c1.62-2.223,11.447-15.177,25.413-23.957a1.446,1.446,0,0,1,1.732.141,1.214,1.214,0,0,1,.311,1.362s2.161-.479,2.012,1.633a1.964,1.964,0,0,1,2.619,1.961l6.007-7.487a1.5,1.5,0,0,1,1.961-.348h0a1.311,1.311,0,0,1,.588.809,1.333,1.333,0,0,1-.147.995c-7.778,13.1-16.046,25.125-24.339,37.092,0,0,6.841,7.039,10.366,9.573,1.431,1.028,15.735,10.119,17.8,15.1l.373-2.44a5.655,5.655,0,0,1,4.147-4.64l2.838-.735a29.9,29.9,0,0,1,4.521-.407,3.186,3.186,0,0,1,2.995,2.214h0a2.135,2.135,0,0,1-.227,1.807c-.193.3-.364.571-.364.571l.945.326a1.813,1.813,0,0,1,1.078,1.014h0a2.671,2.671,0,0,1-.434,2.775l-.357.415h.149a1.9,1.9,0,0,1,1.763,1.213h0a2.406,2.406,0,0,1-.781,2.8c-.213.159-.36.271-.36.271.269-.093.52.1.7.527a1.946,1.946,0,0,1-.731,2.343l-2.75,1.828c-.352,7.355-1.225,15.289-5.329,24.744a10.154,10.154,0,0,1-6.627,5.766l-.006,0a13.154,13.154,0,0,1-15.382-7.268,82.041,82.041,0,0,1-3.959-10.425,19.39,19.39,0,0,1-10.366-1.972C717.521,889.838,711.347,882.587,714.264,873.946Z" transform="translate(-702.196 -808.516)" fill-rule="evenodd"/>
            <path id="Path_618" data-name="Path 618" d="M734.662,1308.675c.652-2.037,2.93-6.613,10.162-6.183,0,0,2.565-7.608,10.675-6.077a90.1,90.1,0,0,0,8.338,7.531c1.431,1.027,15.735,10.119,17.8,15.1l.024-.156c1.335,3.985,3.759,12.538,2.541,21.794a7.835,7.835,0,0,1-9.473-.837s-4.422,5.967-10.816,2.162c-.027-.086-.053-.171-.079-.257a19.392,19.392,0,0,1-10.366-1.973c-6.211-3.2-12.384-10.449-9.467-19.09A38.627,38.627,0,0,1,734.662,1308.675Zm30.4-6.713,1.882,1.191A8.6,8.6,0,0,1,765.065,1301.962Z" transform="translate(-731.936 -1255.255)" fill-rule="evenodd"/>
            <path id="Path_619" data-name="Path 619" d="M1305.111,1795.649l-1.068,12.265a.441.441,0,1,0,.878.079l1.066-12.265a.44.44,0,1,0-.876-.079Z" transform="translate(-1253.499 -1712.377)" fill-rule="evenodd"/>
            <path id="Path_620" data-name="Path 620" d="M829.254,1491.24a24.067,24.067,0,0,1,1.3-10,.288.288,0,0,1,.325-.173.293.293,0,0,1,.232.289,72.584,72.584,0,0,0,1.378,10.068l-.063-.2A16.647,16.647,0,0,1,829.254,1491.24Zm-19.716-24.019a28.132,28.132,0,0,1,4.639-4.689,18.532,18.532,0,0,1,5.674-3.135.347.347,0,0,1,.4.206.357.357,0,0,1-.128.433c-4.27,2.972-6.706,8.119-7.53,10.12A32.5,32.5,0,0,1,809.538,1467.221Z" transform="translate(-800.524 -1404.729)" fill-rule="evenodd"/>
            <path id="Path_621" data-name="Path 621" d="M1421.683,1533.691c.267-.085.514.1.688.531.01.023.019.047.028.07a11.954,11.954,0,0,1-4.2,1.767.448.448,0,0,1-.121-.888A10.378,10.378,0,0,0,1421.683,1533.691Zm-.778-4.283h.148a1.869,1.869,0,0,1,.995.287,13.831,13.831,0,0,1-4.45,2.223.442.442,0,0,1-.531-.333.449.449,0,0,1,.327-.539A11.861,11.861,0,0,0,1420.905,1529.407Zm-1.227-4.528.877.3a7.859,7.859,0,0,1-4.433,3.069.442.442,0,0,1-.519-.351.449.449,0,0,1,.346-.528A6.733,6.733,0,0,0,1419.678,1524.88Z" transform="translate(-1355.684 -1464.72)" fill="#707070" fill-rule="evenodd"/>
            <path id="Path_622" data-name="Path 622" d="M1354.807,1489.576a9.606,9.606,0,0,1-3.089.107.448.448,0,0,0-.125.888,10.594,10.594,0,0,0,3.4-.119.45.45,0,0,0,.335-.535A.441.441,0,0,0,1354.807,1489.576Z" transform="translate(-1296.71 -1432.372)" fill="#707071" fill-rule="evenodd"/>
            <path id="Path_623" data-name="Path 623" d="M1076.49,851.833a2.69,2.69,0,0,1,.243,1.106l.665-.829a.446.446,0,0,1-.046.069l-1.649,2.031a.436.436,0,0,1-.62.06.454.454,0,0,1-.059-.631Zm-2.6-1.96a1.742,1.742,0,0,1,.223,1.1l-1.022,1.191a.436.436,0,0,1-.622.043.454.454,0,0,1-.042-.632Zm-1.9-1.656a1.268,1.268,0,0,1,.107,1.128h0c-.552.529-1.189,1.143-1.189,1.143a.435.435,0,0,1-.623-.017.454.454,0,0,1,.016-.634S1071.434,848.75,1071.995,848.216Z" transform="translate(-1039.268 -844.882)" fill="#707070" fill-rule="evenodd"/>
            <path id="Path_624" data-name="Path 624" d="M907,1217.033l-4.631-4.652a.352.352,0,0,1,.384-.573l6.13,2.537Z" transform="translate(-885.463 -1177.915)" fill-rule="evenodd"/>
          </g>
          <g id="Group_1175" data-name="Group 1175" transform="translate(45.939 19.751)">
            <g id="Group_1174" data-name="Group 1174">
              <g id="Group_1172" data-name="Group 1172" transform="translate(7.419 2.169)">
                <path id="Path_625" data-name="Path 625" d="M1340.892,1105.867l.669-4.989a16.779,16.779,0,0,1-3.126-1.479,1.811,1.811,0,0,1-.615-2.458,1.747,1.747,0,0,1,2.416-.624,13.294,13.294,0,0,0,18.385-4.753,13.782,13.782,0,0,0-4.673-18.7,1.811,1.811,0,0,1-.613-2.458,1.746,1.746,0,0,1,2.416-.625,17.4,17.4,0,0,1,5.9,23.616,16.858,16.858,0,0,1-16.641,8.294l-.435,3.246A9.306,9.306,0,0,1,1340.892,1105.867Z" transform="translate(-1337.574 -1069.53)" fill-rule="evenodd"/>
              </g>
              <g id="Group_1173" data-name="Group 1173">
                <path id="Path_626" data-name="Path 626" d="M1259.308,1072.662a13.783,13.783,0,0,1-4.672-18.7,13.293,13.293,0,0,1,18.384-4.752,1.748,1.748,0,0,0,2.417-.625,1.812,1.812,0,0,0-.614-2.458,16.787,16.787,0,0,0-23.217,6,17.405,17.405,0,0,0,5.9,23.616,1.747,1.747,0,0,0,2.416-.625A1.811,1.811,0,0,0,1259.308,1072.662Z" transform="translate(-1249.226 -1043.706)" fill-rule="evenodd"/>
              </g>
            </g>
          </g>
          <g id="Group_1177" data-name="Group 1177" transform="translate(29.936 18.416)">
            <ellipse id="Ellipse_75" data-name="Ellipse 75" cx="8.666" cy="8.815" rx="8.666" ry="8.815" transform="translate(0 12.643)" fill="#cbcbcb"/>
            <path id="Path_627" data-name="Path 627" d="M1064.323,1190.657a13.873,13.873,0,0,1-4.953-.007,8.91,8.91,0,0,1-.7-3.475,8.649,8.649,0,0,1,16.878-2.824c-.363,1.658-3.09,4.968-8.692,5.643a2.336,2.336,0,0,0,0-1.6,1.923,1.923,0,0,0-2.335-1.387,1.974,1.974,0,0,0-.949,2.576A2.354,2.354,0,0,0,1064.323,1190.657Z" transform="translate(-1058.67 -1165.717)" fill-rule="evenodd"/>
            <g id="Group_1176" data-name="Group 1176" transform="translate(5.744)">
              <ellipse id="Ellipse_76" data-name="Ellipse 76" cx="5.91" cy="6.012" rx="5.91" ry="6.012"/>
            </g>
          </g>
        </g>
      </g>
    </g>
  </g>
</svg>
