<svg xmlns="http://www.w3.org/2000/svg" width="108.044" height="68.019" viewBox="0 0 108.044 68.019">
  <g id="_9_-_ECONOMY_ANALYSIS" data-name="9 - ECONOMY ANALYSIS" transform="translate(-702.196 -547.866)">
    <g id="_9---ECONOMY-ANALYSIS" transform="translate(702.196 539.787)">
      <g id="CURVE" transform="translate(18.2 9.209)">
        <path id="Path_601" data-name="Path 601" d="M769.265,541.809a1.284,1.284,0,1,1,.723.758L757.132,557.6a1.284,1.284,0,1,1-2.44.56c0-.035,0-.07,0-.1l-1.225-.85a1.286,1.286,0,0,1-1.2.2l-12.988,17.116a1.285,1.285,0,1,1-2.508.393,1.3,1.3,0,0,1,.016-.2l-8.005-8.024a1.283,1.283,0,0,1-.971.093l-13.941,21.7a1.284,1.284,0,1,1-.85-.6l14-21.79a1.285,1.285,0,1,1,2.452-.538,1.294,1.294,0,0,1-.038.311l7.945,7.964a1.287,1.287,0,0,1,1.193-.09L751.5,556.7a1.285,1.285,0,1,1,2.465-.508q0,.045,0,.089l1.235.857a1.284,1.284,0,0,1,1.136-.21Z" transform="translate(-711.486 -540.093)" fill="#0005d9" stroke="#0005d9" stroke-width="1" fill-rule="evenodd"/>
      </g>
      <g id="DOLLAR-" transform="translate(63.123 26.302)">
        <g id="Group_1162" data-name="Group 1162" transform="translate(0 0)">
          <path id="Path_742" data-name="Path 742" d="M9.249,0A9.33,9.33,0,0,1,18.5,9.408a9.33,9.33,0,0,1-9.249,9.408A9.33,9.33,0,0,1,0,9.408,9.33,9.33,0,0,1,9.249,0Z" transform="translate(0 0)" fill="#e3e3e3"/>
        </g>
        <g id="Group_1167" data-name="Group 1167" transform="translate(3.806 2.4)">
          <g id="Group_1163" data-name="Group 1163" transform="translate(2.075)">
            <path id="Path_605" data-name="Path 605" d="M2027.632,1204.872l-.34.124-.169-.48.594-.215a.259.259,0,0,1,.338.148l.285.813a6.866,6.866,0,0,1,1.578-.306,6.469,6.469,0,0,1,2,.171.244.244,0,0,1,.165.35l-.749,1.541a.283.283,0,0,1-.316.15,4.321,4.321,0,0,0-2.006.015l.949,2.707c2.623-.4,4.19.287,4.74,1.961a3.093,3.093,0,0,1-.275,2.627,5.132,5.132,0,0,1-2.158,1.992l.49,1.4a.266.266,0,0,1-.17.332l-.583.211-.168-.48.33-.119-.479-1.366a.263.263,0,0,1,.14-.319,4.729,4.729,0,0,0,2.132-1.876,2.614,2.614,0,0,0,.232-2.222c-.495-1.507-1.969-2.006-4.38-1.6a.257.257,0,0,1-.289-.161l-1.11-3.168a.25.25,0,0,1,.019-.2.281.281,0,0,1,.167-.133,4.966,4.966,0,0,1,2.348-.145l.516-1.061a5.871,5.871,0,0,0-1.531-.09,6.391,6.391,0,0,0-1.683.359.259.259,0,0,1-.336-.149Zm3.956,9.654a1.659,1.659,0,0,0,.64-.748,1.391,1.391,0,0,0,.068-.522l.534-.05a1.927,1.927,0,0,1-.094.711,2.518,2.518,0,0,1-1.158,1.225.281.281,0,0,1-.229.029.248.248,0,0,1-.159-.153l-.6-1.7.508-.184Zm-5.157-5.785a1.819,1.819,0,0,1,.156-.668l.007-.015a2.07,2.07,0,0,1,.953-.911.281.281,0,0,1,.218-.012.245.245,0,0,1,.147.148l.488,1.39-.508.184-.384-1.1a1.512,1.512,0,0,0-.436.507,1.338,1.338,0,0,0-.107.48s0,.009,0,.014a1.432,1.432,0,0,0,.093.625l-.507.184A1.933,1.933,0,0,1,2026.43,1208.741Z" transform="translate(-2026.423 -1204.283)" fill-rule="evenodd"/>
          </g>
          <g id="Group_1164" data-name="Group 1164" transform="translate(2.201 4.391)">
            <path id="Path_606" data-name="Path 606" d="M2029.559,1290.313a1.494,1.494,0,0,1-.731-.869l.508-.184a1.02,1.02,0,0,0,.5.6l.009,0a1.533,1.533,0,0,0,.779.146l-.448-1.279.508-.184.562,1.6a.253.253,0,0,1-.032.226.286.286,0,0,1-.2.122A2.477,2.477,0,0,1,2029.559,1290.313Z" transform="translate(-2028.828 -1288.546)" fill-rule="evenodd"/>
          </g>
          <g id="Group_1165" data-name="Group 1165" transform="translate(5.728 7.167)">
            <path id="Path_607" data-name="Path 607" d="M2097.13,1342.366l.4,1.149-.507.184-.505-1.44a.252.252,0,0,1,.025-.215.284.284,0,0,1,.186-.129,2.482,2.482,0,0,1,1.649.094l.008.005a1.7,1.7,0,0,1,.74.92,2.361,2.361,0,0,1,.134.65l-.534.05a1.856,1.856,0,0,0-.107-.516,1.229,1.229,0,0,0-.528-.663A1.6,1.6,0,0,0,2097.13,1342.366Z" transform="translate(-2096.507 -1341.828)" fill-rule="evenodd"/>
          </g>
          <g id="Group_1166" data-name="Group 1166" transform="translate(0 0.232)">
            <path id="Path_608" data-name="Path 608" d="M1991.33,1216.488c-2.53.359-4.029-.318-4.536-1.937a3.176,3.176,0,0,1,.17-2.617,4.912,4.912,0,0,1,2.113-1.873l-.292-.835a.266.266,0,0,1,.169-.332l.416-.151.168.48-.162.058.282.806a.263.263,0,0,1-.141.32,4.563,4.563,0,0,0-2.084,1.751,2.7,2.7,0,0,0-.128,2.222c.454,1.45,1.862,1.941,4.177,1.568a.256.256,0,0,1,.286.161l1.164,3.32a.253.253,0,0,1-.021.208.282.282,0,0,1-.173.132,5.011,5.011,0,0,1-1.753.185,4.661,4.661,0,0,1-1.254-.234l-.7,1.127a8.125,8.125,0,0,0,1.838.233,6.585,6.585,0,0,0,2.227-.376.259.259,0,0,1,.335.149l.479,1.366.173-.062.168.48-.427.155a.259.259,0,0,1-.337-.148l-.481-1.373a7.079,7.079,0,0,1-2.167.325,8.516,8.516,0,0,1-2.3-.341.246.246,0,0,1-.138-.37l1-1.606a.281.281,0,0,1,.34-.114,4.062,4.062,0,0,0,1.308.278h.012a4.119,4.119,0,0,0,1.274-.1Z" transform="translate(-1986.594 -1208.743)" fill-rule="evenodd"/>
          </g>
        </g>
      </g>
      <g id="MAGNIFYING-GLASS" transform="translate(61.685 25.134)">
        <g id="Group_1169" data-name="Group 1169" transform="translate(0)">
          <path id="Path_609" data-name="Path 609" d="M2069.887,1156.979a10.377,10.377,0,0,1-2.128.22,1.113,1.113,0,0,1,0-2.225,8.467,8.467,0,0,0,0-16.932,1.113,1.113,0,0,1,0-2.225,10.722,10.722,0,0,1,4.222,20.483l6.857,16.453a1.119,1.119,0,0,1-.58,1.458,1.088,1.088,0,0,1-1.435-.59Z" transform="translate(-2057.248 -1135.817)" fill-rule="evenodd"/>
          <g id="Group_1168" data-name="Group 1168" transform="translate(0 0)">
            <path id="Path_610" data-name="Path 610" d="M1923.112,1164.774a8.467,8.467,0,0,1,0-16.931,1.113,1.113,0,0,0,0-2.225,10.693,10.693,0,0,0,0,21.382,1.113,1.113,0,0,0,0-2.225Z" transform="translate(-1912.601 -1145.617)" fill-rule="evenodd"/>
          </g>
        </g>
      </g>
      <g id="BOY" transform="translate(75.317 23.717)">
        <path id="Path_611" data-name="Path 611" d="M2159.167,1134.82a17.623,17.623,0,0,1-.394-5.116,10.431,10.431,0,0,1,6.515-9.01,10.141,10.141,0,0,1,10.791,2.146,10.334,10.334,0,0,1,1.786,2.293c2.513,4.381,3.328,9.21,1.211,13.982,0,0,1.364,9.112-.6,15.68a8.6,8.6,0,0,1-7.171,6.1c-.114.015-.228.028-.343.042a8.093,8.093,0,0,1-7.784-3.7l-8.365-13.036-3.977.351a.753.753,0,0,1-.81-.649.722.722,0,0,1,.379-.728,3.269,3.269,0,0,1-.635-.072.879.879,0,0,1-.635-.9,1.084,1.084,0,0,1,.61-1.093h0a1.227,1.227,0,0,1-1.424-.954c-.006-.026-.012-.051-.017-.075a1.038,1.038,0,0,1,.094-.7,1.211,1.211,0,0,1,.605-.566l-.637-.2a1.16,1.16,0,0,1-.8-1.109h0a1.117,1.117,0,0,1,.679-1.031l2.35-.99s-1.877-2.435-1.1-3.151c.139-.127.449-.2,1.36.588a5.192,5.192,0,0,0,3.368.442A11.353,11.353,0,0,1,2159.167,1134.82Zm2.032-26.205a5.294,5.294,0,1,1-5.2,5.294A5.252,5.252,0,0,1,2161.2,1108.615Z" transform="translate(-2147.561 -1108.615)" fill="#cbcbcb" fill-rule="evenodd"/>
        <path id="Path_612" data-name="Path 612" d="M2164.994,1615.415l1.141-.131a.278.278,0,0,1,.061.553l-.693.079-.331-.517Zm-5.362-1.484,3.294-.309a.278.278,0,0,1,.051.554l-2.23.209.016-.011a3.254,3.254,0,0,1-.635-.072A.756.756,0,0,1,2159.631,1613.93Zm-.591-1.935a.283.283,0,0,1,.082-.033l3.052-.669a.273.273,0,0,1,.325.214.278.278,0,0,1-.21.33l-2.221.488.034-.018h0A1.211,1.211,0,0,1,2159.041,1612Zm-.552-2.292,3.256-1.02a.273.273,0,0,1,.342.184.279.279,0,0,1-.181.348l-2.571.806.027-.012-.637-.2A1.144,1.144,0,0,1,2158.489,1609.7Zm2.129-3.49,1.139-.479a.272.272,0,0,1,.358.15.28.28,0,0,1-.148.364l-1.019.428C2160.938,1606.665,2160.8,1606.485,2160.618,1606.214Z" transform="translate(-2157.92 -1579.81)" fill-rule="evenodd"/>
        <path id="Path_613" data-name="Path 613" d="M2362.384,1341.446a17.911,17.911,0,0,1-.369-5.011,10.43,10.43,0,0,1,6.514-9.01,10.14,10.14,0,0,1,10.791,2.146,10.322,10.322,0,0,1,1.786,2.292c2.513,4.381,3.328,9.211,1.211,13.982,0,0,1.364,9.112-.6,15.68a8.6,8.6,0,0,1-7.171,6.1c-.114.015-.228.029-.344.042a8.093,8.093,0,0,1-7.784-3.7l-2.257-3.517,7.673-9.121A30.838,30.838,0,0,0,2362.384,1341.446Z" transform="translate(-2350.803 -1315.346)" fill-rule="evenodd"/>
        <path id="Path_614" data-name="Path 614" d="M2415.221,1503.561a.288.288,0,0,1,.037.046l4.956,7.609a.281.281,0,0,1-.077.386.269.269,0,0,1-.378-.079l-4.874-7.482.365-.434Zm10.56-5.089.012.1-.015.032a93.086,93.086,0,0,0-2.665-10.937.2.2,0,0,1,.1-.253.2.2,0,0,1,.256.082,78.854,78.854,0,0,1,3.253,7.45c-.018.1-.037.2-.058.3v0l-.009.046v0l-.01.046v0c-.021.1-.043.2-.066.293v0l-.011.045v.007l-.01.043,0,.009-.01.042,0,.008-.011.044v0c-.017.064-.034.128-.051.193v0l-.011.041,0,.012-.01.037,0,.015-.01.037,0,.015-.01.036,0,.015-.011.037,0,.012-.012.039a.5.5,0,0,1-.015.05l-.013.043,0,.007-.01.035-.005.018-.011.032-.006.021-.009.03-.007.022-.01.03-.008.023-.009.03-.007.023-.01.029-.007.024-.01.029-.01.028-.007.022-.009.025-.009.027-.009.026-.01.027-.009.026-.01.027-.009.026-.009.028-.009.025-.01.028-.01.024-.01.03-.008.023-.013.035-.006.018-.02.052-.007.017-.013.036-.008.022-.011.031-.009.023-.012.03-.009.023-.011.031-.009.023-.012.031-.009.022-.014.034-.007.019-.018.044,0,.009-.022.053-.006.016-.016.037-.008.021-.014.033-.009.021-.014.031-.009.022-.014.032-.009.022-.014.033-.009.02-.015.036-.008.016-.023.054,0,.028v.009l0,.026v.013l.006.037,0,.014.006.049,0,.015.008.063v.012l.01.079Zm-17.392-2.858s-.26-2.048-.611-8.067a.165.165,0,0,1,.133-.187.132.132,0,0,1,.165.09l1.466,9.186Q2408.934,1496.067,2408.389,1495.613Z" transform="translate(-2394.218 -1467.619)" fill="#707070" fill-rule="evenodd"/>
        <path id="Path_615" data-name="Path 615" d="M2331.484,1110.59a5.162,5.162,0,0,1,4.054-1.976,5.252,5.252,0,0,1,5.2,5.294,5.32,5.32,0,0,1-1.915,4.1l-1.817-1.835a1.609,1.609,0,0,0,.586-.16,1.373,1.373,0,0,0,.6-1.765,1.252,1.252,0,0,0-1.717-.419,1.511,1.511,0,0,0-.661,1.136Z" transform="translate(-2321.9 -1108.615)" fill-rule="evenodd"/>
      </g>
      <g id="WORLD" transform="translate(29.812 21.499)">
        <g id="Group_1170" data-name="Group 1170" transform="translate(0)">
          <ellipse id="Ellipse_74" data-name="Ellipse 74" cx="9.249" cy="9.408" rx="9.249" ry="9.408" fill="#e3e3e3"/>
        </g>
        <path id="Path_616" data-name="Path 616" d="M1276.252,1084.009a.407.407,0,0,1,.247-.031.416.416,0,0,1,.339.4,7.433,7.433,0,0,0,.448.71,16.257,16.257,0,0,0,2.471,2.653,15.707,15.707,0,0,1,2.649-5.733,16.012,16.012,0,0,1-2.735-2.708.423.423,0,0,1,.055-.587.406.406,0,0,1,.578.056,15.207,15.207,0,0,0,2.606,2.578,17.708,17.708,0,0,1,4.452-3.993.407.407,0,0,1,.559.159.421.421,0,0,1-.156.568,16.776,16.776,0,0,0-4.2,3.757,16.235,16.235,0,0,0,6.393,2.713,18.418,18.418,0,0,0-.02-5.251.417.417,0,0,1,.345-.475.411.411,0,0,1,.467.35,19.321,19.321,0,0,1,.017,5.507,17.819,17.819,0,0,0,3.4.136.4.4,0,0,1,.268.083c.026.2.045.407.059.613a.406.406,0,0,1-.284.137,18.678,18.678,0,0,1-3.584-.145,14.421,14.421,0,0,1-2.685,6.09,15.878,15.878,0,0,0,4.88-.052,9.423,9.423,0,0,1-.749.945,16.4,16.4,0,0,1-4.748-.147,14.606,14.606,0,0,1-3.8,3.012l-.018.009c-.168-.033-.334-.07-.5-.112a.389.389,0,0,1-.04-.061.421.421,0,0,1,.161-.567,13.918,13.918,0,0,0,3.246-2.483,16.91,16.91,0,0,1-6.062-2.891,15.346,15.346,0,0,0,.073,4.424.423.423,0,0,1-.122.368q-.38-.249-.732-.532a16.007,16.007,0,0,1,.037-4.843,15.33,15.33,0,0,1-3.431-3.828c-.011-.021-.022-.042-.032-.062Q1276.167,1084.387,1276.252,1084.009Zm6.811-1.511a14.832,14.832,0,0,0-2.591,5.829,16.107,16.107,0,0,0,6.546,3.1,13.5,13.5,0,0,0,2.8-6.055A17.023,17.023,0,0,1,1283.063,1082.5Zm-6.567,2.3a.407.407,0,0,1-.058.006.427.427,0,0,1-.06,0A.379.379,0,0,0,1276.5,1084.8Z" transform="translate(-1276.018 -1076.714)" fill-rule="evenodd"/>
      </g>
      <g id="GIRL" transform="translate(0 8.079)">
        <g id="Group_1171" data-name="Group 1171">
          <path id="Path_617" data-name="Path 617" d="M709.685,849.116s-13.593-10.94-4.151-23.9A63.033,63.033,0,0,1,721.3,810.352a.9.9,0,0,1,1.075.087.754.754,0,0,1,.193.845s1.341-.3,1.249,1.013a1.218,1.218,0,0,1,1.625,1.217l3.727-4.646a.933.933,0,0,1,1.217-.216h0a.813.813,0,0,1,.365.5.827.827,0,0,1-.091.617c-4.826,8.131-9.957,15.59-15.1,23.016a73.66,73.66,0,0,0,6.432,5.94c.888.638,9.764,6.279,11.047,9.368l.232-1.514a3.509,3.509,0,0,1,2.573-2.879l1.761-.456a18.553,18.553,0,0,1,2.805-.252,1.977,1.977,0,0,1,1.858,1.374h0a1.325,1.325,0,0,1-.141,1.121l-.226.354.587.2a1.125,1.125,0,0,1,.669.629h0a1.658,1.658,0,0,1-.269,1.722l-.221.257h.092a1.179,1.179,0,0,1,1.094.752h0a1.493,1.493,0,0,1-.485,1.739l-.224.168c.167-.058.323.059.432.327a1.207,1.207,0,0,1-.454,1.454l-1.706,1.134a41.162,41.162,0,0,1-3.307,15.354A6.3,6.3,0,0,1,734,873.161l0,0a8.162,8.162,0,0,1-9.544-4.51,50.912,50.912,0,0,1-2.456-6.469,12.031,12.031,0,0,1-6.432-1.224C711.705,858.977,707.875,854.477,709.685,849.116Z" transform="translate(-702.196 -808.516)" fill-rule="evenodd"/>
          <path id="Path_618" data-name="Path 618" d="M734.662,1303.945c.4-1.264,1.818-4.1,6.305-3.836a5.79,5.79,0,0,1,6.624-3.771,55.9,55.9,0,0,0,5.174,4.673c.888.638,9.764,6.279,11.047,9.368l.015-.1A31.131,31.131,0,0,1,765.4,1323.8a4.862,4.862,0,0,1-5.878-.519s-2.744,3.7-6.711,1.342l-.049-.16a12.032,12.032,0,0,1-6.432-1.224c-3.854-1.985-7.684-6.484-5.874-11.845A23.968,23.968,0,0,1,734.662,1303.945Zm18.865-4.165,1.168.739A5.34,5.34,0,0,1,753.527,1299.779Z" transform="translate(-732.97 -1270.798)" fill-rule="evenodd"/>
          <path id="Path_619" data-name="Path 619" d="M1304.7,1795.494l-.662,7.611a.274.274,0,1,0,.545.049l.661-7.611a.273.273,0,1,0-.544-.049Z" transform="translate(-1272.68 -1743.823)" fill-rule="evenodd"/>
          <path id="Path_620" data-name="Path 620" d="M821.772,1479.152a14.932,14.932,0,0,1,.805-6.2.179.179,0,0,1,.2-.108.182.182,0,0,1,.144.179,45.031,45.031,0,0,0,.855,6.247l-.039-.127A10.325,10.325,0,0,1,821.772,1479.152Zm-12.234-14.9a17.458,17.458,0,0,1,2.879-2.909,11.5,11.5,0,0,1,3.521-1.945.215.215,0,0,1,.245.128.221.221,0,0,1-.08.269,14.9,14.9,0,0,0-4.673,6.279A20.189,20.189,0,0,1,809.538,1464.249Z" transform="translate(-803.945 -1425.472)" fill-rule="evenodd"/>
          <path id="Path_621" data-name="Path 621" d="M1419.372,1530.347c.166-.053.319.065.427.329.006.015.012.029.017.044a7.416,7.416,0,0,1-2.608,1.1.278.278,0,0,1-.075-.551A6.443,6.443,0,0,0,1419.372,1530.347Zm-.483-2.658h.092a1.16,1.16,0,0,1,.617.178,8.58,8.58,0,0,1-2.761,1.38.274.274,0,0,1-.329-.206.279.279,0,0,1,.2-.335A7.359,7.359,0,0,0,1418.89,1527.689Zm-.761-2.809.544.188a4.876,4.876,0,0,1-2.751,1.9.274.274,0,0,1-.322-.218.278.278,0,0,1,.215-.328A4.178,4.178,0,0,0,1418.128,1524.88Z" transform="translate(-1378.42 -1487.551)" fill="#707070" fill-rule="evenodd"/>
          <path id="Path_622" data-name="Path 622" d="M1353.443,1489.572a5.96,5.96,0,0,1-1.917.067.278.278,0,0,0-.077.551,6.573,6.573,0,0,0,2.112-.074.279.279,0,0,0,.208-.332A.274.274,0,0,0,1353.443,1489.572Z" transform="translate(-1317.394 -1454.076)" fill="#707071" fill-rule="evenodd"/>
          <path id="Path_623" data-name="Path 623" d="M1074.091,850.46a1.668,1.668,0,0,1,.151.686l.413-.514a.279.279,0,0,1-.029.043l-1.023,1.26a.27.27,0,0,1-.385.037.282.282,0,0,1-.037-.392Zm-1.612-1.216a1.082,1.082,0,0,1,.138.684l-.634.739a.271.271,0,0,1-.386.027.282.282,0,0,1-.026-.392Zm-1.177-1.028a.787.787,0,0,1,.066.7h0c-.343.328-.738.709-.738.709a.27.27,0,0,1-.386-.01.282.282,0,0,1,.01-.393S1070.955,848.547,1071.3,848.216Z" transform="translate(-1050.995 -846.147)" fill="#707070" fill-rule="evenodd"/>
          <path id="Path_624" data-name="Path 624" d="M905.2,1215.04l-2.874-2.886a.218.218,0,0,1,.238-.356l3.8,1.575Z" transform="translate(-891.839 -1190.767)" fill-rule="evenodd"/>
        </g>
        <g id="Group_1175" data-name="Group 1175" transform="translate(28.505 12.256)">
          <g id="Group_1174" data-name="Group 1174">
            <g id="Group_1172" data-name="Group 1172" transform="translate(4.604 1.346)">
              <path id="Path_625" data-name="Path 625" d="M1339.633,1092.077l.415-3.1a10.413,10.413,0,0,1-1.94-.918,1.124,1.124,0,0,1-.381-1.525,1.084,1.084,0,0,1,1.5-.387,8.249,8.249,0,0,0,11.408-2.949,8.552,8.552,0,0,0-2.9-11.6,1.124,1.124,0,0,1-.381-1.525,1.084,1.084,0,0,1,1.5-.387,10.8,10.8,0,0,1,3.661,14.654,10.46,10.46,0,0,1-10.326,5.147l-.27,2.014A5.773,5.773,0,0,1,1339.633,1092.077Z" transform="translate(-1337.573 -1069.53)" fill-rule="evenodd"/>
            </g>
            <g id="Group_1173" data-name="Group 1173">
              <path id="Path_626" data-name="Path 626" d="M1255.482,1061.673a8.552,8.552,0,0,1-2.9-11.6,8.248,8.248,0,0,1,11.407-2.949,1.084,1.084,0,0,0,1.5-.388,1.124,1.124,0,0,0-.381-1.525,10.416,10.416,0,0,0-14.406,3.724,10.8,10.8,0,0,0,3.661,14.654,1.084,1.084,0,0,0,1.5-.388A1.124,1.124,0,0,0,1255.482,1061.673Z" transform="translate(-1249.226 -1043.706)" fill-rule="evenodd"/>
            </g>
          </g>
        </g>
        <g id="Group_1177" data-name="Group 1177" transform="translate(18.576 11.427)">
          <ellipse id="Ellipse_75" data-name="Ellipse 75" cx="5.378" cy="5.47" rx="5.378" ry="5.47" transform="translate(0 7.845)" fill="#cbcbcb"/>
          <path id="Path_627" data-name="Path 627" d="M1062.178,1185.99a8.609,8.609,0,0,1-3.073,0,5.528,5.528,0,0,1-.435-2.156,5.367,5.367,0,0,1,10.473-1.752c-.225,1.029-1.918,3.083-5.394,3.5a1.45,1.45,0,0,0,0-.994,1.193,1.193,0,0,0-1.449-.86,1.225,1.225,0,0,0-.589,1.6A1.461,1.461,0,0,0,1062.178,1185.99Z" transform="translate(-1058.67 -1170.515)" fill-rule="evenodd"/>
          <g id="Group_1176" data-name="Group 1176" transform="translate(3.564)">
            <ellipse id="Ellipse_76" data-name="Ellipse 76" cx="3.667" cy="3.73" rx="3.667" ry="3.73"/>
          </g>
        </g>
      </g>
    </g>
  </g>
</svg>
