<svg xmlns="http://www.w3.org/2000/svg" width="126.882" height="100.671" viewBox="0 0 126.882 100.671">
  <g id="_6_-_FINANCES" data-name="6 - FINANCES" transform="translate(-711.199 -531.811)">
    <g id="_6---FINANCES" transform="translate(711.199 531.811)">
      <g id="PIGGY-BANK" transform="translate(0 16.938)">
        <g id="Group_1403" data-name="Group 1403" transform="translate(77.681 67.395)">
          <g id="Group_1402" data-name="Group 1402">
            <path id="Path_850" data-name="Path 850" d="M1012.17,1453.99a43.136,43.136,0,0,0,2.2,12.059,5.854,5.854,0,0,0,5.542,3.969v0a5.225,5.225,0,0,0,4.826-3.221,56.143,56.143,0,0,0,3.429-12.81Z" transform="translate(-1012.17 -1453.99)" fill="#71706f" fill-rule="evenodd"/>
          </g>
          <path id="Path_851" data-name="Path 851" d="M1558.365,1472.135c-.016-.177-.03-.355-.045-.535l4.16.077s.954,3.182,1.828,6.008c1.166,3.768,2.279,6.271,4.69,7.352a5.19,5.19,0,0,1-.726.435,8.111,8.111,0,0,1-2.317.542v0h-.048c-.092,0-.183,0-.274-.008l-.029,0-.117-.008-.028,0-.029,0-.029,0-.029,0-.016,0-.1-.011-.055-.006-.029,0-.141-.021-.028,0-.028-.006-.029,0-.028,0-.027-.006-.094-.017c-.153-.031-.3-.068-.453-.111-.05-.014-.1-.028-.148-.044s-.129-.042-.192-.064l-.072-.026-.053-.02a5.9,5.9,0,0,1-1.053-.526l-.047-.03-.054-.036-.04-.027-.047-.031-.015-.01a5.643,5.643,0,0,1-.451-.346q-.076-.063-.149-.129l-.041-.039-.041-.038-.04-.039-.034-.033a5.9,5.9,0,0,1-.524-.585c-.084-.108-.164-.218-.241-.331l-.072-.109c-.029-.046-.058-.093-.086-.14l-.009-.015-.009-.016c-.065-.109-.127-.221-.185-.335l-.013-.026-.009-.019q-.117-.235-.215-.483l-.01-.028c-.015-.039-.03-.077-.043-.116s-.025-.07-.037-.1l-.027-.08-.008-.026-.018-.053-.011-.031-.017-.05-.011-.032-.016-.048-.011-.033-.016-.049-.01-.032-.016-.051-.01-.028-.02-.064-.005-.016-.027-.081-.006-.022-.019-.058-.009-.031-.017-.05-.01-.033-.016-.049-.01-.033-.016-.049-.01-.033-.016-.051-.009-.03-.018-.058-.007-.023-.024-.082-.006-.016-.019-.065-.009-.029-.016-.052-.009-.032-.016-.05-.009-.034-.015-.049-.01-.033-.015-.051-.009-.032-.016-.054-.008-.028-.023-.08v0l-.023-.083-.007-.027-.017-.055-.008-.032-.015-.05-.009-.034-.014-.05-.009-.034-.014-.05-.009-.033-.015-.053-.007-.03-.018-.065,0-.018-.022-.083-.006-.024-.016-.06-.008-.031-.014-.052-.009-.034-.013-.05-.008-.035-.013-.05-.009-.034-.013-.052-.008-.032-.016-.059-.006-.025-.021-.085,0-.016-.016-.067-.008-.03-.013-.054-.008-.034-.013-.051-.008-.036-.012-.05-.008-.036-.013-.051-.007-.034-.013-.056-.007-.03-.018-.078,0-.007-.019-.084-.006-.029-.013-.055-.007-.035-.012-.051-.008-.036-.011-.05-.008-.036-.011-.05-.007-.036-.012-.053-.007-.033-.014-.063,0-.023-.018-.085-.005-.027-.013-.059-.007-.035-.01-.052-.008-.037-.01-.051-.007-.038-.01-.05-.008-.038-.01-.051-.008-.037-.011-.056-.006-.031-.017-.086,0-.025-.012-.062-.007-.036-.01-.052-.007-.039-.009-.049-.007-.04-.009-.049-.007-.039-.009-.05-.007-.039-.009-.051-.006-.038-.012-.064,0-.023,0-.017-.012-.069-.007-.039-.008-.051-.007-.041-.008-.048-.007-.042-.008-.047-.008-.042-.007-.047-.007-.043-.008-.047-.006-.042-.008-.052-.007-.039-.014-.085-.007-.042-.007-.048-.007-.045-.006-.045-.007-.046-.008-.044-.006-.046-.007-.044-.007-.047-.006-.043-.007-.048-.005-.042-.007-.049-.006-.039-.007-.048-.007-.05-.006-.039-.007-.051-.006-.04-.007-.051-.005-.04-.007-.05,0-.04-.007-.052-.006-.039-.007-.053,0-.036-.007-.056,0-.024-.009-.064-.009-.075,0-.012-.007-.061,0-.031-.006-.058,0-.034-.007-.058,0-.034-.007-.058,0-.033-.007-.06,0-.029-.007-.064,0-.016-.009-.073c0-.029-.006-.059-.009-.088l-.009-.075v-.015l-.008-.068,0-.025-.007-.066,0-.026-.008-.066,0-.026-.007-.068,0-.021-.007-.073v-.007c-.012-.115-.023-.229-.034-.344v-.008l-.007-.078,0-.016-.006-.076,0-.016-.006-.078Z" transform="translate(-1558.216 -1469.983)" fill="#71706f" fill-rule="evenodd"/>
        </g>
        <g id="Group_1404" data-name="Group 1404" transform="translate(27.868 67.506)">
          <path id="Path_852" data-name="Path 852" d="M1012.17,1453.99a43.136,43.136,0,0,0,2.2,12.059,5.854,5.854,0,0,0,5.542,3.969v0a5.225,5.225,0,0,0,4.826-3.221,56.143,56.143,0,0,0,3.429-12.81Z" transform="translate(-1012.17 -1453.99)" fill="#71706f" fill-rule="evenodd"/>
          <path id="Path_853" data-name="Path 853" d="M1012.2,1454.591c-.012-.2-.023-.4-.033-.6h15.995c-.077.481-.156.951-.238,1.413l-2.614-.043c-.484,1.551-3.413,10.918-4.852,12.424a8.08,8.08,0,0,1-2.4,1.937,5.852,5.852,0,0,1-3.677-3.615v0l-.007-.023-.011-.031q-.274-.8-.515-1.617c-.022-.073-.043-.147-.064-.221-.059-.2-.115-.406-.171-.611-.011-.043-.023-.086-.035-.13-.064-.243-.128-.489-.188-.737-.051-.209-.1-.421-.15-.633q-.1-.442-.194-.893c-.043-.21-.084-.423-.125-.637-.017-.091-.034-.182-.051-.274l-.017-.094c-.024-.133-.048-.267-.07-.4q-.062-.365-.119-.737l-.015-.1c-.026-.167-.05-.336-.073-.506l-.01-.075,0-.022q-.124-.916-.217-1.868l-.009-.1,0-.016c-.017-.188-.035-.377-.051-.568Q1012.241,1455.207,1012.2,1454.591Z" transform="translate(-1012.17 -1453.99)" fill="#71706f" fill-rule="evenodd"/>
        </g>
        <g id="Group_1405" data-name="Group 1405" transform="translate(0.19 0)">
          <path id="Path_854" data-name="Path 854" d="M819.025,741.358a9.342,9.342,0,0,0,1.381-.451,9.567,9.567,0,0,0,3.755-4.613,7.2,7.2,0,0,0,.026-5.7,5.986,5.986,0,0,1-4.161,2.611c-1.662.131-3.26-.682-4.062-3.033-.946-2.772.9-4.979,3.648-5.532a6.51,6.51,0,0,1,3.455.279,8.087,8.087,0,0,0-.511-2.085,11.8,11.8,0,0,0-3.349-4.609.861.861,0,1,1,1.08-1.34,13.741,13.741,0,0,1,4.194,5.139,9.964,9.964,0,0,1,.928,4.268,9.287,9.287,0,0,1,2.07,2.59,11.079,11.079,0,0,1,.6,8.785,14.034,14.034,0,0,1-5.13,7.062,18.694,18.694,0,0,1-2.711,1.214c.158.772.3,1.577.439,2.418,2.516,15.671,2.418,30.31-2.209,45.073a10,10,0,0,1-9.534,6.992h0a9.036,9.036,0,0,1-8.56-6.141c-1.493-4.412-3.243-9.586-3.243-9.586H754.714s-2.185,6.179-3.814,10.791a7.4,7.4,0,0,1-6.98,4.936h0a8.4,8.4,0,0,1-8.18-6.5l-2.146-9.231H720.833a3.6,3.6,0,0,1-3.394-2.251,39.106,39.106,0,0,1,.313-28.361,2.551,2.551,0,0,1,2.394-1.519c3.4,0,10.908,0,10.908,0s1.135-17.293,16.8-26.411l-4.26-8.13s7.123-2.806,13.428,5.3c15.028-3.536,28.28-3.916,45.156,1.091a23.429,23.429,0,0,1,10.359,6.338,28.508,28.508,0,0,1,4.764,6.51A27.8,27.8,0,0,1,819.025,741.358Zm3.49-12.851a3.447,3.447,0,0,0-1.563-.628c-1.185-.148-2.444.3-2.137,1.413.264.958.9,1.278,1.579,1.067A3.725,3.725,0,0,0,822.515,728.507Z" transform="translate(-714.926 -716.695)" fill-rule="evenodd"/>
        </g>
        <path id="Path_855" data-name="Path 855" d="M839.71,846.6l1.367-4.207a.449.449,0,0,1,.876.108l.224,3.252H840.01Zm40.12-.847.709-3.519a.354.354,0,0,1,.681-.043l1.339,3.953h0l-.133-.392Zm16.537-29.266A22.741,22.741,0,0,0,875.4,793.814a163.008,163.008,0,0,0-25.765,0,22.74,22.74,0,0,0-20.971,22.671h0a22.752,22.752,0,0,0,22.083,22.742q11.814.351,23.539,0a22.752,22.752,0,0,0,22.083-22.742Zm-85.323-2.83a26.544,26.544,0,0,1,1.862,6.835.918.918,0,0,1-1.815.278,22.687,22.687,0,0,0-2.078-7.113h2.032Zm3.58,0a20.694,20.694,0,0,1,1.479,4.874.918.918,0,0,1-1.8.339,17.122,17.122,0,0,0-1.734-5.213Zm90.905-6.662c.159.772-1.342-4.98-1.209-4.585a9.386,9.386,0,0,0,1.381-.452c.1-.062.2-.128.3-.195.377,1.218.814,2.779,1.2,4.544C906.731,806.516,906.151,806.756,905.53,806.994Zm3.952-15.349a8.782,8.782,0,0,0,1.222-4.3,8.915,8.915,0,0,1,1.632,1.867,10.16,10.16,0,0,1-1.916,4.169.912.912,0,0,1-.388.292A5.989,5.989,0,0,0,909.482,791.645Zm-1.121-5.674a9.778,9.778,0,0,1-.55,3.587,3.447,3.447,0,0,0-1.564-.628l-.135-.014a4.416,4.416,0,0,0,.41-3.328A6.745,6.745,0,0,1,908.361,785.971Zm-75.226,1.241.679,1.356a.918.918,0,1,1-1.642.822l-.6-1.206Q832.326,787.684,833.135,787.212Zm9.817-1.772a9.661,9.661,0,0,1-.637-1.06q.924-.217,1.841-.419l.3.42a.918.918,0,0,1-1.5,1.059Z" transform="translate(-800.031 -777.746)" fill="#cbcbcb" fill-rule="evenodd"/>
        <g id="Group_1409" data-name="Group 1409" transform="translate(0 35.909)">
          <g id="Group_1406" data-name="Group 1406" transform="translate(0 0)">
            <ellipse id="Ellipse_117" data-name="Ellipse 117" cx="4.909" cy="16.067" rx="4.909" ry="16.067" fill="#e4e4e4"/>
          </g>
          <g id="Group_1407" data-name="Group 1407" transform="translate(2.284 7.983)">
            <path id="Path_856" data-name="Path 856" d="M732.291,1191.208v14.333a.918.918,0,0,0,1.836,0v-14.333a.918.918,0,1,0-1.836,0Z" transform="translate(-732.291 -1190.29)" fill-rule="evenodd"/>
          </g>
          <g id="Group_1408" data-name="Group 1408" transform="translate(5.697 7.983)">
            <path id="Path_857" data-name="Path 857" d="M732.291,1191.208v14.333a.918.918,0,0,0,1.836,0v-14.333a.918.918,0,1,0-1.836,0Z" transform="translate(-732.291 -1190.29)" fill-rule="evenodd"/>
          </g>
        </g>
        <g id="Group_1410" data-name="Group 1410" transform="translate(19.785 31.749)">
          <path id="Path_858" data-name="Path 858" d="M870.051,799.571a8.961,8.961,0,0,0,.194,2.638,2.977,2.977,0,0,0,2.846,2.442,3.139,3.139,0,0,0,2.448-.811c.671-.649,1.273-1.876,1.226-4.253l-1.836.037c.032,1.6-.216,2.461-.667,2.9a1.328,1.328,0,0,1-1.067.3,1.27,1.27,0,0,1-1.177-1.091,6.933,6.933,0,0,1-.131-2.086Z" transform="translate(-870.032 -799.571)" fill="#cbcbcb" fill-rule="evenodd"/>
        </g>
        <g id="Group_1411" data-name="Group 1411" transform="translate(46.142 1.454)">
          <rect id="Rectangle_243" data-name="Rectangle 243" width="37.222" height="3.961" transform="matrix(0.979, -0.206, 0.206, 0.979, 0, 7.655)"/>
        </g>
      </g>
      <g id="BILL" transform="translate(49.251 0.996)">
        <g id="Group_1412" data-name="Group 1412" transform="translate(0 31.499)">
          <path id="Path_859" data-name="Path 859" d="M1247.57,886.236l.353-.03a163.022,163.022,0,0,1,25.765,0,22.778,22.778,0,0,1,5.024.966v19.182H1247.57Z" transform="translate(-1247.57 -885.697)" fill="#0005d9" fill-rule="evenodd"/>
          <path id="Path_860" data-name="Path 860" d="M1308.47,885.876a162.983,162.983,0,0,1,19.109.226,10.39,10.39,0,0,1-19.109-.226Z" transform="translate(-1302.878 -885.697)" fill="#cbcbcb" fill-rule="evenodd"/>
          <path id="Path_861" data-name="Path 861" d="M1355.92,1003.1v-8.945a1.931,1.931,0,1,1,3.863,0v8.945Zm6.452,0v-6.665a1.932,1.932,0,0,1,3.864,0v6.665Z" transform="translate(-1345.971 -982.438)" fill="#cbcbcb" fill-rule="evenodd"/>
        </g>
        <g id="Group_1413" data-name="Group 1413">
          <path id="Path_927" data-name="Path 927" d="M0,0H31.141V26.9H0Z" fill="#0005d9"/>
          <path id="Path_862" data-name="Path 862" d="M1300.27,740.924a10.388,10.388,0,0,1,20.712,0Z" transform="translate(-1295.431 -714.024)" fill="#cbcbcb" fill-rule="evenodd"/>
          <path id="Path_863" data-name="Path 863" d="M1378.465,542.655v7.622a1.931,1.931,0,1,1-3.863,0v-7.622Zm-6.451,0V548a1.932,1.932,0,0,1-3.864,0v-5.341Z" transform="translate(-1357.078 -542.655)" fill="#cbcbcb" fill-rule="evenodd"/>
        </g>
      </g>
      <g id="COINS" transform="translate(39.473 43.295)">
        <g id="Group_1417" data-name="Group 1417" transform="translate(0 0)">
          <g id="Group_1414" data-name="Group 1414">
            <ellipse id="Ellipse_118" data-name="Ellipse 118" cx="9.811" cy="9.712" rx="9.811" ry="9.712" fill="#71706f"/>
          </g>
          <g id="Group_1415" data-name="Group 1415" transform="translate(9.5 1.521)">
            <path id="Path_864" data-name="Path 864" d="M818.345,114.053a7.576,7.576,0,1,1,0,15.151.308.308,0,1,0,0,.615,8.191,8.191,0,1,0,0-16.381.308.308,0,1,0,0,.615Z" transform="translate(-818.034 -113.438)" fill-rule="evenodd"/>
          </g>
          <g id="Group_1416" data-name="Group 1416" transform="translate(1.537 1.521)">
            <path id="Path_865" data-name="Path 865" d="M739.586,129.2a7.576,7.576,0,1,1,0-15.151.308.308,0,1,0,0-.615,8.191,8.191,0,1,0,0,16.381.308.308,0,1,0,0-.615Z" transform="translate(-731.312 -113.438)" fill-rule="evenodd"/>
          </g>
          <path id="Path_866" data-name="Path 866" d="M845.322,174.279l-.2-1.6a.311.311,0,0,1,.617-.076l.2,1.583Q845.633,174.242,845.322,174.279Zm1.834-.4-.556-1.624a.307.307,0,0,1,.2-.39.311.311,0,0,1,.394.193l.553,1.613Q847.454,173.786,847.156,173.881Zm-8.424-1.141.864-1.407a.313.313,0,0,1,.427-.1.306.306,0,0,1,.1.423l-.867,1.41Q838.991,172.909,838.732,172.74Zm13.48-2.584-1.428-1.046a.306.306,0,0,1-.065-.43.313.313,0,0,1,.435-.064l1.4,1.023Q852.39,169.9,852.213,170.155Zm-17.4-2.491,1.678-.747a.312.312,0,0,1,.411.154.307.307,0,0,1-.156.407l-1.719.766Q834.914,167.959,834.817,167.664Zm18.844-5.383c.05.2.094.4.131.6l-1.654.386a.311.311,0,0,1-.374-.229.307.307,0,0,1,.231-.37Zm-17.627-3.113,1.478.957a.306.306,0,0,1,.09.426.313.313,0,0,1-.43.089l-1.472-.953C835.806,159.51,835.918,159.337,836.034,159.168Zm.965-1.187,1.2.875a.306.306,0,0,1,.066.43.313.313,0,0,1-.435.066l-1.246-.908Q836.785,158.206,837,157.981Zm12.813-1.268q.254.178.5.372l-1.075,1.341a.313.313,0,0,1-.437.05.306.306,0,0,1-.05-.432Zm-1.665-.943q.284.126.559.27l-.758,1.407a.313.313,0,0,1-.421.127.306.306,0,0,1-.127-.416Zm-6.206-.6.438,1.545a.311.311,0,0,1-.6.166l-.44-1.554Q841.636,155.24,841.941,155.171Z" transform="translate(-834.33 -154.925)" fill-rule="evenodd"/>
        </g>
        <g id="Group_1421" data-name="Group 1421" transform="translate(26.094 12.032)">
          <g id="Group_1418" data-name="Group 1418" transform="translate(0 0)">
            <ellipse id="Ellipse_119" data-name="Ellipse 119" cx="9.811" cy="9.712" rx="9.811" ry="9.712" fill="#71706f"/>
          </g>
          <g id="Group_1419" data-name="Group 1419" transform="translate(9.5 1.521)">
            <path id="Path_867" data-name="Path 867" d="M818.345,114.053a7.576,7.576,0,1,1,0,15.151.308.308,0,1,0,0,.615,8.191,8.191,0,1,0,0-16.381.308.308,0,1,0,0,.615Z" transform="translate(-818.034 -113.438)" fill-rule="evenodd"/>
          </g>
          <g id="Group_1420" data-name="Group 1420" transform="translate(1.537 1.521)">
            <path id="Path_868" data-name="Path 868" d="M739.586,129.2a7.576,7.576,0,1,1,0-15.151.308.308,0,1,0,0-.615,8.191,8.191,0,1,0,0,16.381.308.308,0,1,0,0-.615Z" transform="translate(-731.312 -113.438)" fill-rule="evenodd"/>
          </g>
          <path id="Path_869" data-name="Path 869" d="M845.322,174.279l-.2-1.6a.311.311,0,0,1,.617-.076l.2,1.583Q845.633,174.242,845.322,174.279Zm1.834-.4-.556-1.624a.307.307,0,0,1,.2-.39.311.311,0,0,1,.394.193l.553,1.613Q847.454,173.786,847.156,173.881Zm-8.424-1.141.864-1.407a.313.313,0,0,1,.427-.1.306.306,0,0,1,.1.423l-.867,1.41Q838.991,172.909,838.732,172.74Zm13.48-2.584-1.428-1.046a.306.306,0,0,1-.065-.43.313.313,0,0,1,.435-.064l1.4,1.023Q852.39,169.9,852.213,170.155Zm-17.4-2.491,1.678-.747a.312.312,0,0,1,.411.154.307.307,0,0,1-.156.407l-1.719.766Q834.914,167.959,834.817,167.664Zm18.844-5.383c.05.2.094.4.131.6l-1.654.386a.311.311,0,0,1-.374-.229.307.307,0,0,1,.231-.37Zm-17.627-3.113,1.478.957a.306.306,0,0,1,.09.426.313.313,0,0,1-.43.089l-1.472-.953C835.806,159.51,835.918,159.337,836.034,159.168Zm.965-1.187,1.2.875a.306.306,0,0,1,.066.43.313.313,0,0,1-.435.066l-1.246-.908Q836.785,158.206,837,157.981Zm12.813-1.268q.254.178.5.372l-1.075,1.341a.313.313,0,0,1-.437.05.306.306,0,0,1-.05-.432Zm-1.665-.943q.284.126.559.27l-.758,1.407a.313.313,0,0,1-.421.127.306.306,0,0,1-.127-.416Zm-6.206-.6.438,1.545a.311.311,0,0,1-.6.166l-.44-1.554Q841.636,155.24,841.941,155.171Z" transform="translate(-834.33 -154.925)" fill-rule="evenodd"/>
        </g>
      </g>
      <g id="CROSSES" transform="translate(17.107 0)">
        <path id="Path_879" data-name="Path 879" d="M1715.1,533.8V532.27a.459.459,0,1,1,.918,0V533.8h1.532a.459.459,0,1,1,0,.918h-1.532v1.532a.459.459,0,1,1-.918,0V534.72h-1.533a.459.459,0,0,1,0-.918Z" transform="translate(-1638.218 -531.811)" fill="#181ad2" fill-rule="evenodd"/>
        <g id="Group_1435" data-name="Group 1435" transform="translate(0 17.377)">
          <path id="Path_880" data-name="Path 880" d="M1715.1,533.8V532.27a.459.459,0,1,1,.918,0V533.8h1.532a.459.459,0,1,1,0,.918h-1.532v1.532a.459.459,0,1,1-.918,0V534.72h-1.533a.459.459,0,0,1,0-.918Z" transform="translate(-1713.11 -531.811)" fill="#0005d9" fill-rule="evenodd"/>
        </g>
        <g id="Group_1436" data-name="Group 1436" transform="translate(104.874 33.084)">
          <path id="Path_881" data-name="Path 881" d="M1715.1,533.8V532.27a.459.459,0,1,1,.918,0V533.8h1.532a.459.459,0,1,1,0,.918h-1.532v1.532a.459.459,0,1,1-.918,0V534.72h-1.533a.459.459,0,0,1,0-.918Z" transform="translate(-1713.11 -531.811)" fill="#0005d9" fill-rule="evenodd"/>
        </g>
      </g>
    </g>
  </g>
</svg>
