<svg id="Icons_Home" data-name="Icons/Home" xmlns="http://www.w3.org/2000/svg" xmlns:xlink="http://www.w3.org/1999/xlink" width="20" height="20" viewBox="0 0 20 20">
  <defs>
    <clipPath id="clip-path">
      <path id="spot" d="M7.768,20a11.2,11.2,0,0,1-4.131-.787C1.125,18.22-.1,16.513.006,14.139c.118-2.74,1.357-5.377,3.9-8.3a12.193,12.193,0,0,1,.026,1.339,4.971,4.971,0,0,0,.216,1.965c.018.047.035.1.052.146.11.318.235.678.779.68.56,0,.679-.355.793-.7.013-.04.027-.08.041-.119a5.522,5.522,0,0,0-.118-3.218l-.05-.21C5.155,3.642,5.85,1.823,7.832,0,7.634,3.2,9.853,5.35,12,7.43c.417.4.847.821,1.252,1.238,1.426,1.468,2.752,3.115,2.8,5.208.066,2.835-1.6,4.739-4.952,5.659A12.654,12.654,0,0,1,7.982,20c.023-.027,2.422-2.6,2.422-4.331A2.355,2.355,0,0,0,7.98,13.333a2.355,2.355,0,0,0-2.424,2.334c0,1.7,2.323,4.224,2.422,4.331-.021,0-.041,0-.061,0H7.768Z" transform="translate(0)" fill="#fff"/>
    </clipPath>
    <linearGradient id="linear-gradient" x1="0.932" y1="0.059" x2="0.168" y2="0.816" gradientUnits="objectBoundingBox">
      <stop offset="0" stop-color="#d9e862"/>
      <stop offset="1" stop-color="#3c6"/>
    </linearGradient>
  </defs>
  <g id="Group_42" data-name="Group 42" transform="translate(2.222 0)">
    <path id="spot-2" data-name="spot" d="M7.768,20a11.2,11.2,0,0,1-4.131-.787C1.125,18.22-.1,16.513.006,14.139c.118-2.74,1.357-5.377,3.9-8.3a12.193,12.193,0,0,1,.026,1.339,4.971,4.971,0,0,0,.216,1.965c.018.047.035.1.052.146.11.318.235.678.779.68.56,0,.679-.355.793-.7.013-.04.027-.08.041-.119a5.522,5.522,0,0,0-.118-3.218l-.05-.21C5.155,3.642,5.85,1.823,7.832,0,7.634,3.2,9.853,5.35,12,7.43c.417.4.847.821,1.252,1.238,1.426,1.468,2.752,3.115,2.8,5.208.066,2.835-1.6,4.739-4.952,5.659A12.654,12.654,0,0,1,7.982,20c.023-.027,2.422-2.6,2.422-4.331A2.355,2.355,0,0,0,7.98,13.333a2.355,2.355,0,0,0-2.424,2.334c0,1.7,2.323,4.224,2.422,4.331-.021,0-.041,0-.061,0H7.768Z" transform="translate(0)" fill="#fff"/>
    <g id="Mask_Group_42" data-name="Mask Group 42" clip-path="url(#clip-path)">
      <g id="_Tint_Backgroud" data-name="↳Tint/Backgroud" transform="translate(-2.222 0)">
        <rect id="Color" width="20" height="20" fill="url(#linear-gradient)"/>
      </g>
    </g>
  </g>
</svg>
