<svg xmlns="http://www.w3.org/2000/svg" width="64.084" height="100.094" viewBox="0 0 64.084 100.094">
  <g id="_2_-_INCOME_INEQUALITY" data-name="2 - INCOME INEQUALITY" transform="translate(-648.185 -548.111)">
    <g id="_2--INCOME-INEQUALITY" transform="translate(648.185 548.111)">
      <g id="CHARACTER-2" transform="translate(0 0)">
        <g id="GREEN-CHARACTER" transform="translate(0 0)">
          <g id="Group_1286" data-name="Group 1286">
            <g id="Group_1282" data-name="Group 1282" transform="translate(0 36.921)">
              <path id="Path_743" data-name="Path 743" d="M690.92,985.515s-14.991-1.684-20.8,9.151c-1.953,3.646-16.432,37.453-17.967,50.776,0,0-3.487,1.1-3.971,2.892h20.54a.54.54,0,0,0,.5-.332l14.651-35.053s1.691,28.524,2.036,34.352a1.1,1.1,0,0,0,1.1,1.033h17.456s-.481-1.88-4-2.892c0,0,1.9-44.372-3.383-55.482Z" transform="translate(-648.185 -985.421)" fill-rule="evenodd"/>
              <path id="Path_744" data-name="Path 744" d="M1036.41,1188.719l1.854-18.706a.248.248,0,0,1,.5.014l.529,11.806Z" transform="translate(-1003.633 -1154.223)" fill="#707070" fill-rule="evenodd"/>
              <path id="Path_745" data-name="Path 745" d="M789.632,1493.85q0,.425,0,.844H773.677l-.05-.844Zm-44.131,0h20.778l-.353.844H745.218l0-.013c.09-.269.18-.536.27-.8Z" transform="translate(-737.026 -1450.925)" fill="#cbcbcb" fill-rule="evenodd"/>
            </g>
            <g id="Group_1284" data-name="Group 1284" transform="translate(15.624)">
              <g id="Group_1283" data-name="Group 1283" transform="translate(10.099)">
                <circle id="Ellipse_90" data-name="Ellipse 90" cx="5.517" cy="5.517" r="5.517" fill="#cbcbcb"/>
              </g>
              <path id="Path_746" data-name="Path 746" d="M957.979,548.287a7.306,7.306,0,0,1-1.415,6.466,1.271,1.271,0,0,0-1.083-.6,1.247,1.247,0,1,0,0,2.494,1.286,1.286,0,0,0,.349-.048,2.5,2.5,0,0,1-.629,1.695,5.517,5.517,0,0,1,2.779-10.006Z" transform="translate(-942.769 -548.272)" fill-rule="evenodd"/>
              <path id="Path_747" data-name="Path 747" d="M844.324,646.524a3.119,3.119,0,0,1-.732.114c-.589.118-1.175.255-1.759.4a27.806,27.806,0,0,0-5.266,1.779,5.861,5.861,0,0,0-3.086,2.6,2.4,2.4,0,0,0,2.6,3.369c1.877-.169,3.35-1.529,4.6-2.808a31.412,31.412,0,0,0,4.256-4.894" transform="translate(-833.242 -638.215)" fill-rule="evenodd"/>
            </g>
            <g id="Group_1285" data-name="Group 1285" transform="translate(3.256 12.52)">
              <path id="Path_748" data-name="Path 748" d="M703.759,704.6c-.934.995-9.148,9.976-15.321,16.9a6.743,6.743,0,0,0-.453,8.357h0a6.216,6.216,0,0,0,7.059,2.3c2.821-.951,6.674-3.146,11.157-8.064,2.277-2.5,4.088-4.779,5.582-6.176,0,0,6.554,2.109,9.926-1.506,0,0,8.23,10.516,16.195,14.708a6.71,6.71,0,0,0,8.854-2.508,4.8,4.8,0,0,0,.25-4.939c-4.181-8.054-10.746-14.148-20.78-23.8-1.948-1.873-5.353-4.549-11.95-3.022C711.792,697.434,708.763,699.264,703.759,704.6Z" transform="translate(-686.748 -696.406)" fill="#cbcbcb" fill-rule="evenodd"/>
              <path id="Path_749" data-name="Path 749" d="M1024.593,864.085a1.545,1.545,0,0,1,.471-.033.688.688,0,0,1,.6.368c.177.366-.09.668-.5.976a17.841,17.841,0,0,1-3.565,1.7.338.338,0,1,0,.254.625,18.557,18.557,0,0,0,3.719-1.785c.719-.546,1.009-1.161.7-1.808a1.342,1.342,0,0,0-1.151-.747,2.247,2.247,0,0,0-.7.052.338.338,0,1,0,.172.653Z" transform="translate(-993.142 -849.275)" fill="#706f70" fill-rule="evenodd"/>
              <path id="Path_750" data-name="Path 750" d="M1027.229,836.641a5.242,5.242,0,0,1,.949-.7,2.374,2.374,0,0,1,1.135-.361.546.546,0,0,1,.541.629,2.666,2.666,0,0,1-.713,1.385c-.641.676-2.263,2.716-7.428,3.37a.338.338,0,0,0,.085.67c5.451-.691,7.156-2.862,7.833-3.576a3.337,3.337,0,0,0,.889-1.741,1.222,1.222,0,0,0-1.2-1.414,3.066,3.066,0,0,0-1.471.449,5.943,5.943,0,0,0-1.087.8.338.338,0,1,0,.471.484Z" transform="translate(-993.162 -823.212)" fill="#707070" fill-rule="evenodd"/>
              <path id="Path_751" data-name="Path 751" d="M1080.928,879.375a11.87,11.87,0,0,1-1.72,3.062.338.338,0,0,0,.478.478,13.042,13.042,0,0,0,1.87-3.291.338.338,0,0,0-.628-.249Z" transform="translate(-1045.984 -863.733)" fill="#706f70" fill-rule="evenodd"/>
              <path id="Path_753" data-name="Path 753" d="M1088.44,747.493a1.625,1.625,0,0,0-.794.84,2.13,2.13,0,0,0,.082,1.653c.341.85,1.218,3.368.026,5.305a.338.338,0,1,0,.575.354c1.329-2.159.405-4.963.025-5.911a1.509,1.509,0,0,1-.084-1.144.947.947,0,0,1,.436-.477.338.338,0,1,0-.265-.621Z" transform="translate(-1053.682 -743.155)" fill="#706f70" fill-rule="evenodd"/>
              <path id="Path_754" data-name="Path 754" d="M708.614,721.368c-.742.853-1.543,1.776-2.413,2.729-4.483,4.918-8.336,7.113-11.157,8.064a6.216,6.216,0,0,1-7.059-2.3h0a6.743,6.743,0,0,1,.453-8.357c6.172-6.929,14.387-15.909,15.321-16.9,5-5.331,8.033-7.162,10.518-7.737,6.6-1.527,10,1.149,11.95,3.022,10.034,9.648,16.6,15.742,20.78,23.8a4.8,4.8,0,0,1-.25,4.939,6.713,6.713,0,0,1-6.976,3.155L737.5,730.9a42.263,42.263,0,0,1-7.949-6.024c-1.385-1.439-2.334-2.534-2.334-2.534l4.035-9.964-6.5-4.608a14.906,14.906,0,0,0-.965-4.339,7.658,7.658,0,0,0-.6-1.05c-1.134-1.691-1.848-.684-1.848-.684A3.553,3.553,0,0,0,720,700.614a.617.617,0,0,0-.836.461,1.859,1.859,0,0,0,.343,1.182,1.3,1.3,0,0,0,.156.2,6.411,6.411,0,0,1,1.432,7.027,6.088,6.088,0,0,1-4.407,1.9,5.669,5.669,0,0,1-4.1-1.051,4.236,4.236,0,0,0-3.876-.714,23.462,23.462,0,0,0-6.753,4.118Z" transform="translate(-686.748 -696.406)" fill-rule="evenodd"/>
              <path id="Path_755" data-name="Path 755" d="M983.387,911.131l3.311-3.7s3.989,1.821,5.253.4l1.6,2.112c-.165-.2-.251-.314-.251-.314C990.006,913.158,983.663,911.218,983.387,911.131Z" transform="translate(-958.343 -889.613)" fill="#707070" fill-rule="evenodd"/>
              <path id="Path_756" data-name="Path 756" d="M758.68,828.078c-.468.371-.743.613-.743.613l.545.625-9.9,8.207a.422.422,0,0,1-.539-.65l10.532-8.731A.421.421,0,0,1,758.68,828.078ZM786.744,827a.422.422,0,0,1,.25.1l9.641,8.354a.422.422,0,0,1-.553.638l-9.175-7.95.323-.8Zm-27.1.351a19.983,19.983,0,0,1,.573-3.795.3.3,0,0,1,.583.014c.208.77.492,1.83.684,2.544C760.8,826.525,760.173,826.957,759.641,827.346Zm23.269-3.07.453-2.154a.2.2,0,0,1,.366-.06,11.149,11.149,0,0,1,.827,3.382Z" transform="translate(-742.729 -811.363)" fill="#707070" fill-rule="evenodd"/>
            </g>
          </g>
        </g>
        <g id="HOLD-COIN" transform="translate(27.54 17.077)">
          <g id="Group_1287" data-name="Group 1287" transform="translate(0 0)">
            <path id="Path_761" data-name="Path 761" d="M5.362,0a5.326,5.326,0,0,1,5.362,5.289,5.326,5.326,0,0,1-5.362,5.289A5.326,5.326,0,0,1,0,5.289,5.326,5.326,0,0,1,5.362,0Z" transform="translate(0)" fill="#0005d8"/>
          </g>
          <g id="Group_1288" data-name="Group 1288" transform="translate(0.858 0.823)">
            <ellipse id="Ellipse_92" data-name="Ellipse 92" cx="4.494" cy="4.432" rx="4.494" ry="4.432" transform="translate(0 0)" fill="#cbcbcb"/>
          </g>
          <g id="Group_1291" data-name="Group 1291" transform="matrix(0.936, 0.353, -0.353, 0.936, 4.385, 1.115)">
            <g id="Group_1289" data-name="Group 1289" transform="translate(0 0.673)">
              <path id="Path_757" data-name="Path 757" d="M1.566,5.023a2.645,2.645,0,0,0,1.778-.138c.7-.316.942-.716.736-1.209a.792.792,0,0,0-1.034-.411c-.234.066-.484.139-.759.214a1.991,1.991,0,0,1-1.3-.045A1.558,1.558,0,0,1,.17,2.608,1.549,1.549,0,0,1,.132,1.278a2,2,0,0,1,1.1-1A3.381,3.381,0,0,1,3.237.068L3.083.934a2.737,2.737,0,0,0-1.526.172,1.09,1.09,0,0,0-.546.463.756.756,0,0,0-.012.7.657.657,0,0,0,.373.34,1.2,1.2,0,0,0,.7.007c.155-.041.374-.1.646-.183a1.863,1.863,0,0,1,1.37.048,1.691,1.691,0,0,1,.809.84c.439,1.029.035,1.824-1.2,2.38a3.431,3.431,0,0,1-2.4.168Z" transform="translate(0 0)" fill="#0005d8"/>
            </g>
            <g id="Group_1290" data-name="Group 1290" transform="translate(0.848 0)">
              <path id="Path_758" data-name="Path 758" d="M0,.307l2.451,6.93.958-.362L.813,0Z" transform="translate(0 0)" fill="#0005d8" fill-rule="evenodd"/>
            </g>
          </g>
        </g>
        <g id="SMALL-COINS-PILE" transform="translate(11.022 82.719)">
          <path id="Path_759" data-name="Path 759" d="M779.633,1532.242a1.093,1.093,0,0,1-.9-1.075v-2.185a1.093,1.093,0,0,1,1.092-1.092H792.1a1.093,1.093,0,0,1,1.092,1.092v2.185a1.093,1.093,0,0,0,0,2.15v2.185a1.092,1.092,0,0,0,0,2.15v2.185a1.092,1.092,0,0,0,0,2.149v2.185a1.093,1.093,0,0,1-1.092,1.093H779.828a1.093,1.093,0,0,1-1.092-1.093v-2.185a1.092,1.092,0,0,0,0-2.149v-2.185a1.092,1.092,0,0,0,0-2.15v-2.185A1.1,1.1,0,0,1,779.633,1532.242Z" transform="translate(-778.736 -1527.89)" fill="#cbcbcb" fill-rule="evenodd"/>
          <path id="Path_760" data-name="Path 760" d="M790.529,1527.89v3.5h2.834l.04,0a1.1,1.1,0,0,1-.816.843h-.022v0l-.037.007.037.008v3.47h.8l.041,0a1.094,1.094,0,0,1-.812.843h-.9v3.49h1.675a.323.323,0,0,1,.041,0,1.1,1.1,0,0,1-.809.843h-2.239v4.366h-.844V1540.9h-.8v4.366h-.844V1540.9H782.26v4.366h-.844V1540.9H779.8a1.1,1.1,0,0,1-.81-.844h5.3v-3.49H779.8a1.093,1.093,0,0,1-.813-.844h1.216v-3.489h-.4a1.1,1.1,0,0,1-.816-.844h3.546v-3.5h.844v3.5h4.589v-3.5h.844v3.5h.87v-3.5Zm-5.389,8.674v3.49h.638v-3.49Zm1.482,0v3.49h4.221v-3.49Zm-5.571-4.333v3.489h6.294v-3.489Zm7.139,0v3.489h3.531v-3.489Z" transform="translate(-778.97 -1527.89)" fill-rule="evenodd"/>
        </g>
      </g>
    </g>
  </g>
</svg>
