<svg xmlns="http://www.w3.org/2000/svg" width="27.439" height="27.59" viewBox="0 0 27.439 27.59">
  <g id="Group_694" data-name="Group 694" transform="translate(0.154)">
    <g id="Group_89" data-name="Group 89" transform="translate(0 0)">
      <g id="Group_406" data-name="Group 406" transform="translate(0 0)">
        <g id="Group_366" data-name="Group 366" transform="translate(0)">
          <g id="Group_364" data-name="Group 364" transform="translate(0)">
            <g id="Group_365" data-name="Group 365" transform="translate(15.856)">
              <path id="path44" d="M7.918,2.3,3.965,0,0,2.276l3.953,2.3L7.918,2.3" transform="translate(0 3.959) rotate(-30)" fill="#0b012f"/>
              <path id="path48" d="M.011,0,0,4.572l3.953,2.3L3.964,2.3.011,0" transform="translate(1.128 5.935) rotate(-30)" fill="#6f679a"/>
              <path id="path46" d="M.011,2.276,0,6.848,3.964,4.571,3.975,0,.011,2.276" transform="translate(4.562 3.978) rotate(-30)" fill="#0005d9"/>
            </g>
            <g id="Group_8" data-name="Group 8" transform="translate(13.553 3.957)">
              <path id="path44-2" data-name="path44" d="M7.918,2.3,3.965,0,0,2.276l3.953,2.3L7.918,2.3" transform="translate(0 3.959) rotate(-30)" fill="#0b012f"/>
              <path id="path48-2" data-name="path48" d="M.011,0,0,4.572l3.953,2.3L3.964,2.3.011,0" transform="translate(1.128 5.935) rotate(-30)" fill="#6f679a"/>
              <path id="path46-2" data-name="path46" d="M.011,2.276,0,6.848,3.964,4.571,3.975,0,.011,2.276" transform="translate(4.562 3.978) rotate(-30)" fill="#0005d9"/>
            </g>
            <g id="Group_9" data-name="Group 9" transform="translate(11.267 7.896)">
              <path id="path44-3" data-name="path44" d="M7.918,2.3,3.965,0,0,2.276l3.953,2.3L7.918,2.3" transform="translate(0 3.959) rotate(-30)" fill="#0b012f"/>
              <path id="path48-3" data-name="path48" d="M.011,0,0,4.572l3.953,2.3L3.964,2.3.011,0" transform="translate(1.128 5.935) rotate(-30)" fill="#e9e9e9"/>
              <path id="path46-3" data-name="path46" d="M.011,2.276,0,6.848,3.964,4.571,3.975,0,.011,2.276" transform="translate(4.562 3.978) rotate(-30)" fill="#0005d9"/>
            </g>
            <g id="Group_7" data-name="Group 7" transform="translate(9.014 11.802)">
              <path id="path44-4" data-name="path44" d="M7.918,2.3,3.965,0,0,2.276l3.953,2.3L7.918,2.3" transform="translate(0 3.959) rotate(-30)" fill="#0b012f"/>
              <path id="path48-4" data-name="path48" d="M.011,0,0,4.572l3.953,2.3L3.964,2.3.011,0" transform="translate(1.128 5.935) rotate(-30)" fill="#6f679a"/>
              <path id="path46-4" data-name="path46" d="M.011,2.276,0,6.848,3.964,4.571,3.975,0,.011,2.276" transform="translate(4.562 3.978) rotate(-30)" fill="#0005d9"/>
            </g>
            <g id="Group_6" data-name="Group 6" transform="translate(6.76 15.708)">
              <path id="path44-5" data-name="path44" d="M7.918,2.3,3.965,0,0,2.276l3.953,2.3L7.918,2.3" transform="translate(0 3.959) rotate(-30)" fill="#9292ac"/>
              <path id="path48-5" data-name="path48" d="M.011,0,0,4.572l3.953,2.3L3.964,2.3.011,0" transform="translate(1.128 5.935) rotate(-30)" fill="#0b012f"/>
              <path id="path46-5" data-name="path46" d="M.011,2.276,0,6.848,3.964,4.571,3.975,0,.011,2.276" transform="translate(4.562 3.978) rotate(-30)" fill="#0005d9"/>
            </g>
            <g id="Group_5" data-name="Group 5" transform="translate(4.507 11.802)">
              <path id="path44-6" data-name="path44" d="M7.918,2.3,3.965,0,0,2.276l3.953,2.3L7.918,2.3" transform="translate(0 3.959) rotate(-30)" fill="#9292ac"/>
              <path id="path48-6" data-name="path48" d="M.011,0,0,4.572l3.953,2.3L3.964,2.3.011,0" transform="translate(1.128 5.935) rotate(-30)" fill="#0b012f"/>
              <path id="path46-6" data-name="path46" d="M.011,2.276,0,6.848,3.964,4.571,3.975,0,.011,2.276" transform="translate(4.562 3.978) rotate(-30)" fill="#0005d9"/>
            </g>
            <g id="Group_4" data-name="Group 4" transform="translate(2.253 7.896)">
              <path id="path44-7" data-name="path44" d="M7.918,2.3,3.965,0,0,2.276l3.953,2.3L7.918,2.3" transform="translate(0 3.959) rotate(-30)" fill="#0b012f"/>
              <path id="path48-7" data-name="path48" d="M.011,0,0,4.572l3.953,2.3L3.964,2.3.011,0" transform="translate(1.128 5.935) rotate(-30)" fill="#e9e9e9"/>
              <path id="path46-7" data-name="path46" d="M.011,2.276,0,6.848,3.964,4.571,3.975,0,.011,2.276" transform="translate(4.562 3.978) rotate(-30)" fill="#0005d9"/>
            </g>
            <g id="Group_3" data-name="Group 3" transform="translate(0 11.802)">
              <path id="path44-8" data-name="path44" d="M7.918,2.3,3.965,0,0,2.276l3.953,2.3L7.918,2.3" transform="translate(0 3.959) rotate(-30)" fill="#0b012f" stroke="#707070" stroke-width="0.133"/>
              <path id="path48-8" data-name="path48" d="M.011,0,0,4.572l3.953,2.3L3.964,2.3.011,0" transform="translate(1.128 5.935) rotate(-30)" fill="#0005d9"/>
              <path id="path46-8" data-name="path46" d="M.011,2.276,0,6.848,3.964,4.571,3.975,0,.011,2.276" transform="translate(4.562 3.978) rotate(-30)" fill="#0005d9"/>
            </g>
          </g>
        </g>
      </g>
    </g>
  </g>
</svg>
