<svg xmlns="http://www.w3.org/2000/svg" width="207.154" height="46.861" viewBox="0 0 207.154 46.861">
  <g id="Group_89" data-name="Group 89" transform="translate(0.154)">
    <g id="Group_406" data-name="Group 406" transform="translate(0 0)">
      <g id="Group_363" data-name="Group 363" transform="translate(47.458 7.547)">
        <g id="Group_359" data-name="Group 359" transform="translate(0 0)">
          <g id="Group_352" data-name="Group 352" transform="translate(0 0)">
            <text id="Stocksignal" transform="translate(0 31)" fill="#0b012f" font-size="29" font-family="SegoeUI-Bold, Segoe UI" letter-spacing="-0.05em" font-weight="700"><tspan x="0" y="0">Stock</tspan><tspan y="0" font-family="SegoeUI, Segoe UI" font-weight="400">signal</tspan></text>
          </g>
        </g>
        <g id="Group_362" data-name="Group 362" transform="translate(94.943 5.695)">
          <path id="path44" d="M4.783,1.387,2.4,0,0,1.375,2.388,2.762,4.783,1.387" transform="translate(0 2.392) rotate(-30)" fill="#0b012f" stroke="#707070" stroke-width="0.133"/>
          <path id="path48" d="M.007,0,0,2.762,2.388,4.149l.007-2.762L.007,0" transform="translate(0.682 3.586) rotate(-30)" fill="#1210d8"/>
          <path id="path46" d="M.007,1.375,0,4.137,2.395,2.762,2.4,0,.007,1.375" transform="translate(2.756 2.403) rotate(-30)" fill="#1210d8"/>
        </g>
      </g>
      <g id="Group_366" data-name="Group 366">
        <g id="Group_364" data-name="Group 364" transform="translate(0)">
          <g id="Group_365" data-name="Group 365" transform="translate(26.931)">
            <path id="path44-2" data-name="path44" d="M13.448,3.9,6.734,0,0,3.866l6.715,3.9L13.448,3.9" transform="translate(0 6.724) rotate(-30)" fill="#0b012f"/>
            <path id="path48-2" data-name="path48" d="M.019,0,0,7.765l6.715,3.9L6.733,3.9.019,0" transform="translate(1.917 10.081) rotate(-30)" fill="#6f679a"/>
            <path id="path46-2" data-name="path46" d="M.019,3.865,0,11.63,6.733,7.764,6.752,0,.019,3.865" transform="translate(7.748 6.757) rotate(-30)" fill="#0005d9"/>
          </g>
          <g id="Group_8" data-name="Group 8" transform="translate(23.019 6.721)">
            <path id="path44-3" data-name="path44" d="M13.448,3.9,6.734,0,0,3.866l6.715,3.9L13.448,3.9" transform="translate(0 6.724) rotate(-30)" fill="#0b012f"/>
            <path id="path48-3" data-name="path48" d="M.019,0,0,7.765l6.715,3.9L6.733,3.9.019,0" transform="translate(1.917 10.081) rotate(-30)" fill="#6f679a"/>
            <path id="path46-3" data-name="path46" d="M.019,3.865,0,11.63,6.733,7.764,6.752,0,.019,3.865" transform="translate(7.748 6.757) rotate(-30)" fill="#0005d9"/>
          </g>
          <g id="Group_9" data-name="Group 9" transform="translate(19.137 13.41)">
            <path id="path44-4" data-name="path44" d="M13.448,3.9,6.734,0,0,3.866l6.715,3.9L13.448,3.9" transform="translate(0 6.724) rotate(-30)" fill="#0b012f"/>
            <path id="path48-4" data-name="path48" d="M.019,0,0,7.765l6.715,3.9L6.733,3.9.019,0" transform="translate(1.917 10.081) rotate(-30)" fill="#e9e9e9"/>
            <path id="path46-4" data-name="path46" d="M.019,3.865,0,11.63,6.733,7.764,6.752,0,.019,3.865" transform="translate(7.748 6.757) rotate(-30)" fill="#0005d9"/>
          </g>
          <g id="Group_7" data-name="Group 7" transform="translate(15.31 20.044)">
            <path id="path44-5" data-name="path44" d="M13.448,3.9,6.734,0,0,3.866l6.715,3.9L13.448,3.9" transform="translate(0 6.724) rotate(-30)" fill="#0b012f"/>
            <path id="path48-5" data-name="path48" d="M.019,0,0,7.765l6.715,3.9L6.733,3.9.019,0" transform="translate(1.917 10.081) rotate(-30)" fill="#6f679a"/>
            <path id="path46-5" data-name="path46" d="M.019,3.865,0,11.63,6.733,7.764,6.752,0,.019,3.865" transform="translate(7.748 6.757) rotate(-30)" fill="#0005d9"/>
          </g>
          <g id="Group_6" data-name="Group 6" transform="translate(11.482 26.678)">
            <path id="path44-6" data-name="path44" d="M13.448,3.9,6.734,0,0,3.866l6.715,3.9L13.448,3.9" transform="translate(0 6.724) rotate(-30)" fill="#9292ac"/>
            <path id="path48-6" data-name="path48" d="M.019,0,0,7.765l6.715,3.9L6.733,3.9.019,0" transform="translate(1.917 10.081) rotate(-30)" fill="#0b012f"/>
            <path id="path46-6" data-name="path46" d="M.019,3.865,0,11.63,6.733,7.764,6.752,0,.019,3.865" transform="translate(7.748 6.757) rotate(-30)" fill="#0005d9"/>
          </g>
          <g id="Group_5" data-name="Group 5" transform="translate(7.655 20.044)">
            <path id="path44-7" data-name="path44" d="M13.448,3.9,6.734,0,0,3.866l6.715,3.9L13.448,3.9" transform="translate(0 6.724) rotate(-30)" fill="#9292ac"/>
            <path id="path48-7" data-name="path48" d="M.019,0,0,7.765l6.715,3.9L6.733,3.9.019,0" transform="translate(1.917 10.081) rotate(-30)" fill="#0b012f"/>
            <path id="path46-7" data-name="path46" d="M.019,3.865,0,11.63,6.733,7.764,6.752,0,.019,3.865" transform="translate(7.748 6.757) rotate(-30)" fill="#0005d9"/>
          </g>
          <g id="Group_4" data-name="Group 4" transform="translate(3.827 13.41)">
            <path id="path44-8" data-name="path44" d="M13.448,3.9,6.734,0,0,3.866l6.715,3.9L13.448,3.9" transform="translate(0 6.724) rotate(-30)" fill="#0b012f"/>
            <path id="path48-8" data-name="path48" d="M.019,0,0,7.765l6.715,3.9L6.733,3.9.019,0" transform="translate(1.917 10.081) rotate(-30)" fill="#e9e9e9"/>
            <path id="path46-8" data-name="path46" d="M.019,3.865,0,11.63,6.733,7.764,6.752,0,.019,3.865" transform="translate(7.748 6.757) rotate(-30)" fill="#0005d9"/>
          </g>
          <g id="Group_3" data-name="Group 3" transform="translate(0 20.044)">
            <path id="path44-9" data-name="path44" d="M13.448,3.9,6.734,0,0,3.866l6.715,3.9L13.448,3.9" transform="translate(0 6.724) rotate(-30)" fill="#0b012f" stroke="#707070" stroke-width="0.133"/>
            <path id="path48-9" data-name="path48" d="M.019,0,0,7.765l6.715,3.9L6.733,3.9.019,0" transform="translate(1.917 10.081) rotate(-30)" fill="#0005d9"/>
            <path id="path46-9" data-name="path46" d="M.019,3.865,0,11.63,6.733,7.764,6.752,0,.019,3.865" transform="translate(7.748 6.757) rotate(-30)" fill="#0005d9"/>
          </g>
        </g>
      </g>
      <path id="original" d="M1.634,0A1.634,1.634,0,1,0,3.269,1.634,1.636,1.636,0,0,0,1.634,0Zm0,2.819A1.185,1.185,0,1,1,2.819,1.634,1.186,1.186,0,0,1,1.634,2.819Zm.594-1.4a.531.531,0,0,0-.6-.535H1.072V2.382h.317V1.965h.279l.3.418h.392l-.371-.509A.509.509,0,0,0,2.228,1.422Zm-.6.227H1.388V1.2h.236c.288,0,.288.164.288.218S1.912,1.649,1.624,1.649Z" transform="translate(203.731 16.778)" fill="#0a041f"/>
    </g>
  </g>
</svg>
