<svg id="Group_1558" data-name="Group 1558" xmlns="http://www.w3.org/2000/svg" width="375" height="345.5" viewBox="0 0 375 345.5">
  <path id="Path_937" data-name="Path 937" d="M-22.1,0h375V263.457H97.346L-22.1,345.5Z" transform="translate(22.102)" fill="#f2f2f2"/>
  <g id="_1_-_REBUILD_THE_ECONOMY" data-name="1 - REBUILD THE ECONOMY" transform="translate(-924.558 -281.313)">
    <g id="_1---REBUILD-THE-ECONOMY" transform="translate(1051.217 467.454)">
      <g id="ARROW" transform="translate(0 48.705)">
        <path id="Path_709" data-name="Path 709" d="M435.037,934.41l.765-1.963,5.152,6.651-8.2,1.184.807-2.072-44.689-18.651-4.138,7.41-7.551-3.885-15.312,39.594-10.34-5.193c-2.2,3.708-4.021,6.931-5.461,9.031l-3.264-2.354c1.609-2.346,3.7-6.126,6.272-10.407l.95-1.582,9.725,4.884,15.328-39.634,8.068,4.151,4-7.156Z" transform="translate(-342.801 -914.42)" fill="#0005d9" fill-rule="evenodd"/>
      </g>
      <path id="ROPE" d="M279.474,445.529l-.805-40.147-32.224-7.022c-9.532-2.136.234-1.054.231-1.054l33.055,7.2.827,41.223.715-.927a.295.295,0,1,1,.467.36l-1.162,1.509.1,4.747a.54.54,0,1,1-1.079.022l-.1-4.937-1.057-1.338a.295.295,0,1,1,.462-.366Z" transform="translate(-190.129 -378.929)" fill="#0005d9" fill-rule="evenodd"/>
      <g id="YELLOW-CHARACTER" transform="translate(43.291 0)">
        <path id="Path_718" data-name="Path 718" d="M1096.242,390c.061.057-2.918,4.033-8.416,1.914-1-.386-5.629-3.718-2.4-9.907.865-1.655,4.617-6.529,12.971-3.526a23.771,23.771,0,0,1,5.971,3.526c1.186.879,10.336,8.9,15.531,10.965,1.034.412,1.206.534,2.127.976.26.125.511.605-.484.818,0,0,.982-.049.565.679l-1.027,1.408a1.047,1.047,0,0,1-.877.43,1.5,1.5,0,0,1-.8-.18s-.69,1-2.188.225c0,0-.638,1.524-3.613-.225a20.955,20.955,0,0,0-3.214-1.57v1.57l26.36,11.233a7.155,7.155,0,0,1,2.413,0l-8.535,8.021-20.967-5.429V414.8s1.754.563,1.96,1.55h-13.822v-6.4s-13.158,1.222-10.734-9.287c.231-1,3.446-8.312,10.734-9.891Z" transform="translate(-1075.94 -368.741)" fill-rule="evenodd"/>
        <path id="Path_719" data-name="Path 719" d="M1141.737,534.82h0l15.043,5.586,3.141-5.256.548.233-3.234,5.411a.292.292,0,0,1-.142.239l-2.235,3.74-.6-.154,2.21-3.7-14.77-5.485h0l.018-.3Zm-23.8-2.536a2.294,2.294,0,0,0,1.705,1.85,5.286,5.286,0,0,0,3.358-1.063,11.041,11.041,0,0,0,2.924-2.791,32.891,32.891,0,0,1,2.659-3.24,4.964,4.964,0,0,1,1.85-1.216,2.157,2.157,0,0,1,1.554.045,3.594,3.594,0,0,1,1.593,1.592,7.842,7.842,0,0,1,.925,3.138c.226,4.014.125,7.706.047,11.7l6.221.018v.59l-11.862-.034v-.59l5.051.014c.077-3.985.179-7.666-.047-11.668a7.2,7.2,0,0,0-.85-2.882,3,3,0,0,0-1.315-1.341,1.723,1.723,0,0,0-1.432.091,4.811,4.811,0,0,0-1.321.959,32.264,32.264,0,0,0-2.609,3.184,11.631,11.631,0,0,1-3.083,2.931,5.909,5.909,0,0,1-3.773,1.139,2.552,2.552,0,0,1-1.646-1.11A9,9,0,0,1,1117.942,532.285Zm23.567-4.981.541.231-.342,7.761-.367,5.979-.562-.145v.75a.3.3,0,0,1-.054-.191s.774-11.7.776-15.088v-.024c0-.032,0-.063.006-.094Zm-13.42-6.736c.219-.042.575-.106,1.03-.178l-2.068-1.781a.295.295,0,1,1,.385-.447l2.361,2.033a.294.294,0,0,1,.068.084,31.918,31.918,0,0,1,4.124-.314c2.115-.007,4.248.292,5.5,1.244a6.12,6.12,0,0,1,2.623,4.766c-.2-.085-.4-.165-.6-.242v.014a5.578,5.578,0,0,0-2.38-4.069c-1.165-.888-3.164-1.13-5.138-1.123a33.887,33.887,0,0,0-5.675.57q.3-.079.6-.146Zm13.613,14.869.006-.141.03-.475-.018.311Z" transform="translate(-1107.05 -498.945)" fill="#cbcbcb" fill-rule="evenodd"/>
        <path id="Path_720" data-name="Path 720" d="M1504.833,605.321l-1.517-1a.295.295,0,1,1,.325-.492l1.805,1.194c-.073-.031-.148-.067-.226-.107A.988.988,0,0,1,1504.833,605.321Zm2.146-.277-2.178-1.49a.295.295,0,1,1,.333-.487l2.543,1.739a.693.693,0,0,1-.267-.118A1.272,1.272,0,0,1,1506.979,605.044Zm3.228-2.388a2.063,2.063,0,0,0-1.027-.05.5.5,0,0,0-.111.048l.183.172a.295.295,0,1,1-.4.43l-1.184-1.11a.295.295,0,1,1,.4-.431l.558.523a1.767,1.767,0,0,1,1.565-.189,1.121,1.121,0,0,1-.647.3S1510.143,602.322,1510.206,602.656Z" transform="translate(-1463.936 -576.329)" fill="#cbcbcb" fill-rule="evenodd"/>
        <path id="Path_721" data-name="Path 721" d="M1096.284,390.018l-.042-.021c.061.057-2.918,4.033-8.416,1.914-1-.386-5.629-3.718-2.4-9.907.865-1.655,4.617-6.529,12.971-3.526a18.737,18.737,0,0,1,4.02,2.152c.253,1.02.218,2.756-2.449,3.669,0,0,1.436,3.659-2.866,4.238A7.127,7.127,0,0,1,1096.284,390.018Z" transform="translate(-1075.94 -368.741)" fill-rule="evenodd"/>
        <path id="Path_722" data-name="Path 722" d="M1193.948,505l2.215-8.832a.184.184,0,0,1,.362.052l-.338,8.765A17.146,17.146,0,0,1,1193.948,505Zm.675-19.962a1.182,1.182,0,0,1-.168.153l-3.9-4.788a.176.176,0,0,1,.236-.255,46.063,46.063,0,0,1,4.638,3.464,5.487,5.487,0,0,1-.8,1.418l-.006,0S1194.625,485.035,1194.622,485.041Z" transform="translate(-1174.322 -463.774)" fill="#707070" fill-rule="evenodd"/>
        <path id="Path_723" data-name="Path 723" d="M1077.761,266.629c-.056.026.02-.122.022-.184,0-.115.006-.23.009-.345.008-.334-.005-.668,0-1,.005-.683-.145-2.625.655-2.959.4-.167.505.573.511.82.023.956-.641,1.686-.778,2.579-.007.044.031-.084.048-.126.036-.086.069-.172.106-.258.1-.242.21-.482.319-.722a11.275,11.275,0,0,1,1.189-2.234c.121-.158.475-.584.719-.4.363.277-.13,1.061-.29,1.327-.353.581-.81,1.091-1.192,1.652s-.7,1.2-1.094,1.759" transform="translate(-1069.865 -261.512)" fill="#cbcbcb" fill-rule="evenodd"/>
        <g id="Group_1268" data-name="Group 1268" transform="translate(0 0)">
          <g id="Group_1266" data-name="Group 1266" transform="translate(7.713 3.032)">
            <circle id="Ellipse_86" data-name="Ellipse 86" cx="3.175" cy="3.175" r="3.175" transform="translate(0 0)" fill="#cbcbcb"/>
          </g>
          <g id="Group_1267" data-name="Group 1267">
            <circle id="Ellipse_87" data-name="Ellipse 87" cx="4.049" cy="4.049" r="4.049"/>
          </g>
          <path id="Path_724" data-name="Path 724" d="M1076.232,304.744a3.175,3.175,0,0,1,3.768-4.89C1079.917,300.938,1079.327,303.065,1076.232,304.744Z" transform="translate(-1067.817 -296.546)" fill-rule="evenodd"/>
        </g>
      </g>
      <g id="GREEN-CHARACTER" transform="translate(41.923 50.395)">
        <g id="Group_1269" data-name="Group 1269" transform="translate(8.865)">
          <path id="Path_725" data-name="Path 725" d="M1074.523,943.849s-1.378-.211-.412-1.566c.278-.39,1.439-.92,2.127.69,0,0,1.279-.607,1.6,1,0,0,1.194-.578,1.6,1.045,0,0,1.212-.154,1.372,1.51.239,2.483.437,4.267.583,6.244a10.307,10.307,0,0,0,3.069,6.143,5.735,5.735,0,0,1,7.558-3.654l5.521,2.183s3.123-1.061,4.622,1.121c1.052-.795,2.748-2.208,3.209-2.634a.993.993,0,0,1,.936-.251.527.527,0,0,1,.1.778s.512-.428.932-.07c.163.139.3.423.081.92,0,0,.529-.484.917-.156a.682.682,0,0,1,.065.994s.572-.459.943-.1c.165.161.3.493-.675,1.713q-.4.5-.812.982a9.16,9.16,0,0,1-10.372,2.634c-2.352-.922-4.519-1.775-4.519-1.775s3,5.449,2.98,8.6c-.018,2.81-1.238,5.73-4.727,6.578a5.842,5.842,0,0,1-2.468.066c-2.285-.429-7.363-2.046-6.782-7.912a26.9,26.9,0,0,1-7.207-7.458,14.43,14.43,0,0,1-1.528-11.883A23.473,23.473,0,0,0,1074.523,943.849Z" transform="translate(-1072.599 -941.877)" fill="#cbcbcb" fill-rule="evenodd"/>
          <path id="Path_726" data-name="Path 726" d="M1497.627,1141.3s2.463-2.693,2.433-2.647a.976.976,0,0,1,.747-.215l-.008.01-2.843,3.149a.221.221,0,1,1-.328-.3Zm-1.113-.734s2.568-2.761,2.565-2.752.432-.4.8-.229l-3.042,3.281a.221.221,0,1,1-.325-.3Zm1.561-3.609a.833.833,0,0,1,.756-.165l-3.021,3.259a.221.221,0,0,1-.324-.3Z" transform="translate(-1464.248 -1122.382)" fill="#707070" fill-rule="evenodd"/>
          <path id="Path_727" data-name="Path 727" d="M1098.512,958.892a13.146,13.146,0,0,0,.134-1.425,1.115,1.115,0,0,1,.427.049,8.581,8.581,0,0,1-.128,1.464.221.221,0,1,1-.434-.088Zm-1.029-2.569a7.5,7.5,0,0,1-.043,1.857.221.221,0,1,1-.438-.062,7.127,7.127,0,0,0,.047-1.7A1.214,1.214,0,0,1,1097.483,956.323Zm-1.971,1.185a7.765,7.765,0,0,0-.072-2.088,1.372,1.372,0,0,1,.4-.1,6.315,6.315,0,0,1,.111,2.242.221.221,0,1,1-.44-.049Zm-2.182-1.356c.021-.332.028-.55.028-.55a.221.221,0,1,1,.442.014s-.059.87-.075.68A1.27,1.27,0,0,1,1093.33,956.152Z" transform="translate(-1091.801 -954.324)" fill="#707070" fill-rule="evenodd"/>
        </g>
        <g id="Group_1270" data-name="Group 1270" transform="translate(8.865 10.774)">
          <path id="Path_728" data-name="Path 728" d="M1081.39,1087.99l.009.123a10.308,10.308,0,0,0,3.069,6.143,5.734,5.734,0,0,1,7.557-3.654l4.26,1.685,1.075,6.38c-2.3-.9-4.384-1.722-4.384-1.722s3,5.449,2.98,8.6c-.018,2.81-1.238,5.73-4.727,6.578a5.839,5.839,0,0,1-2.467.066c-2.285-.429-7.363-2.046-6.783-7.912a26.9,26.9,0,0,1-7.207-7.458,14.434,14.434,0,0,1-2.136-8.66Z" transform="translate(-1072.599 -1087.99)" fill-rule="evenodd"/>
          <path id="Path_729" data-name="Path 729" d="M1199.244,1174.223s2.54,1.525,4.626,2.5a.211.211,0,0,1-.1.406,15.137,15.137,0,0,1-4.5-.875A8.257,8.257,0,0,1,1199.244,1174.223Zm9.612-4.391c-5.583-3.764-7.389-5.864-7.125-5.634a5.142,5.142,0,0,1,.287-.7,50.512,50.512,0,0,0,7.25,5.72,11.112,11.112,0,0,1,3.446,3.429,10.127,10.127,0,0,1,.506,2.842,9.143,9.143,0,0,1-.1,1.337.361.361,0,0,1-.018-.118C1213.134,1172.538,1209.6,1170.33,1208.856,1169.832Zm2.442-.818c-.544-.637-1.532-1.814-2.111-2.5a.118.118,0,0,1,0-.151.116.116,0,0,1,.149-.024l.9.553C1210.263,1166.928,1210.736,1167.792,1211.3,1169.014Z" transform="translate(-1189.862 -1157.932)" fill="#cbcbcb" fill-rule="evenodd"/>
        </g>
        <g id="Group_1272" data-name="Group 1272" transform="translate(33.684 24.369)">
          <g id="Group_1271" data-name="Group 1271" transform="translate(0 0)">
            <circle id="Ellipse_88" data-name="Ellipse 88" cx="3.343" cy="3.343" r="3.343" fill="#cbcbcb"/>
          </g>
          <path id="Path_730" data-name="Path 730" d="M1419.646,1274.55a3.343,3.343,0,1,1-3.885,4.916l2.137-1.069a.9.9,0,0,0,.05.549.768.768,0,1,0,1.41-.59.894.894,0,0,0-.443-.468l1.205-.6Z" transform="translate(-1415.275 -1274.389)" fill-rule="evenodd"/>
        </g>
        <g id="Group_1273" data-name="Group 1273" transform="translate(0 26.696)">
          <path id="Path_731" data-name="Path 731" d="M974.665,1314.211l1.691-.425a8.13,8.13,0,0,1,9.029,3.821h0a6.354,6.354,0,0,1-.688,7.318l-1.274,1.482,2.422-.05a4.654,4.654,0,0,1,4.62,3.564c.044.195.091.389.142.583a6.573,6.573,0,0,0,2.451,3.6,2.305,2.305,0,0,1,.959,1.193l-30.374-.039a5.142,5.142,0,0,1-4.1-8.236h0s-7.462-7.643-7.151-16.543c.169-4.834,4.567-7.614,7.808-6.185C965.708,1306.722,970.2,1310.425,974.665,1314.211Z" transform="translate(-952.381 -1303.917)" fill-rule="evenodd"/>
          <path id="Path_732" data-name="Path 732" d="M1030.32,1455.488l-6.29-5.936a.283.283,0,0,0-.419.379l5.392,6.977Z" transform="translate(-1018.304 -1438.741)" fill="#cbcbcb" fill-rule="evenodd"/>
          <path id="Path_733" data-name="Path 733" d="M1063.052,1450.732l1.015-.021c-.493.428-1.174.992-2.024,1.626l.026,7.268h-.737l-.024-6.732a38.415,38.415,0,0,1-8.716,4.66.368.368,0,1,1-.257-.69,37.945,37.945,0,0,0,11.11-6.57Zm-9.226-12.592.469.4,1.012-.254c-1.6.669-12.411,5.463-16.958,14.692a5.124,5.124,0,0,1,.822-1.628h0s-.177-.181-.475-.521C1043.006,1443.813,1050.677,1439.633,1053.827,1438.14Z" transform="translate(-1032.011 -1428.243)" fill="#cbcbcb" fill-rule="evenodd"/>
        </g>
      </g>
      <g id="COIN-PILE" transform="translate(87.999 94.401)">
        <path id="Path_736" data-name="Path 736" d="M1578.217,1543.261a1.155,1.155,0,0,1-.962-1.138v-2.308a1.155,1.155,0,0,1,1.154-1.155H1594.9a1.155,1.155,0,0,1,1.155,1.155v2.308a1.154,1.154,0,0,0,0,2.276v2.308a1.154,1.154,0,0,0-.025,2.229v2.309a1.155,1.155,0,0,1-1.154,1.154h-16.493a1.155,1.155,0,0,1-1.154-1.154v-2.309a1.154,1.154,0,0,0,.024-2.229V1544.4A1.156,1.156,0,0,1,1578.217,1543.261Z" transform="translate(-1577.23 -1538.66)" fill="#cbcbcb" fill-rule="evenodd"/>
        <path id="Path_737" data-name="Path 737" d="M1595.353,1542.694h2.5a1.156,1.156,0,0,1-.811.567c.035.006.071.014.105.023h-.363v3.957h1.089a1.158,1.158,0,0,1-.737.585l.016.005h-1.924v4.569h-.59v-4.569h-5.6v4.569h-.59v-4.569h-4.773v4.569h-.59v-4.569h-.6v4.569h-.59v-4.569H1580l.041-.012a1.155,1.155,0,0,1-.712-.578h1.189v-3.957h-.463c.034-.009.069-.017.105-.023a1.155,1.155,0,0,1-.811-.567h3.222v-4.033h.59v4.033h1.262v-4.033h.59v4.033h2.97v-4.033h.59v4.033h6.188v-4.033h.59Zm-14.243.59v3.957h5.311v-3.957Zm5.9,0v3.957h3.386v-3.957Zm3.976,0v3.957h.873v-3.957Zm1.463,0v3.957h3.743v-3.957Z" transform="translate(-1579.175 -1538.66)" fill-rule="evenodd"/>
      </g>
      <g id="COIN-RIGHT" transform="translate(103.053 87.692)">
        <g id="Group_1275" data-name="Group 1275" transform="translate(0 0)">
          <path id="Path_738" data-name="Path 738" d="M1787.742,1453.913c3.132-1.051,7.291,1.573,9.544,6.145,2.29,4.649,1.783,9.633-1.082,11.4l.014.03-3.047,1.582q-.135.08-.277.15l-.12.057-.123.063,0-.008c-3.16,1.316-7.506-1.327-9.828-6.039-2.383-4.836-1.737-10.034,1.44-11.6,0,0,2.751-1.465,2.952-1.563a4.286,4.286,0,0,1,.476-.2l.051-.027Z" transform="translate(-1781.381 -1453.24)" fill="#cbcbcb" fill-rule="evenodd"/>
          <g id="Group_1274" data-name="Group 1274" transform="matrix(0.912, -0.411, 0.411, 0.912, 2.505, 4.3)">
            <ellipse id="Ellipse_89" data-name="Ellipse 89" cx="5.235" cy="8.008" rx="5.235" ry="8.008" fill="#cbcbcb"/>
          </g>
          <path id="Path_739" data-name="Path 739" d="M1789.13,1453.681h.045a4.96,4.96,0,0,0-1.23.416,5.6,5.6,0,0,0-2.774,3.371,11.858,11.858,0,0,0,6.785,13.771,5.6,5.6,0,0,0,4.363-.145,4.967,4.967,0,0,0,1.08-.723l-.011.013-.01.014-.01.013-.018.022-.009.013-.013.015-.009.011,0,0-.017.02-.009.012-.015.018-.005.007-.006.006-.015.019-.009.01-.02.023-.007.008-.016.019-.008.01-.02.023-.007.008-.017.018-.007.008-.021.024-.008.008-.018.019-.006.005-.022.024-.007.007-.021.022,0,0h0l-.022.022-.007.007-.023.023-.005,0-.021.02-.007.007-.024.023-.005.006-.022.019-.005.006-.025.023-.006.005-.022.021,0,0-.025.022-.007.006-.025.023h0l-.025.022-.007.005-.026.022,0,0-.024.02-.006,0-.026.022-.005,0-.023.019-.005,0-.028.021-.005,0-.025.019,0,0-.028.022-.006,0-.028.021-.029.02-.007.006-.028.02,0,0-.025.018-.007,0-.028.02-.005,0-.026.017-.005,0-.029.019-.006,0-.027.017,0,0-.03.018-.007,0-.029.019.014.03-1.23.639a6.112,6.112,0,0,1-1.534.043l-.008,0-2.7,1.492a5.636,5.636,0,0,1-.992-.124l2.759-1.528a7.8,7.8,0,0,1-.752-.218,9.43,9.43,0,0,1-2.546-1.375l-2.553,1.64q-.246-.183-.488-.387l2.553-1.64q-.284-.239-.559-.5l-2.615,1.578c-.143-.139-.284-.284-.423-.433l2.611-1.576a13.251,13.251,0,0,1-2.236-3.241q-.217-.44-.4-.885l-2.71,1.386c-.075-.184-.147-.369-.214-.553l2.711-1.387a12.564,12.564,0,0,1-.723-3.439l-2.772,1.161q-.02-.318-.02-.63l2.77-1.161a9.753,9.753,0,0,1,.312-2.572l-2.742,1.181a6.7,6.7,0,0,1,.272-.76l2.645-1.138.027.064a6.74,6.74,0,0,1,1.419-2.373s.858-.487,1.1-.611l.025-.013a4.244,4.244,0,0,1,.475-.2l.052-.027,0,.007.033-.011h.005l.033-.01.006,0,.032-.009,0,0,.032-.009h0l.033-.009.006,0,.032-.009h.005l.033-.009h0l.033-.009.006,0,.033-.008h0l.034-.008h0l.035-.009h0l.033-.007h.006l.034-.007h0l.034-.007h0l.034-.007h.006l.035-.006h0l.035-.006.036-.006h0l.036-.005h0l.036-.006.037-.005h0l.036-.005h0l.036,0h0l.036,0h0l.036,0h0l.034,0h.005l.036,0,.035,0h.006l.034,0h.007l.033,0h.028l.032,0h.054l.045,0h.094Z" transform="translate(-1781.38 -1453.238)" fill-rule="evenodd"/>
        </g>
        <g id="Group_1278" data-name="Group 1278" transform="translate(6.337 2.384)">
          <g id="Group_1276" data-name="Group 1276" transform="translate(0 1.319)">
            <path id="Path_740" data-name="Path 740" d="M1870.427,1506.627a4.45,4.45,0,0,0,3.073.058c1.185-.438,1.551-1.1,1.133-2.011a1.6,1.6,0,0,0-1.846-.9c-.4.077-.823.164-1.293.25a3.546,3.546,0,0,1-2.258-.3,3.459,3.459,0,0,1-1.527-1.6,2.841,2.841,0,0,1-.227-2.355,2.756,2.756,0,0,1,1.785-1.578,5.616,5.616,0,0,1,3.465-.033l-.163,1.5a4.527,4.527,0,0,0-2.631.044,1.5,1.5,0,0,0-.894.724,1.354,1.354,0,0,0,.063,1.228,1.45,1.45,0,0,0,.689.664,2.115,2.115,0,0,0,1.225.132c.265-.045.638-.113,1.1-.213a3.32,3.32,0,0,1,2.388.318,3.762,3.762,0,0,1,1.508,1.622c.888,1.892.281,3.229-1.8,4a5.791,5.791,0,0,1-4.154-.112Z" transform="translate(-1867.319 -1497.901)"/>
          </g>
          <g id="Group_1277" data-name="Group 1277" transform="translate(1.209)">
            <path id="Path_741" data-name="Path 741" d="M1883.71,1480.414l5.1,12.659,1.621-.476-5.341-12.587Z" transform="translate(-1883.71 -1480.01)" fill-rule="evenodd"/>
          </g>
        </g>
      </g>
    </g>
  </g>
</svg>
