<svg xmlns="http://www.w3.org/2000/svg" width="105.305" height="93.871" viewBox="0 0 105.305 93.871">
  <g id="_1_-_REBUILD_THE_ECONOMY" data-name="1 - REBUILD THE ECONOMY" transform="translate(-1051.217 -467.454)">
    <g id="_1---REBUILD-THE-ECONOMY" transform="translate(1035.838 467.454)">
      <g id="ARROW" transform="translate(15.38 42.15)">
        <path id="Path_709" data-name="Path 709" d="M422.624,931.719l.662-1.7,4.459,5.756-7.1,1.025.7-1.793-38.675-16.141-3.581,6.413-6.534-3.362L359.3,956.184l-8.949-4.495c-1.9,3.209-3.48,6-4.726,7.815l-2.825-2.037c1.392-2.03,3.2-5.3,5.428-9.006l.822-1.369,8.416,4.227,13.265-34.3,6.982,3.593,3.458-6.193Z" transform="translate(-342.801 -914.42)" fill="#0005d9" fill-rule="evenodd"/>
      </g>
      <path id="ROPE" d="M274.467,439l-.7-34.744-27.887-6.077c-8.249-1.848.2-.912.2-.912l28.606,6.234.715,35.675.618-.8a.255.255,0,1,1,.4.311l-1.006,1.306.082,4.108a.467.467,0,1,1-.934.019l-.086-4.272-.914-1.158a.255.255,0,1,1,.4-.317Z" transform="translate(-181.766 -381.365)" fill="#0005d9" fill-rule="evenodd"/>
      <g id="YELLOW-CHARACTER" transform="translate(52.844 0)">
        <path id="Path_718" data-name="Path 718" d="M1094.634,388.318c.053.049-2.525,3.49-7.283,1.656-.867-.334-4.872-3.218-2.073-8.574.749-1.432,4-5.65,11.225-3.051a20.575,20.575,0,0,1,5.167,3.051c1.027.761,8.945,7.7,13.441,9.49.9.356,1.043.462,1.841.845.225.108.442.524-.419.708,0,0,.85-.042.489.587l-.889,1.218a.906.906,0,0,1-.759.372,1.3,1.3,0,0,1-.688-.156s-.6.868-1.894.194c0,0-.552,1.319-3.126-.194a18.14,18.14,0,0,0-2.781-1.359v1.359l22.813,9.721a6.192,6.192,0,0,1,2.088,0l-7.387,6.942-18.145-4.7v3.357s1.518.487,1.7,1.341H1095.99v-5.539s-11.387,1.057-9.289-8.037c.2-.866,2.982-7.193,9.289-8.56Z" transform="translate(-1077.065 -369.923)" fill-rule="evenodd"/>
        <path id="Path_719" data-name="Path 719" d="M1138.527,532.569h0l13.018,4.834,2.718-4.549.474.2-2.8,4.683a.253.253,0,0,1-.123.207l-1.935,3.237-.515-.133,1.913-3.2L1138.5,533.1h0l.015-.264Zm-20.593-2.194a1.985,1.985,0,0,0,1.476,1.6,4.575,4.575,0,0,0,2.906-.92,9.557,9.557,0,0,0,2.531-2.415,28.472,28.472,0,0,1,2.3-2.8,4.3,4.3,0,0,1,1.6-1.053,1.867,1.867,0,0,1,1.345.039,3.11,3.11,0,0,1,1.378,1.378,6.785,6.785,0,0,1,.8,2.716c.2,3.474.109,6.669.041,10.128l5.384.015v.511l-10.265-.029v-.51l4.371.012c.067-3.449.155-6.634-.04-10.1a6.233,6.233,0,0,0-.736-2.494,2.6,2.6,0,0,0-1.138-1.16,1.491,1.491,0,0,0-1.239.079,4.163,4.163,0,0,0-1.143.83,27.923,27.923,0,0,0-2.258,2.756,10.065,10.065,0,0,1-2.668,2.537,5.113,5.113,0,0,1-3.265.986,2.209,2.209,0,0,1-1.425-.961A7.818,7.818,0,0,1,1117.934,530.374Zm20.4-4.311.469.2-.3,6.716-.317,5.174-.486-.126v.649a.255.255,0,0,1-.047-.165s.67-10.128.672-13.057v-.02l.006-.081Zm-11.614-5.83c.189-.036.5-.092.891-.154l-1.789-1.541a.255.255,0,1,1,.333-.387l2.043,1.76a.256.256,0,0,1,.059.073,27.612,27.612,0,0,1,3.569-.272,8.262,8.262,0,0,1,4.758,1.077,5.3,5.3,0,0,1,2.27,4.125c-.174-.073-.347-.143-.52-.209v.012a4.828,4.828,0,0,0-2.059-3.522,7.74,7.74,0,0,0-4.447-.972,29.333,29.333,0,0,0-4.912.493q.257-.069.521-.126ZM1138.5,533.1l.005-.122.026-.411-.015.269Z" transform="translate(-1108.508 -501.521)" fill="#cbcbcb" fill-rule="evenodd"/>
        <path id="Path_720" data-name="Path 720" d="M1504.611,604.825l-1.313-.868a.255.255,0,1,1,.281-.426l1.562,1.033c-.063-.027-.128-.058-.2-.092A.855.855,0,0,1,1504.611,604.825Zm1.857-.24-1.885-1.289a.255.255,0,1,1,.288-.421l2.2,1.505a.6.6,0,0,1-.231-.1A1.1,1.1,0,0,1,1506.468,604.585Zm2.793-2.067a1.787,1.787,0,0,0-.889-.044.434.434,0,0,0-.1.042l.158.149a.255.255,0,1,1-.349.372l-1.025-.961a.255.255,0,1,1,.349-.373l.483.453a1.529,1.529,0,0,1,1.354-.164.97.97,0,0,1-.56.262S1509.206,602.229,1509.261,602.518Z" transform="translate(-1469.218 -579.735)" fill="#cbcbcb" fill-rule="evenodd"/>
        <path id="Path_721" data-name="Path 721" d="M1094.671,388.336l-.036-.018c.053.049-2.525,3.49-7.283,1.656-.867-.334-4.872-3.218-2.073-8.574.749-1.432,4-5.65,11.225-3.051a16.214,16.214,0,0,1,3.479,1.862c.219.883.189,2.385-2.119,3.175,0,0,1.243,3.166-2.48,3.667A6.169,6.169,0,0,1,1094.671,388.336Z" transform="translate(-1077.065 -369.923)" fill-rule="evenodd"/>
        <path id="Path_722" data-name="Path 722" d="M1193.485,501.654l1.917-7.644a.159.159,0,0,1,.313.045l-.292,7.585A14.837,14.837,0,0,1,1193.485,501.654Zm.584-17.275a1.023,1.023,0,0,1-.146.132l-3.376-4.143a.152.152,0,0,1,.2-.221,39.858,39.858,0,0,1,4.014,3,4.747,4.747,0,0,1-.69,1.227l-.005,0S1194.071,484.374,1194.069,484.379Z" transform="translate(-1176.501 -465.974)" fill="#707070" fill-rule="evenodd"/>
        <path id="Path_723" data-name="Path 723" d="M1077.759,265.973c-.049.022.017-.106.019-.159,0-.1.005-.2.008-.3.007-.289,0-.578,0-.867,0-.591-.125-2.272.567-2.561.345-.144.438.5.442.71.02.828-.555,1.459-.673,2.232-.006.038.027-.073.041-.109.031-.074.06-.149.092-.223.091-.209.182-.418.276-.625a9.753,9.753,0,0,1,1.029-1.933c.1-.137.411-.505.623-.344.314.24-.112.919-.251,1.148-.306.5-.7.944-1.031,1.43s-.6,1.039-.947,1.522" transform="translate(-1070.925 -261.545)" fill="#cbcbcb" fill-rule="evenodd"/>
        <g id="Group_1268" data-name="Group 1268" transform="translate(0 0)">
          <g id="Group_1266" data-name="Group 1266" transform="translate(6.675 2.624)">
            <circle id="Ellipse_86" data-name="Ellipse 86" cx="2.748" cy="2.748" r="2.748" transform="translate(0 0)" fill="#cbcbcb"/>
          </g>
          <g id="Group_1267" data-name="Group 1267" transform="translate(0 0)">
            <circle id="Ellipse_87" data-name="Ellipse 87" cx="3.504" cy="3.504" r="3.504" transform="translate(0 0)"/>
          </g>
          <path id="Path_724" data-name="Path 724" d="M1076.138,304.048a2.748,2.748,0,0,1,3.261-4.232C1079.326,300.755,1078.816,302.6,1076.138,304.048Z" transform="translate(-1068.855 -296.954)" fill-rule="evenodd"/>
        </g>
      </g>
      <g id="GREEN-CHARACTER" transform="translate(51.661 43.613)">
        <g id="Group_1269" data-name="Group 1269" transform="translate(7.672)">
          <path id="Path_725" data-name="Path 725" d="M1074.264,943.583s-1.193-.183-.357-1.355c.241-.337,1.246-.8,1.841.6,0,0,1.107-.525,1.385.868,0,0,1.034-.5,1.389.9,0,0,1.049-.134,1.188,1.307.207,2.149.378,3.692.5,5.4a8.92,8.92,0,0,0,2.656,5.316,4.963,4.963,0,0,1,6.54-3.162l4.778,1.889s2.7-.918,4,.97c.91-.688,2.379-1.911,2.777-2.279a.859.859,0,0,1,.81-.217.456.456,0,0,1,.089.673s.443-.371.807-.061c.141.12.257.366.07.8,0,0,.458-.419.793-.135a.591.591,0,0,1,.056.86s.495-.4.816-.083c.143.139.262.426-.584,1.482q-.345.429-.7.85a7.928,7.928,0,0,1-8.976,2.279c-2.036-.8-3.911-1.536-3.911-1.536s2.6,4.716,2.579,7.446c-.015,2.432-1.071,4.958-4.09,5.693a5.053,5.053,0,0,1-2.135.057c-1.978-.371-6.372-1.771-5.87-6.847a23.278,23.278,0,0,1-6.237-6.454,12.488,12.488,0,0,1-1.323-10.284A20.312,20.312,0,0,0,1074.264,943.583Z" transform="translate(-1072.599 -941.877)" fill="#cbcbcb" fill-rule="evenodd"/>
          <path id="Path_726" data-name="Path 726" d="M1497.331,1140.688s2.131-2.331,2.105-2.291a.844.844,0,0,1,.646-.186l-.007.008-2.46,2.725a.191.191,0,1,1-.284-.256Zm-.964-.635s2.223-2.389,2.219-2.382.374-.342.694-.2l-2.633,2.84a.192.192,0,1,1-.281-.26Zm1.351-3.124a.72.72,0,0,1,.654-.143l-2.614,2.82a.191.191,0,0,1-.281-.26Z" transform="translate(-1468.444 -1124.316)" fill="#707070" fill-rule="evenodd"/>
          <path id="Path_727" data-name="Path 727" d="M1097.814,958.411a11.369,11.369,0,0,0,.116-1.234.965.965,0,0,1,.37.043,7.412,7.412,0,0,1-.111,1.267.191.191,0,1,1-.375-.076Zm-.891-2.224a6.5,6.5,0,0,1-.037,1.607.191.191,0,1,1-.379-.053,6.171,6.171,0,0,0,.04-1.47A1.052,1.052,0,0,1,1096.924,956.187Zm-1.705,1.025a6.723,6.723,0,0,0-.062-1.807,1.186,1.186,0,0,1,.347-.091,5.465,5.465,0,0,1,.1,1.941.191.191,0,1,1-.38-.043Zm-1.888-1.173c.018-.287.024-.476.024-.476a.191.191,0,1,1,.383.012s-.051.753-.064.588A1.1,1.1,0,0,1,1093.33,956.039Z" transform="translate(-1092.007 -954.457)" fill="#707070" fill-rule="evenodd"/>
        </g>
        <g id="Group_1270" data-name="Group 1270" transform="translate(7.672 9.324)">
          <path id="Path_728" data-name="Path 728" d="M1080.207,1087.99l.008.106a8.92,8.92,0,0,0,2.656,5.316,4.962,4.962,0,0,1,6.54-3.162l3.687,1.458.93,5.521c-1.99-.78-3.794-1.49-3.794-1.49s2.6,4.716,2.579,7.446c-.015,2.432-1.072,4.959-4.091,5.693a5.054,5.054,0,0,1-2.135.057c-1.978-.372-6.372-1.771-5.87-6.847a23.281,23.281,0,0,1-6.237-6.454,12.491,12.491,0,0,1-1.849-7.495Z" transform="translate(-1072.599 -1087.99)" fill-rule="evenodd"/>
          <path id="Path_729" data-name="Path 729" d="M1199.237,1172.78s2.2,1.32,4,2.163a.182.182,0,0,1-.082.351,13.1,13.1,0,0,1-3.891-.758A7.149,7.149,0,0,1,1199.237,1172.78Zm8.319-3.8c-4.832-3.258-6.395-5.074-6.166-4.876a4.451,4.451,0,0,1,.248-.6,43.725,43.725,0,0,0,6.274,4.95,9.615,9.615,0,0,1,2.982,2.967,8.761,8.761,0,0,1,.438,2.459,7.89,7.89,0,0,1-.089,1.157.312.312,0,0,1-.016-.1C1211.258,1171.322,1208.2,1169.411,1207.556,1168.98Zm2.114-.708c-.471-.551-1.326-1.57-1.827-2.167a.1.1,0,0,1,0-.131.1.1,0,0,1,.129-.02l.783.479C1208.774,1166.467,1209.183,1167.214,1209.67,1168.272Z" transform="translate(-1191.119 -1158.682)" fill="#cbcbcb" fill-rule="evenodd"/>
        </g>
        <g id="Group_1272" data-name="Group 1272" transform="translate(29.151 21.09)">
          <g id="Group_1271" data-name="Group 1271" transform="translate(0 0)">
            <circle id="Ellipse_88" data-name="Ellipse 88" cx="2.893" cy="2.893" r="2.893" fill="#cbcbcb"/>
          </g>
          <path id="Path_730" data-name="Path 730" d="M1419.123,1274.55a2.893,2.893,0,1,1-3.363,4.254l1.849-.925a.781.781,0,0,0,.043.475.665.665,0,1,0,1.22-.511.773.773,0,0,0-.383-.405l1.043-.522Z" transform="translate(-1415.34 -1274.41)" fill-rule="evenodd"/>
        </g>
        <g id="Group_1273" data-name="Group 1273" transform="translate(0 23.104)">
          <path id="Path_731" data-name="Path 731" d="M971.666,1312.826l1.463-.368a7.036,7.036,0,0,1,7.813,3.307h0a5.5,5.5,0,0,1-.6,6.333l-1.1,1.282,2.1-.043a4.027,4.027,0,0,1,4,3.084c.038.168.079.337.123.5a5.689,5.689,0,0,0,2.121,3.115,2,2,0,0,1,.83,1.032l-26.286-.033a4.45,4.45,0,0,1-3.549-7.127h0s-6.458-6.614-6.189-14.317c.146-4.184,3.952-6.589,6.757-5.352C963.915,1306.344,967.806,1309.549,971.666,1312.826Z" transform="translate(-952.381 -1303.917)" fill-rule="evenodd"/>
          <path id="Path_732" data-name="Path 732" d="M1029.409,1454.678l-5.443-5.137a.245.245,0,0,0-.363.328l4.666,6.038Z" transform="translate(-1019.01 -1440.186)" fill="#cbcbcb" fill-rule="evenodd"/>
          <path id="Path_733" data-name="Path 733" d="M1059.728,1449.037l.879-.018c-.427.371-1.016.858-1.751,1.407l.022,6.29h-.638l-.021-5.826a33.247,33.247,0,0,1-7.543,4.032.319.319,0,1,1-.223-.6,32.837,32.837,0,0,0,9.615-5.685Zm-7.984-10.9.406.343.876-.22c-1.385.579-10.741,4.728-14.676,12.715a4.437,4.437,0,0,1,.711-1.409h0s-.153-.157-.411-.451C1042.379,1443.05,1049.018,1439.432,1051.744,1438.14Z" transform="translate(-1032.864 -1429.575)" fill="#cbcbcb" fill-rule="evenodd"/>
        </g>
      </g>
      <g id="COIN-PILE" transform="translate(91.536 81.696)">
        <path id="Path_736" data-name="Path 736" d="M1578.084,1542.641a1,1,0,0,1-.833-.985v-2a1,1,0,0,1,1-1h14.273a1,1,0,0,1,1,1v2a1,1,0,0,0,0,1.97v2a1,1,0,0,0-.022,1.929v2a1,1,0,0,1-1,1h-14.274a1,1,0,0,1-1-1v-2a1,1,0,0,0,.021-1.929v-2A1,1,0,0,1,1578.084,1542.641Z" transform="translate(-1577.23 -1538.66)" fill="#cbcbcb" fill-rule="evenodd"/>
        <path id="Path_737" data-name="Path 737" d="M1593.2,1542.151h2.161a1,1,0,0,1-.7.491c.031.005.061.012.091.02h-.314v3.424h.943a1,1,0,0,1-.637.506l.014,0h-1.665v3.954h-.51V1546.6h-4.845v3.954h-.511V1546.6h-4.131v3.954h-.51V1546.6h-.52v3.954h-.51V1546.6h-1.639l.036-.01a1,1,0,0,1-.616-.5h1.029v-3.424h-.4c.029-.008.06-.015.091-.02a1,1,0,0,1-.7-.491h2.789v-3.491h.51v3.491h1.093v-3.491h.51v3.491h2.57v-3.491h.511v3.491h5.355v-3.491h.51Zm-12.326.51v3.424h4.6v-3.424Zm5.106,0v3.424h2.93v-3.424Zm3.441,0v3.424h.756v-3.424Zm1.266,0v3.424h3.239v-3.424Z" transform="translate(-1579.196 -1538.66)" fill-rule="evenodd"/>
      </g>
      <g id="COIN-RIGHT" transform="translate(104.564 75.89)">
        <g id="Group_1275" data-name="Group 1275" transform="translate(0 0)">
          <path id="Path_738" data-name="Path 738" d="M1786.886,1453.881c2.71-.91,6.31,1.361,8.26,5.318,1.982,4.023,1.543,8.336-.937,9.867l.012.026-2.637,1.37q-.117.069-.239.129l-.1.049-.106.055,0-.007c-2.735,1.139-6.5-1.148-8.505-5.226-2.062-4.186-1.5-8.683,1.246-10.038,0,0,2.381-1.267,2.554-1.353a3.749,3.749,0,0,1,.412-.173l.044-.023Z" transform="translate(-1781.381 -1453.299)" fill="#cbcbcb" fill-rule="evenodd"/>
          <g id="Group_1274" data-name="Group 1274" transform="matrix(0.912, -0.411, 0.411, 0.912, 2.168, 3.721)">
            <ellipse id="Ellipse_89" data-name="Ellipse 89" cx="4.53" cy="6.93" rx="4.53" ry="6.93" fill="#cbcbcb"/>
          </g>
          <path id="Path_739" data-name="Path 739" d="M1788.087,1453.681h.039a4.29,4.29,0,0,0-1.065.36,4.848,4.848,0,0,0-2.4,2.918,10.262,10.262,0,0,0,5.872,11.917,4.848,4.848,0,0,0,3.776-.125,4.3,4.3,0,0,0,.934-.625l-.01.012-.009.012-.009.012-.016.019-.008.011-.011.013-.008.01,0,0-.015.017-.008.01-.013.015,0,.006-.005.005-.013.016-.008.009-.017.02-.006.007-.014.016-.007.008-.018.02-.006.007-.015.016-.006.007-.018.02-.007.007-.016.017-.005.005-.019.021-.006.006-.018.019,0,0h0l-.019.019-.006.006-.02.02,0,0-.018.017-.006.006-.02.02,0,.005-.019.017,0,0-.022.02-.005,0-.019.018,0,0-.021.019-.006,0-.022.02h0l-.022.019-.006.005-.022.019,0,0-.021.018-.006,0-.022.019,0,0-.02.017,0,0-.024.018,0,0-.022.017,0,0-.024.019-.005,0-.024.018-.025.018-.006,0-.024.017,0,0-.022.016-.006,0-.024.017,0,0-.022.015,0,0-.025.017,0,0-.023.015,0,0-.026.016-.006,0-.025.016.012.026-1.065.553a5.293,5.293,0,0,1-1.327.037l-.007,0-2.333,1.291a4.878,4.878,0,0,1-.859-.108l2.387-1.322a6.748,6.748,0,0,1-.65-.189,8.156,8.156,0,0,1-2.2-1.19l-2.21,1.419q-.213-.159-.423-.335l2.21-1.419q-.246-.207-.484-.434l-2.263,1.365c-.124-.12-.246-.245-.366-.375l2.26-1.364a11.464,11.464,0,0,1-1.936-2.8q-.187-.381-.345-.766l-2.345,1.2c-.065-.159-.127-.319-.185-.479l2.346-1.2a10.883,10.883,0,0,1-.625-2.976l-2.4,1q-.017-.276-.018-.546l2.4-1a8.434,8.434,0,0,1,.271-2.226l-2.373,1.022a5.853,5.853,0,0,1,.236-.657l2.289-.985.024.055a5.831,5.831,0,0,1,1.228-2.054s.742-.421.952-.529l.021-.011a3.655,3.655,0,0,1,.412-.173l.045-.023,0,.006.029-.01h0l.028-.009.005,0,.028-.008h0l.028-.008h0l.028-.008.005,0,.028-.008h0l.028-.008h0l.029-.008h.005l.029-.007h0l.029-.007h0l.03-.007h0l.029-.006h.005l.029-.006h0l.03-.006h0l.03-.006h0l.03-.005h0l.031-.006.031-.005h0l.031,0h0l.031-.005.032,0h0l.031,0h0l.031,0h0l.031,0h0l.031,0h0l.03,0h0l.031,0,.03,0h0l.03,0h.006l.029,0h.024l.028,0h.047l.039,0h.081Z" transform="translate(-1781.38 -1453.297)" fill-rule="evenodd"/>
        </g>
        <g id="Group_1278" data-name="Group 1278" transform="translate(5.484 2.063)">
          <g id="Group_1276" data-name="Group 1276" transform="translate(0 1.142)">
            <path id="Path_740" data-name="Path 740" d="M1870.008,1505.453a3.851,3.851,0,0,0,2.66.05c1.026-.379,1.342-.956.981-1.74a1.38,1.38,0,0,0-1.6-.78c-.345.067-.713.142-1.119.216a3.068,3.068,0,0,1-1.954-.26,2.994,2.994,0,0,1-1.322-1.384,2.459,2.459,0,0,1-.2-2.038,2.385,2.385,0,0,1,1.544-1.365,4.861,4.861,0,0,1,3-.029l-.141,1.3a3.917,3.917,0,0,0-2.277.038,1.3,1.3,0,0,0-.773.627,1.171,1.171,0,0,0,.054,1.063,1.257,1.257,0,0,0,.6.574,1.831,1.831,0,0,0,1.061.114c.229-.039.552-.1.952-.185a2.873,2.873,0,0,1,2.067.276,3.255,3.255,0,0,1,1.305,1.4c.768,1.637.243,2.794-1.554,3.462a5.013,5.013,0,0,1-3.595-.1Z" transform="translate(-1867.319 -1497.901)"/>
          </g>
          <g id="Group_1277" data-name="Group 1277" transform="translate(1.046)">
            <path id="Path_741" data-name="Path 741" d="M1883.71,1480.359l4.41,10.955,1.4-.411-4.622-10.893Z" transform="translate(-1883.71 -1480.01)" fill-rule="evenodd"/>
          </g>
        </g>
      </g>
    </g>
  </g>
</svg>
