<svg xmlns="http://www.w3.org/2000/svg" width="78.122" height="119.291" viewBox="0 0 78.122 119.291">
  <g id="_5_-_RECRUITING" data-name="5 - RECRUITING" transform="translate(-1014.415 -370.97)">
    <g id="_5---RECRUITING" transform="translate(1014.415 370.97)">
      <g id="PORTRAIT-IN-MAGNIFYING-GLASS" transform="matrix(0.989, -0.148, 0.148, 0.989, 0.872, 3.948)">
        <g id="Group_1370" data-name="Group 1370" transform="translate(0 0)">
          <ellipse id="Ellipse_108" data-name="Ellipse 108" cx="9.812" cy="15.183" rx="9.812" ry="15.183" fill="#fff"/>
        </g>
      </g>
      <g id="MAGNIFYING-GLASS" transform="translate(0 0)">
        <g id="Group_1375" data-name="Group 1375" transform="translate(14.514 31.813) rotate(0.708)">
          <path id="Path_827" data-name="Path 827" d="M.013,1.2,2.568,17.427A1.036,1.036,0,1,0,4.614,17.1L2.06.875A1.036,1.036,0,1,0,.013,1.2Z" transform="translate(0 0)" fill="#0005d8" fill-rule="evenodd"/>
        </g>
        <path id="Path_828" data-name="Path 828" d="M1177.056,731.391l-.495-3.413a1.036,1.036,0,0,1,2.051-.3l.373,2.576A5.108,5.108,0,0,1,1177.056,731.391Z" transform="translate(-1162.049 -694.968)" fill="#0005d8" fill-rule="evenodd"/>
        <g id="Group_1376" data-name="Group 1376" transform="matrix(0.991, -0.135, 0.135, 0.991, 0, 2.941)">
          <path id="Path_829" data-name="Path 829" d="M10.869,30.449a6.784,6.784,0,0,1-5.028-2.588c-2.3-2.615-3.769-6.844-3.769-11.6S3.538,7.275,5.841,4.66a6.784,6.784,0,0,1,5.028-2.588,1.036,1.036,0,1,0,0-2.072A8.811,8.811,0,0,0,4.286,3.29C1.707,6.219,0,10.934,0,16.261S1.707,26.3,4.286,29.231a8.811,8.811,0,0,0,6.583,3.29,1.036,1.036,0,1,0,0-2.072Z" fill="#0005d8" fill-rule="evenodd"/>
        </g>
        <g id="Group_1377" data-name="Group 1377" transform="matrix(0.991, -0.135, 0.135, 0.991, 9.743, 1.61)">
          <path id="Path_830" data-name="Path 830" d="M1.036,2.072A6.784,6.784,0,0,1,6.065,4.66c2.3,2.615,3.769,6.844,3.769,11.6s-1.466,8.986-3.769,11.6a6.784,6.784,0,0,1-5.029,2.588,1.036,1.036,0,0,0,0,2.072,8.813,8.813,0,0,0,6.584-3.29c2.579-2.928,4.286-7.644,4.286-12.97S10.2,6.219,7.62,3.29A8.813,8.813,0,0,0,1.036,0a1.036,1.036,0,0,0,0,2.072Z" fill="#0005d8" fill-rule="evenodd"/>
        </g>
      </g>
      <g id="CHARACTER" transform="translate(0.609 9.584)">
        <g id="Group_1378" data-name="Group 1378" transform="translate(0 48.698)">
          <path id="Path_831" data-name="Path 831" d="M1047.333,1041.083s-16.623,31.621-20.237,39.51c0,0-4.042.425-5.876,3.009h27.862l6.726-11.716s4.986,6.571,9.483,8.707c0,0-2.6,1.534-2.929,3.009h25.6l-18.272-28.513s13.1-24.561,0-31.692C1066,1021.388,1056.93,1021.776,1047.333,1041.083Z" transform="translate(-1021.22 -1022.592)" fill-rule="evenodd"/>
          <path id="Path_832" data-name="Path 832" d="M1224.638,1108.46l-4.806,10.928a25.481,25.481,0,0,0,2.419,24.823l.026.037,19.851-8.09.392.613-19.823,8.079c2.182,3.125,4.2,5.917,5.254,7.1a.442.442,0,0,1,.049.066c-.987-1.139-1.6-1.944-1.6-1.944l-.462.8c-1.2-1.571-2.78-3.794-4.422-6.154a26.376,26.376,0,0,1-3.39-6.763l-9.558-.747.16-.308.2-.381,8.967.7a26.371,26.371,0,0,1,1.119-18.2l3.172-7.213C1223.014,1110.572,1223.832,1109.457,1224.638,1108.46Zm15.936,25.273,0,.008-2.478-3.923a.4.4,0,0,1,.479-.58l3.069,1.2c-.787,1.765-1.359,2.839-1.359,2.839Z" transform="translate(-1191.813 -1100.78)" fill="#707070" fill-rule="evenodd"/>
        </g>
        <g id="Group_1383" data-name="Group 1383" transform="translate(10.879)">
          <g id="Group_1380" data-name="Group 1380">
            <path id="Path_833" data-name="Path 833" d="M1205.042,482.785a11.969,11.969,0,0,0,2.815-3.433c.428-1.259-.47-1.431-.952-1.054a26.268,26.268,0,0,1-4.751,2.778c-5.162,2.247-17.9,16.078-17.9,16.078-7.486,7.314-19.323,7.824-22.606,7.818a7.517,7.517,0,0,0-3.252.723,14.961,14.961,0,0,0-5.595,5.136,13,13,0,0,0-2.495-2.073,1.247,1.247,0,0,0-1.483.207h0a2.35,2.35,0,0,0-2.632,1.487,5.088,5.088,0,0,0-.2.631,1.838,1.838,0,0,0-1.1,1.547,2.033,2.033,0,0,0-1.234,1.711,2.608,2.608,0,0,0,0,3.715s1.244.731,1.546-.87l.666,21.655a8.645,8.645,0,0,0,3.052,6.328h0a6.821,6.821,0,0,0,8.135.511l.487-.317a9.943,9.943,0,0,0,2.831-2.793,16.89,16.89,0,0,0,2.967-8.507v-7.54s5.839,2.332,9.968-6.567a17.84,17.84,0,0,0,6.517-.441,20.314,20.314,0,0,0,7.411-3.5,19.16,19.16,0,0,0,4.573-4.854c2.4-3.658,8.6-13.1,10.342-15.815a30.05,30.05,0,0,1,3.956-4.693s1.784,1.719,3.249-1.9a1.882,1.882,0,0,0-1.229-2.493,1.726,1.726,0,0,0-1.691-1.935C1206.621,483.02,1205.98,482.724,1205.042,482.785Z" transform="translate(-1142.849 -478.121)" fill="#cbcbcb" fill-rule="evenodd"/>
            <g id="Group_1379" data-name="Group 1379" transform="translate(2.573 12.6)">
              <path id="Path_834" data-name="Path 834" d="M1216.688,618.994a36.242,36.242,0,0,1,9.28,8.3c-2.583,3.956-6.24,9.53-7.958,12.146a19.156,19.156,0,0,1-4.573,4.854,20.312,20.312,0,0,1-7.411,3.5,17.841,17.841,0,0,1-6.517.441c-4.129,8.9-9.968,6.567-9.968,6.567v7.54a16.89,16.89,0,0,1-2.967,8.507,9.942,9.942,0,0,1-2.831,2.793l-.487.317a6.821,6.821,0,0,1-8.135-.511h0a8.645,8.645,0,0,1-3.052-6.328l-.45-14.617h6.1c-.114-1.548-.019-9.607.62-11.666a10.307,10.307,0,0,1,.771-1.9,14.838,14.838,0,0,1,5.482-4.96,7.517,7.517,0,0,1,3.252-.723c3.283.006,15.12-.5,22.606-7.818C1210.452,625.426,1213.214,622.426,1216.688,618.994Z" transform="translate(-1171.62 -618.994)" fill-rule="evenodd"/>
              <path id="Path_835" data-name="Path 835" d="M1223.178,851.486h.022V865.68a.194.194,0,0,1-.388.018l-1.252-13.913h1.634C1223.188,851.7,1223.182,851.6,1223.178,851.486Zm11.836,3.023-.522-11.233a.138.138,0,0,1,.268-.05,70.189,70.189,0,0,1,2.348,11.125,5.384,5.384,0,0,1-2.094-.266Zm9.8-6.632a11.749,11.749,0,0,0-.76-9.682.227.227,0,0,1,.364-.267c1.181,1.25,3.054,3.993,4.409,9.607a15.759,15.759,0,0,1-3.842-.018Q1244.9,847.7,1244.811,847.877Z" transform="translate(-1217.093 -818.282)" fill="#707070" fill-rule="evenodd"/>
            </g>
            <path id="Path_836" data-name="Path 836" d="M1153.5,555.687a6.417,6.417,0,0,1-.173.718l-1.067-.572a.358.358,0,1,1,.328-.636Zm-1.358-3.364a1.659,1.659,0,0,1,.416-.042c.682.016,1.707.456,2.929,2.34a.358.358,0,1,1-.6.39c-1.008-1.553-1.783-2-2.346-2.014a.914.914,0,0,0-.68.271l.005-.035A1.645,1.645,0,0,1,1152.141,552.322Zm1.2-1.605a1.88,1.88,0,0,1,.467,0c.641.079,1.608.51,2.834,2.029a.358.358,0,0,1-.556.45c-1.986-2.46-2.987-1.676-2.987-1.676A1.669,1.669,0,0,1,1153.342,550.717Zm1.13-1.554a2.537,2.537,0,0,1,.505-.012,4.072,4.072,0,0,1,2.73,1.615.358.358,0,1,1-.538.471c-1.474-1.687-2.659-1.391-2.971-1.271a5.368,5.368,0,0,1,.2-.624C1154.419,549.281,1154.445,549.222,1154.472,549.163Zm3.249-1.657a6.313,6.313,0,0,1,1.773,1.8.358.358,0,1,1-.6.4,6.734,6.734,0,0,0-1.869-1.845h0A1.245,1.245,0,0,1,1157.721,547.506Zm56.594-17.959c-.2.172,1.707-1.96,1.707-1.96a.358.358,0,0,1,.527.484l-1.662,1.807A1.654,1.654,0,0,1,1214.315,529.547Zm1.952-5.079a2.4,2.4,0,0,1,.069.681,7.261,7.261,0,0,0-1.1.338,6.488,6.488,0,0,0-1.343.987.358.358,0,1,1-.5-.509,7.312,7.312,0,0,1,1.511-1.111A2.986,2.986,0,0,1,1216.266,524.469Zm-1.622-2a2.274,2.274,0,0,1,0,.743,6.679,6.679,0,0,0-2.388,1.494.358.358,0,0,1-.479-.531A6.91,6.91,0,0,1,1214.645,522.465Zm-.516-1.634c-.3.315-.608.605-.882.844a21.227,21.227,0,0,0-2.691,1.284.358.358,0,0,1-.388-.6A8.809,8.809,0,0,1,1214.129,520.831Z" transform="translate(-1151.054 -517.011)" fill="#707070" fill-rule="evenodd"/>
          </g>
          <g id="Group_1382" data-name="Group 1382" transform="translate(13.787 9.571)">
            <g id="Group_1381" data-name="Group 1381" transform="translate(0 3.234)">
              <path id="Path_839" data-name="Path 839" d="M5.167,0A5.167,5.167,0,1,1,0,5.167,5.167,5.167,0,0,1,5.167,0Z" transform="translate(0 0)" fill="#cbcbcb"/>
            </g>
            <path id="Path_837" data-name="Path 837" d="M1350.533,622.717a5.167,5.167,0,0,1-1.145,10.206c-.083,0-.167,0-.25-.006-.835-1.883.445-2.652.788-2.819a1.2,1.2,0,1,0,.061-1.885A3.875,3.875,0,0,1,1350.533,622.717Z" transform="translate(-1344.221 -619.355)" fill-rule="evenodd"/>
          </g>
        </g>
      </g>
    </g>
  </g>
</svg>
