<svg xmlns="http://www.w3.org/2000/svg" width="24.521" height="24.521" viewBox="0 0 24.521 24.521">
  <path id="signpost" d="M24.078,11.152l-1.83-1.989a1.681,1.681,0,0,0-1.234-.542H14.488V1.676A1.678,1.678,0,0,0,12.811,0h-.958a1.678,1.678,0,0,0-1.677,1.676v1.2H3.488a1.687,1.687,0,0,0-1.2.5L.481,5.217A1.675,1.675,0,0,0,.443,7.526l1.83,1.989a1.681,1.681,0,0,0,1.234.542h6.67V22.844a1.678,1.678,0,0,0,1.677,1.676h.958a1.678,1.678,0,0,0,1.677-1.676V15.8h6.545a1.687,1.687,0,0,0,1.2-.5l1.811-1.842A1.675,1.675,0,0,0,24.078,11.152ZM10.128,8.621H3.507a.24.24,0,0,1-.176-.077L1.5,6.554a.239.239,0,0,1,.006-.33L3.317,4.382a.242.242,0,0,1,.171-.072h6.641Zm2.683,14.463h-.958a.24.24,0,0,1-.239-.239V1.676a.24.24,0,0,1,.239-.239h.958a.24.24,0,0,1,.239.239V22.844A.24.24,0,0,1,12.811,23.084Zm10.2-10.63L21.2,14.3a.241.241,0,0,1-.171.072H14.488v-4.31h6.526a.24.24,0,0,1,.176.077l1.83,1.989A.239.239,0,0,1,23.014,12.454Zm0,0" transform="translate(0)"/>
</svg>
