<svg xmlns="http://www.w3.org/2000/svg" width="70" height="100.662" viewBox="0 0 70 100.662">
  <g id="_2_-_INCOME_INEQUALITY" data-name="2 - INCOME INEQUALITY" transform="translate(-1367.388 -345.07)">
    <g id="_2--INCOME-INEQUALITY" transform="translate(1367.388 345.07)">
      <g id="CHARACTER-21" transform="translate(0 0)">
        <g id="MEDIUM-COIN-PILE" transform="translate(16.132 62.207)">
          <g id="Group_1305" data-name="Group 1305" transform="translate(0 0)">
            <path id="Path_784" data-name="Path 784" d="M1593.366,1275.456a1.481,1.481,0,0,1-.656-1.23v-2.963a1.483,1.483,0,0,1,1.481-1.482h22.5a1.483,1.483,0,0,1,1.482,1.482v2.963a1.481,1.481,0,0,0,0,2.461v2.964a1.482,1.482,0,0,0,0,2.461v2.963a1.482,1.482,0,0,0,0,2.462v2.963a1.482,1.482,0,0,0,0,2.461v2.963a1.482,1.482,0,0,0,0,2.462v2.964a1.482,1.482,0,0,1-1.482,1.481h-22.5a1.482,1.482,0,0,1-1.481-1.481v-2.964a1.482,1.482,0,0,0,0-2.462v-2.963a1.482,1.482,0,0,0,0-2.461v-2.963a1.482,1.482,0,0,0,0-2.462v-2.963a1.482,1.482,0,0,0,0-2.461v-2.964A1.481,1.481,0,0,1,1593.366,1275.456Z" transform="translate(-1592.71 -1269.78)" fill="#cbcbcb" fill-rule="evenodd"/>
          </g>
          <g id="Group_1306" data-name="Group 1306" transform="translate(0.084 0)">
            <path id="Path_785" data-name="Path 785" d="M1613.972,1274.847h5.151a1.482,1.482,0,0,1-.52.609,1.616,1.616,0,0,1,.14.107h-2.124v4.636h2.534a1.489,1.489,0,0,1-.551.681l.05.035h-4.24v4.605a.313.313,0,0,1-.005.06h4.762a1.485,1.485,0,0,1-.555.716h-1.307v4.636a.413.413,0,0,1-.005.06h1.872a1.485,1.485,0,0,1-.542.716h-3.9v4.717h4.44a1.479,1.479,0,0,1-.551.716h-1.488v5.688h-.716v-5.688H1611.8c0,.006,0,.012,0,.018v5.67h-.716v-5.688h-3.531a.355.355,0,0,1-.3,0h-4.587v5.688h-.716v-5.688H1600.7v5.688h-.716v-5.688h-5.547a1.481,1.481,0,0,1-.551-.716h4.94v-4.717h-4.4a1.491,1.491,0,0,1-.542-.716h1.819v-4.7h-1.257a1.483,1.483,0,0,1-.556-.716h4.4v-4.665H1594.4l.051-.035a1.492,1.492,0,0,1-.552-.681h1.566v-4.637h-1.155a1.406,1.406,0,0,1,.14-.107,1.487,1.487,0,0,1-.521-.609h3.291v-5.067h.716v5.067h.733v-5.067h.716v5.067h6.576v-5.067h.716v5.067h6.575v-5.067h.716Zm-14.432,16.861v4.717h7.5v-4.717Zm8.22,0v4.717h4.838v-4.717Zm5.554,0v4.717h.7v-4.717Zm-16.9-5.411v4.7h5.792v-4.7Zm13.531,0h-7.024v4.7h7.043a.362.362,0,0,1-.02-.117Zm6.645,0h-5.929v4.579a.355.355,0,0,1-.019.117h5.953a.413.413,0,0,1,0-.06ZM1599,1280.916v4.665h5.5v-4.665Zm6.218,0v4.665h.846v-4.665Zm8.483,0h-6.921v4.665h3.418a.353.353,0,0,1,.111-.017.36.36,0,0,1,.111.017h3.287a.313.313,0,0,1-.006-.06Zm-17.513-5.353v4.637h6.3v-4.637Zm7.021,0v4.637h5.7v-4.637Zm6.416,0v4.637h.958v-4.637Zm6.282,0h-4.608v4.637h4.608Z" transform="translate(-1593.88 -1269.78)" fill-rule="evenodd"/>
          </g>
        </g>
        <g id="HUGE-COIN" transform="translate(20.15 50.675)">
          <path id="Path_786" data-name="Path 786" d="M1670.274,1052.85h6.9c11.866,0,21.5,11.186,21.5,24.964,0,12.713-8.189,23.416-18.777,24.964-.888.13-9.573,0-9.573,0-11.865,0-21.5-11.186-21.5-24.964C1648.82,1064.054,1658.429,1052.879,1670.274,1052.85Z" transform="translate(-1648.82 -1052.85)" fill-rule="evenodd"/>
          <g id="Group_1307" data-name="Group 1307" transform="translate(0 0)">
            <ellipse id="Ellipse_96" data-name="Ellipse 96" cx="21.499" cy="24.965" rx="21.499" ry="24.965" fill="#cbcbcb"/>
          </g>
          <g id="Group_1315" data-name="Group 1315" transform="translate(2.054 3.796)">
            <g id="Group_1312" data-name="Group 1312" transform="translate(0 20.843) rotate(-43.505)">
              <g id="Group_1308" data-name="Group 1308" transform="translate(2.012 1.587)">
                <path id="Path_787" data-name="Path 787" d="M22.138,1.333l-.51-.541L22.4,0l.89.944a.582.582,0,0,1-.007.8L21.976,3.083A13.538,13.538,0,0,1,25.134,9.9a.581.581,0,0,1-.119.457.538.538,0,0,1-.411.2l-3.531.037a.549.549,0,0,1-.54-.468,8.985,8.985,0,0,0-1.656-3.879L14.509,10.71c2.881,4.708,2.853,8.412.121,11.1a6.53,6.53,0,0,1-5.208,2.008,9.7,9.7,0,0,1-5.529-2.261l-2.252,2.3a.527.527,0,0,1-.767-.009L0,22.921l.774-.791.494.524,2.2-2.251a.526.526,0,0,1,.719-.037,8.937,8.937,0,0,0,5.288,2.322,5.52,5.52,0,0,0,4.4-1.7c2.458-2.418,2.211-5.763-.524-10.045a.584.584,0,0,1,.072-.716l5.11-5.22a.527.527,0,0,1,.79.035A10.214,10.214,0,0,1,21.511,9.46l2.432-.025a12.424,12.424,0,0,0-1.069-3.058,12.733,12.733,0,0,0-2.045-2.92.581.581,0,0,1,.011-.8ZM7.027,18.355a3.157,3.157,0,0,0,1.938.52,2.931,2.931,0,0,0,1.045-.374l.528.989a4.049,4.049,0,0,1-1.426.5,4.783,4.783,0,0,1-3.264-1.062.572.572,0,0,1-.241-.418.582.582,0,0,1,.161-.457l2.739-2.8.76.807Zm6.8-15.609A3.738,3.738,0,0,1,15.217,2.4h.034a3.922,3.922,0,0,1,2.5.969.581.581,0,0,1,.036.84L15.547,6.5l-.76-.807,1.768-1.807a2.871,2.871,0,0,0-1.316-.356,2.743,2.743,0,0,0-1,.257.223.223,0,0,1-.028.012,3.2,3.2,0,0,0-1.11.784l-.76-.807A4.29,4.29,0,0,1,13.823,2.746Z" transform="translate(0 0)" fill-rule="evenodd"/>
              </g>
              <g id="Group_1309" data-name="Group 1309" transform="translate(13.285 5.364)">
                <path id="Path_788" data-name="Path 788" d="M.014,2.26A3.522,3.522,0,0,1,1.071,0l.76.807A2.406,2.406,0,0,0,1.1,2.35l0,.021a3.33,3.33,0,0,0,.355,1.653L3.513,1.917l.76.807L1.688,5.365a.531.531,0,0,1-.456.156.544.544,0,0,1-.4-.279A5.326,5.326,0,0,1,.014,2.26Z" transform="translate(0 0)" fill-rule="evenodd"/>
              </g>
              <g id="Group_1310" data-name="Group 1310" transform="translate(10.519 14.31)">
                <path id="Path_789" data-name="Path 789" d="M2.614,1.449.76,3.343,0,2.536,2.324.162A.531.531,0,0,1,2.752,0a.54.54,0,0,1,.4.236A5.259,5.259,0,0,1,4.305,3.531l0,.02A4.025,4.025,0,0,1,3.156,5.877a5.31,5.31,0,0,1-1.125.889L1.5,5.777A4.179,4.179,0,0,0,2.4,5.07,2.909,2.909,0,0,0,3.226,3.4,3.415,3.415,0,0,0,2.614,1.449Z" transform="translate(0 0)" fill-rule="evenodd"/>
              </g>
              <g id="Group_1311" data-name="Group 1311" transform="translate(0 0)">
                <path id="Path_790" data-name="Path 790" d="M11.309,12.888c-2.732-4.565-2.664-8.128,0-10.679a6.759,6.759,0,0,1,5.1-2.2,9.284,9.284,0,0,1,5.269,2.289L23.025.919a.528.528,0,0,1,.767.007l.623.661-.775.792L23.4,2.121,22.1,3.449a.527.527,0,0,1-.722.036,8.624,8.624,0,0,0-5.011-2.351,5.752,5.752,0,0,0-4.319,1.9c-2.384,2.285-2.173,5.491.411,9.626a.583.583,0,0,1-.074.711L7.027,18.846a.529.529,0,0,1-.8-.048,10.223,10.223,0,0,1-1.773-3.224,10.15,10.15,0,0,1-.572-2.662l-2.707-.268a17.417,17.417,0,0,0,1.049,3.794A13.213,13.213,0,0,0,4.743,20.4a.582.582,0,0,1-.012.794l-2.2,2.251.259.274-.774.791-.639-.678a.581.581,0,0,1,.007-.8L3.6,20.768a14.269,14.269,0,0,1-2.373-3.891A18.337,18.337,0,0,1,0,12.079a.58.58,0,0,1,.152-.459.527.527,0,0,1,.438-.168l3.857.383a.555.555,0,0,1,.491.55,8.865,8.865,0,0,0,.532,2.808l.009.025A8.446,8.446,0,0,0,6.7,17.594Z" fill-rule="evenodd"/>
              </g>
            </g>
            <g id="Group_1313" data-name="Group 1313" transform="translate(17.839)">
              <path id="Path_791" data-name="Path 791" d="M1536.5,950.236c8.672,0,15.638,9.019,15.638,20.055s-6.965,20.055-15.638,20.055a.573.573,0,1,0,0,1.146c9.221,0,16.783-9.467,16.783-21.2s-7.562-21.2-16.783-21.2a.573.573,0,1,0,0,1.145Z" transform="translate(-1535.928 -949.091)" fill-rule="evenodd"/>
            </g>
            <g id="Group_1314" data-name="Group 1314" transform="translate(1.629)">
              <path id="Path_792" data-name="Path 792" d="M1326.306,990.346c-8.673,0-15.637-9.019-15.637-20.055s6.965-20.055,15.637-20.055a.573.573,0,0,0,0-1.145c-9.221,0-16.783,9.466-16.783,21.2s7.562,21.2,16.783,21.2a.573.573,0,0,0,0-1.146Z" transform="translate(-1309.524 -949.091)" fill-rule="evenodd"/>
            </g>
          </g>
          <path id="Path_793" data-name="Path 793" d="M2055.136,1149.945h-8.2a.573.573,0,1,1,0-1.145h9.854a.578.578,0,0,1,.189.032A20.337,20.337,0,0,1,2055.136,1149.945Zm9.359-9.645q-.312.583-.648,1.146h-7.878a.573.573,0,1,1,0-1.146Zm1.554-3.5c-.14.387-.29.769-.445,1.146h-8.819a.573.573,0,0,1,0-1.146Zm1.639-11.627q.036.57.05,1.146h-7.866a.573.573,0,0,1,0-1.146Zm-1.252-6.743q.179.567.335,1.146h-8.57a.573.573,0,1,1,0-1.146Zm-1.175-3.061q.256.565.49,1.146h-7.858a.573.573,0,1,1,0-1.146Zm-7.62-9.513q.742.539,1.442,1.146h-9.064a.573.573,0,0,1,0-1.146Z" transform="translate(-2017.897 -1102.064)" fill="#cbcbcb" fill-rule="evenodd"/>
        </g>
        <g id="BILLS" transform="translate(20.727)">
          <g id="Group_1316" data-name="Group 1316" transform="matrix(0.998, -0.058, 0.058, 0.998, 0, 0.625)">
            <path id="Path_794" data-name="Path 794" d="M1.4,8.786A84.026,84.026,0,0,1,4.907,0l5.8,3.6S7.58,12.769,6.868,15.409L0,13.346A34.562,34.562,0,0,1,1.4,8.786Z" transform="translate(0 0)" fill="#0005d8" fill-rule="evenodd"/>
          </g>
          <g id="Group_1317" data-name="Group 1317" transform="translate(3.006 6.877)">
            <ellipse id="Ellipse_97" data-name="Ellipse 97" cx="2.079" cy="2.176" rx="2.079" ry="2.176" fill="#fff"/>
          </g>
          <path id="Path_795" data-name="Path 795" d="M1691.661,414.08c.338-.944,2.228-5.84,3.394-7.312l5.429,3.051s-2.926,7.775-3.593,10.014l-6.431-1.75A34.37,34.37,0,0,1,1691.661,414.08Z" transform="translate(-1688.056 -402.351)" fill="#0005d8" fill-rule="evenodd"/>
          <g id="Group_1318" data-name="Group 1318" transform="translate(5.283 9.104)">
            <ellipse id="Ellipse_98" data-name="Ellipse 98" cx="2.079" cy="2.176" rx="2.079" ry="2.176" transform="translate(0)" fill="#fff"/>
          </g>
        </g>
        <g id="ORANGE-CHARACTER" transform="translate(0 2.967)">
          <g id="Group_1319" data-name="Group 1319" transform="translate(36.935 0)">
            <circle id="Ellipse_99" data-name="Ellipse 99" cx="4.586" cy="4.586" r="4.586" fill="#cbcbcb"/>
          </g>
          <path id="Path_796" data-name="Path 796" d="M1904.71,387.675a4.586,4.586,0,0,1,6.976,5.8,5.124,5.124,0,0,1-2.907-5.222A4.416,4.416,0,0,1,1904.71,387.675Z" transform="translate(-1866.24 -386.512)" fill-rule="evenodd"/>
          <g id="Group_1323" data-name="Group 1323" transform="translate(0 6.204)">
            <g id="Group_1320" data-name="Group 1320">
              <path id="Path_797" data-name="Path 797" d="M1389.256,529.832s-1.341-2.595,0-4.539l-2.381-4.183-2.471-1.583a9.71,9.71,0,0,1-4.452-8.789,4.968,4.968,0,0,1,.095-.729,8.566,8.566,0,0,1-2.079-6.95h0a8.231,8.231,0,0,1,7.672-7c6.264-.355,17.012-.6,23.621,1.3l-1.486-3.7s-10.575,3.781-13.253-4.9a85.836,85.836,0,0,1-19.515,5.213,6.832,6.832,0,0,1-6.937-3.409l0,0a5.271,5.271,0,0,1,.912-6.359,38.273,38.273,0,0,1,9.658-6.272l7.952-4.205a4.89,4.89,0,0,1,4.23-.164l7.673,3.324.559-1.41a49.526,49.526,0,0,1,9.778,2.8,12.281,12.281,0,0,1,7.182,7.548c2.844,8.513,8.214,24.858,8.918,28.952h2.013a2.417,2.417,0,0,1,2.358,1.889l.379,1.7a8.775,8.775,0,0,1,1.658,2.749c.152.536-.7,1.16-1.658.157-.283-.3-3.029-2.464-4.263-2.6-.944-.1-1.779-.212-2.557-.307a7.808,7.808,0,0,1-5.748-3.737l-1.589-2.65s-2.58,4.138-9.664,3.391l1.1,14.305s-1.413-.334-1.886-2.644c0,0-7.982-1.063-12.529-2.988A17.007,17.007,0,0,0,1389.256,529.832Z" transform="translate(-1367.388 -473.158)" fill-rule="evenodd"/>
              <path id="Path_798" data-name="Path 798" d="M2170.438,1051.61c.014.072.026.139.037.2h.953c.461.324,1.163.832,1.922,1.438l.244-.275a.286.286,0,1,1,.428.38l-.227.255c.431.356.869.737,1.284,1.128l.147.658-4.666-3.486A.287.287,0,0,1,2170.438,1051.61Z" transform="translate(-2112.936 -1010.194)" fill="#707070" fill-rule="evenodd"/>
              <path id="Path_799" data-name="Path 799" d="M1554.729,833.938l3.966-11.259a.358.358,0,1,1,.675.238L1555.43,834.1Q1555.081,834.023,1554.729,833.938Zm-10.785-4.52s1.535.826,2.856,1.508c1.674.867,3.427,1.678,2.813,1.418a6.707,6.707,0,0,0-.452.523c-1.505-.674-3.239-1.584-4.568-2.308ZM1536.57,817.7c1.149-5.512,5.445-8.644,10.442-10.386,7.064-2.462,15.521-2.128,18.167-1.947.388.092.953.213,1.317.317.021.052.18.15.175.209-.021.2.252.34.055.32,0,0-10.984-.694-19.479,1.777a14.138,14.138,0,0,0-10.132,10.328A4.911,4.911,0,0,1,1536.57,817.7Z" transform="translate(-1524.457 -781.465)" fill="#cbcbcb" fill-rule="evenodd"/>
              <path id="Path_800" data-name="Path 800" d="M1696.853,971.969a22.8,22.8,0,0,1-4.759-1.47,103.174,103.174,0,0,1-11.163-5.62.358.358,0,0,1,.363-.617,102.161,102.161,0,0,0,11.069,5.575c1.851.752,4.587,1.441,4.426,1.425Z" transform="translate(-1658.318 -929.054)" fill="#707070" fill-rule="evenodd"/>
            </g>
            <g id="Group_1321" data-name="Group 1321">
              <path id="Path_801" data-name="Path 801" d="M1408.853,496.341l-1.078-2.683s-10.575,3.781-13.253-4.9a85.836,85.836,0,0,1-19.515,5.213,6.832,6.832,0,0,1-6.937-3.409l0,0a5.271,5.271,0,0,1,.912-6.359,38.273,38.273,0,0,1,9.658-6.272l7.952-4.205a4.89,4.89,0,0,1,4.23-.164l7.673,3.324.559-1.41a49.526,49.526,0,0,1,9.778,2.8,12.281,12.281,0,0,1,7.182,7.548c1.708,5.113,4.327,13.051,6.3,19.463l-8.242,2.513c-1.788-3.749-3.6-7.468-5.185-11.456Z" transform="translate(-1367.388 -473.158)" fill-rule="evenodd"/>
              <path id="Path_802" data-name="Path 802" d="M1499.751,639.769a19.176,19.176,0,0,1-.3-4.085.163.163,0,0,1,.313-.059l2.41,5.872h-.027l-.864-2.149A14.046,14.046,0,0,1,1499.751,639.769Zm-22.661-8.47-8.8,4.956a.358.358,0,1,0,.351.624l8.8-4.956a.358.358,0,0,0-.351-.624Zm9.088,3.868a13.534,13.534,0,0,1,1.676-5.028.126.126,0,0,1,.224.11,9.063,9.063,0,0,0-.049,4.192v.006Q1487.115,634.816,1486.178,635.166Z" transform="translate(-1460.897 -618.848)" fill="#6b6b6b" fill-rule="evenodd"/>
            </g>
            <g id="Group_1322" data-name="Group 1322" transform="translate(11.633)">
              <path id="Path_803" data-name="Path 803" d="M1529.86,477.727l7.568-4a4.891,4.891,0,0,1,4.23-.164l7.465,3.234.137.09c1.244.815.261,1.622-.087,1.507.85.4.821,1.075.621,1.366-.33.48-1.512.3-1.512.3a.955.955,0,0,1,.375,1.234c-.41.765-1.53.3-1.53.3.2,1.066-.9,1.07-2.245.785-1.042-.221-1.519-.454-2.406-.675-1.433,3.82-5.71,3.379-5.71,3.379l-2.819,1.6Z" transform="translate(-1529.86 -473.158)" fill="#cbcbcb" fill-rule="evenodd"/>
              <path id="Path_804" data-name="Path 804" d="M1706.6,513.9l-4.791-1.859a.286.286,0,0,1,.208-.534l5.929,2.3c-.489.427-1.35.07-1.35.07S1706.6,513.891,1706.6,513.9Zm1.223-1.522-5.446-2.114a.286.286,0,1,1,.208-.534l6.243,2.423a.285.285,0,0,1,.134.108,2.846,2.846,0,0,1-1.211.082A.417.417,0,0,1,1707.824,512.376Zm.876-1.695-5.67-2.2a.286.286,0,1,1,.207-.534l6.034,2.343A.7.7,0,0,1,1708.7,510.682Z" transform="translate(-1689.329 -505.438)" fill="#707070" fill-rule="evenodd"/>
            </g>
          </g>
        </g>
      </g>
    </g>
  </g>
</svg>
