<svg xmlns="http://www.w3.org/2000/svg" width="26.121" height="25.032" viewBox="0 0 26.121 25.032">
  <g id="Group_1557" data-name="Group 1557" transform="translate(-37.485 -617.984)">
    <path id="star" d="M5.847,25.525a1.39,1.39,0,0,1-1.353-1.7l1.68-7.4-5.7-5A1.389,1.389,0,0,1,1.262,9L8.8,8.312l2.981-6.977a1.388,1.388,0,0,1,2.553,0l2.981,6.978L24.858,9a1.39,1.39,0,0,1,.789,2.429l-5.7,5,1.68,7.4a1.388,1.388,0,0,1-2.066,1.5l-6.5-3.886-6.5,3.888A1.391,1.391,0,0,1,5.847,25.525Zm7.214-5.759a1.392,1.392,0,0,1,.712.2l6.136,3.67-1.586-6.987a1.388,1.388,0,0,1,.44-1.353l5.381-4.719-7.119-.647a1.387,1.387,0,0,1-1.154-.841L13.061,2.5,10.247,9.087a1.383,1.383,0,0,1-1.15.838l-7.12.647,5.381,4.719a1.385,1.385,0,0,1,.44,1.354L6.212,23.632l6.136-3.669A1.391,1.391,0,0,1,13.061,19.766ZM8.745,8.447a0,0,0,0,1,0,0Zm8.629,0v0S17.375,8.445,17.374,8.444Zm0,0" transform="translate(37.484 617.492)"/>
  </g>
</svg>
