<svg id="Groupe_174" data-name="Groupe 174" xmlns="http://www.w3.org/2000/svg" width="33.333" height="30" viewBox="0 0 33.333 30">
  <path id="Tracé_500" data-name="Tracé 500" d="M27.109,26.447a9.656,9.656,0,0,0-17.89-3.208,5.531,5.531,0,0,0-1.014-.1A5.292,5.292,0,0,0,2.92,28.428a5.777,5.777,0,0,0,.11,1.1A7.354,7.354,0,0,0,0,35.454a7.862,7.862,0,0,0,1.995,5.2A7.119,7.119,0,0,0,6.93,43.138h5.95a.925.925,0,0,0,0-1.851H7.012a5.836,5.836,0,0,1-5.161-5.84,5.494,5.494,0,0,1,2.721-4.73.933.933,0,0,0,.4-1.124,3.358,3.358,0,0,1-.206-1.179A3.44,3.44,0,0,1,8.2,24.98a3.375,3.375,0,0,1,1.172.206.93.93,0,0,0,1.158-.473,7.8,7.8,0,0,1,14.826,2.57.924.924,0,0,0,.768.823A6.671,6.671,0,0,1,25.5,41.28H20.447a.925.925,0,0,0,0,1.851H25.6a8.2,8.2,0,0,0,5.5-2.714,8.531,8.531,0,0,0-3.989-13.969Z" transform="translate(0 -18.4)" fill="#fff"/>
  <path id="Tracé_501" data-name="Tracé 501" d="M169.6,192.1a.975.975,0,0,0,0-1.352l-4.9-5.062a.922.922,0,0,0-.651-.283.894.894,0,0,0-.651.283l-4.9,5.062a.975.975,0,0,0,0,1.352.917.917,0,0,0,.651.283.889.889,0,0,0,.651-.283l3.324-3.434v12.447a.926.926,0,1,0,1.851,0V188.664L168.3,192.1A.894.894,0,0,0,169.6,192.1Z" transform="translate(-147.38 -172.067)" fill="#fff"/>
</svg>
